G04 #@! TF.FileFunction,Legend,Top*
%FSLAX46Y46*%
G04 Gerber Fmt 4.6, Leading zero omitted, Abs format (unit mm)*
G04 Created by KiCad (PCBNEW 4.0.2+e4-6225~38~ubuntu15.10.1-stable) date Do 16 Jun 2016 08:59:28 CEST*
%MOMM*%
G01*
G04 APERTURE LIST*
%ADD10C,0.100000*%
%ADD11C,0.200000*%
%ADD12C,0.300000*%
%ADD13C,0.150000*%
%ADD14O,1.873200X1.009600*%
%ADD15R,1.200100X2.200860*%
%ADD16R,2.127200X2.127200*%
%ADD17O,2.127200X2.127200*%
%ADD18R,2.432000X2.127200*%
%ADD19O,2.432000X2.127200*%
%ADD20R,2.400000X1.000000*%
%ADD21R,1.600000X1.200000*%
%ADD22R,1.300000X0.900000*%
%ADD23R,0.900000X1.300000*%
%ADD24R,2.900000X1.300000*%
%ADD25O,1.901140X2.899360*%
%ADD26R,2.800000X2.400000*%
%ADD27R,1.400000X2.900000*%
%ADD28R,1.150000X1.200000*%
%ADD29R,1.400000X2.000000*%
%ADD30O,1.600000X2.200000*%
%ADD31R,1.400000X0.900000*%
G04 APERTURE END LIST*
D10*
D11*
X146050000Y-94615000D02*
X146050000Y-93980000D01*
X146050000Y-95250000D02*
X146050000Y-94615000D01*
X146050000Y-97155000D02*
X146050000Y-95885000D01*
X146050000Y-99060000D02*
X146050000Y-97790000D01*
X146050000Y-100965000D02*
X146050000Y-99695000D01*
X146050000Y-102870000D02*
X146050000Y-101600000D01*
X146050000Y-104140000D02*
X146050000Y-103505000D01*
X146050000Y-107315000D02*
X146050000Y-106045000D01*
X146050000Y-109220000D02*
X146050000Y-107950000D01*
X146050000Y-111125000D02*
X146050000Y-109855000D01*
X146050000Y-113030000D02*
X146050000Y-111760000D01*
X146050000Y-114935000D02*
X146050000Y-113665000D01*
X146050000Y-116840000D02*
X146050000Y-115570000D01*
D12*
X149280715Y-113778571D02*
X148566429Y-113778571D01*
X148566429Y-112278571D01*
X149780715Y-113778571D02*
X149780715Y-112778571D01*
X149780715Y-112278571D02*
X149709286Y-112350000D01*
X149780715Y-112421429D01*
X149852143Y-112350000D01*
X149780715Y-112278571D01*
X149780715Y-112421429D01*
X150495001Y-112778571D02*
X150495001Y-113778571D01*
X150495001Y-112921429D02*
X150566429Y-112850000D01*
X150709287Y-112778571D01*
X150923572Y-112778571D01*
X151066429Y-112850000D01*
X151137858Y-112992857D01*
X151137858Y-113778571D01*
X152423572Y-113707143D02*
X152280715Y-113778571D01*
X151995001Y-113778571D01*
X151852144Y-113707143D01*
X151780715Y-113564286D01*
X151780715Y-112992857D01*
X151852144Y-112850000D01*
X151995001Y-112778571D01*
X152280715Y-112778571D01*
X152423572Y-112850000D01*
X152495001Y-112992857D01*
X152495001Y-113135714D01*
X151780715Y-113278571D01*
X148709287Y-116178571D02*
X147995001Y-116178571D01*
X147995001Y-114678571D01*
X149780715Y-116107143D02*
X149637858Y-116178571D01*
X149352144Y-116178571D01*
X149209287Y-116107143D01*
X149137858Y-115964286D01*
X149137858Y-115392857D01*
X149209287Y-115250000D01*
X149352144Y-115178571D01*
X149637858Y-115178571D01*
X149780715Y-115250000D01*
X149852144Y-115392857D01*
X149852144Y-115535714D01*
X149137858Y-115678571D01*
X150352144Y-115178571D02*
X150709287Y-116178571D01*
X151066429Y-115178571D01*
X152209286Y-116107143D02*
X152066429Y-116178571D01*
X151780715Y-116178571D01*
X151637858Y-116107143D01*
X151566429Y-115964286D01*
X151566429Y-115392857D01*
X151637858Y-115250000D01*
X151780715Y-115178571D01*
X152066429Y-115178571D01*
X152209286Y-115250000D01*
X152280715Y-115392857D01*
X152280715Y-115535714D01*
X151566429Y-115678571D01*
X153137858Y-116178571D02*
X152995000Y-116107143D01*
X152923572Y-115964286D01*
X152923572Y-114678571D01*
X139712143Y-113778571D02*
X138997857Y-113778571D01*
X138997857Y-112278571D01*
X140426429Y-113778571D02*
X140283571Y-113707143D01*
X140212143Y-113635714D01*
X140140714Y-113492857D01*
X140140714Y-113064286D01*
X140212143Y-112921429D01*
X140283571Y-112850000D01*
X140426429Y-112778571D01*
X140640714Y-112778571D01*
X140783571Y-112850000D01*
X140855000Y-112921429D01*
X140926429Y-113064286D01*
X140926429Y-113492857D01*
X140855000Y-113635714D01*
X140783571Y-113707143D01*
X140640714Y-113778571D01*
X140426429Y-113778571D01*
X142212143Y-112778571D02*
X142212143Y-113992857D01*
X142140714Y-114135714D01*
X142069286Y-114207143D01*
X141926429Y-114278571D01*
X141712143Y-114278571D01*
X141569286Y-114207143D01*
X142212143Y-113707143D02*
X142069286Y-113778571D01*
X141783572Y-113778571D01*
X141640714Y-113707143D01*
X141569286Y-113635714D01*
X141497857Y-113492857D01*
X141497857Y-113064286D01*
X141569286Y-112921429D01*
X141640714Y-112850000D01*
X141783572Y-112778571D01*
X142069286Y-112778571D01*
X142212143Y-112850000D01*
X142926429Y-113778571D02*
X142926429Y-112778571D01*
X142926429Y-112278571D02*
X142855000Y-112350000D01*
X142926429Y-112421429D01*
X142997857Y-112350000D01*
X142926429Y-112278571D01*
X142926429Y-112421429D01*
X144283572Y-113707143D02*
X144140715Y-113778571D01*
X143855001Y-113778571D01*
X143712143Y-113707143D01*
X143640715Y-113635714D01*
X143569286Y-113492857D01*
X143569286Y-113064286D01*
X143640715Y-112921429D01*
X143712143Y-112850000D01*
X143855001Y-112778571D01*
X144140715Y-112778571D01*
X144283572Y-112850000D01*
X139819287Y-116178571D02*
X139105001Y-116178571D01*
X139105001Y-114678571D01*
X140890715Y-116107143D02*
X140747858Y-116178571D01*
X140462144Y-116178571D01*
X140319287Y-116107143D01*
X140247858Y-115964286D01*
X140247858Y-115392857D01*
X140319287Y-115250000D01*
X140462144Y-115178571D01*
X140747858Y-115178571D01*
X140890715Y-115250000D01*
X140962144Y-115392857D01*
X140962144Y-115535714D01*
X140247858Y-115678571D01*
X141462144Y-115178571D02*
X141819287Y-116178571D01*
X142176429Y-115178571D01*
X143319286Y-116107143D02*
X143176429Y-116178571D01*
X142890715Y-116178571D01*
X142747858Y-116107143D01*
X142676429Y-115964286D01*
X142676429Y-115392857D01*
X142747858Y-115250000D01*
X142890715Y-115178571D01*
X143176429Y-115178571D01*
X143319286Y-115250000D01*
X143390715Y-115392857D01*
X143390715Y-115535714D01*
X142676429Y-115678571D01*
X144247858Y-116178571D02*
X144105000Y-116107143D01*
X144033572Y-115964286D01*
X144033572Y-114678571D01*
D11*
X89535000Y-113665000D02*
X93345000Y-113665000D01*
X88900000Y-113030000D02*
X89535000Y-113665000D01*
X86995000Y-109855000D02*
X86995000Y-113665000D01*
X87630000Y-109220000D02*
X86995000Y-109855000D01*
D12*
X88844286Y-116248571D02*
X88344286Y-115534286D01*
X87987143Y-116248571D02*
X87987143Y-114748571D01*
X88558571Y-114748571D01*
X88701429Y-114820000D01*
X88772857Y-114891429D01*
X88844286Y-115034286D01*
X88844286Y-115248571D01*
X88772857Y-115391429D01*
X88701429Y-115462857D01*
X88558571Y-115534286D01*
X87987143Y-115534286D01*
X89415714Y-116177143D02*
X89630000Y-116248571D01*
X89987143Y-116248571D01*
X90130000Y-116177143D01*
X90201429Y-116105714D01*
X90272857Y-115962857D01*
X90272857Y-115820000D01*
X90201429Y-115677143D01*
X90130000Y-115605714D01*
X89987143Y-115534286D01*
X89701429Y-115462857D01*
X89558571Y-115391429D01*
X89487143Y-115320000D01*
X89415714Y-115177143D01*
X89415714Y-115034286D01*
X89487143Y-114891429D01*
X89558571Y-114820000D01*
X89701429Y-114748571D01*
X90058571Y-114748571D01*
X90272857Y-114820000D01*
X90701428Y-114748571D02*
X91558571Y-114748571D01*
X91130000Y-116248571D02*
X91130000Y-114748571D01*
X93702143Y-114978571D02*
X93702143Y-113478571D01*
X94416429Y-114978571D02*
X94416429Y-113478571D01*
X95273572Y-114978571D01*
X95273572Y-113478571D01*
X95773572Y-113478571D02*
X96630715Y-113478571D01*
X96202144Y-114978571D02*
X96202144Y-113478571D01*
X94559286Y-112295714D02*
X94487857Y-112367143D01*
X94273571Y-112438571D01*
X94130714Y-112438571D01*
X93916429Y-112367143D01*
X93773571Y-112224286D01*
X93702143Y-112081429D01*
X93630714Y-111795714D01*
X93630714Y-111581429D01*
X93702143Y-111295714D01*
X93773571Y-111152857D01*
X93916429Y-111010000D01*
X94130714Y-110938571D01*
X94273571Y-110938571D01*
X94487857Y-111010000D01*
X94559286Y-111081429D01*
X95130714Y-112367143D02*
X95345000Y-112438571D01*
X95702143Y-112438571D01*
X95845000Y-112367143D01*
X95916429Y-112295714D01*
X95987857Y-112152857D01*
X95987857Y-112010000D01*
X95916429Y-111867143D01*
X95845000Y-111795714D01*
X95702143Y-111724286D01*
X95416429Y-111652857D01*
X95273571Y-111581429D01*
X95202143Y-111510000D01*
X95130714Y-111367143D01*
X95130714Y-111224286D01*
X95202143Y-111081429D01*
X95273571Y-111010000D01*
X95416429Y-110938571D01*
X95773571Y-110938571D01*
X95987857Y-111010000D01*
X93702143Y-109898571D02*
X93702143Y-108398571D01*
X94202143Y-109470000D01*
X94702143Y-108398571D01*
X94702143Y-109898571D01*
X95702143Y-108398571D02*
X95987857Y-108398571D01*
X96130715Y-108470000D01*
X96273572Y-108612857D01*
X96345000Y-108898571D01*
X96345000Y-109398571D01*
X96273572Y-109684286D01*
X96130715Y-109827143D01*
X95987857Y-109898571D01*
X95702143Y-109898571D01*
X95559286Y-109827143D01*
X95416429Y-109684286D01*
X95345000Y-109398571D01*
X95345000Y-108898571D01*
X95416429Y-108612857D01*
X95559286Y-108470000D01*
X95702143Y-108398571D01*
X96916429Y-109827143D02*
X97130715Y-109898571D01*
X97487858Y-109898571D01*
X97630715Y-109827143D01*
X97702144Y-109755714D01*
X97773572Y-109612857D01*
X97773572Y-109470000D01*
X97702144Y-109327143D01*
X97630715Y-109255714D01*
X97487858Y-109184286D01*
X97202144Y-109112857D01*
X97059286Y-109041429D01*
X96987858Y-108970000D01*
X96916429Y-108827143D01*
X96916429Y-108684286D01*
X96987858Y-108541429D01*
X97059286Y-108470000D01*
X97202144Y-108398571D01*
X97559286Y-108398571D01*
X97773572Y-108470000D01*
X98416429Y-109898571D02*
X98416429Y-108398571D01*
X93630714Y-104747143D02*
X93845000Y-104818571D01*
X94202143Y-104818571D01*
X94345000Y-104747143D01*
X94416429Y-104675714D01*
X94487857Y-104532857D01*
X94487857Y-104390000D01*
X94416429Y-104247143D01*
X94345000Y-104175714D01*
X94202143Y-104104286D01*
X93916429Y-104032857D01*
X93773571Y-103961429D01*
X93702143Y-103890000D01*
X93630714Y-103747143D01*
X93630714Y-103604286D01*
X93702143Y-103461429D01*
X93773571Y-103390000D01*
X93916429Y-103318571D01*
X94273571Y-103318571D01*
X94487857Y-103390000D01*
X95987857Y-104675714D02*
X95916428Y-104747143D01*
X95702142Y-104818571D01*
X95559285Y-104818571D01*
X95345000Y-104747143D01*
X95202142Y-104604286D01*
X95130714Y-104461429D01*
X95059285Y-104175714D01*
X95059285Y-103961429D01*
X95130714Y-103675714D01*
X95202142Y-103532857D01*
X95345000Y-103390000D01*
X95559285Y-103318571D01*
X95702142Y-103318571D01*
X95916428Y-103390000D01*
X95987857Y-103461429D01*
X96630714Y-104818571D02*
X96630714Y-103318571D01*
X97487857Y-104818571D02*
X96845000Y-103961429D01*
X97487857Y-103318571D02*
X96630714Y-104175714D01*
X94487857Y-100850000D02*
X94345000Y-100778571D01*
X94130714Y-100778571D01*
X93916429Y-100850000D01*
X93773571Y-100992857D01*
X93702143Y-101135714D01*
X93630714Y-101421429D01*
X93630714Y-101635714D01*
X93702143Y-101921429D01*
X93773571Y-102064286D01*
X93916429Y-102207143D01*
X94130714Y-102278571D01*
X94273571Y-102278571D01*
X94487857Y-102207143D01*
X94559286Y-102135714D01*
X94559286Y-101635714D01*
X94273571Y-101635714D01*
X95202143Y-102278571D02*
X95202143Y-100778571D01*
X96059286Y-102278571D01*
X96059286Y-100778571D01*
X96773572Y-102278571D02*
X96773572Y-100778571D01*
X97130715Y-100778571D01*
X97345000Y-100850000D01*
X97487858Y-100992857D01*
X97559286Y-101135714D01*
X97630715Y-101421429D01*
X97630715Y-101635714D01*
X97559286Y-101921429D01*
X97487858Y-102064286D01*
X97345000Y-102207143D01*
X97130715Y-102278571D01*
X96773572Y-102278571D01*
X93559286Y-98238571D02*
X94487857Y-98238571D01*
X93987857Y-98810000D01*
X94202143Y-98810000D01*
X94345000Y-98881429D01*
X94416429Y-98952857D01*
X94487857Y-99095714D01*
X94487857Y-99452857D01*
X94416429Y-99595714D01*
X94345000Y-99667143D01*
X94202143Y-99738571D01*
X93773571Y-99738571D01*
X93630714Y-99667143D01*
X93559286Y-99595714D01*
X94916428Y-98238571D02*
X95416428Y-99738571D01*
X95916428Y-98238571D01*
X96273571Y-98238571D02*
X97202142Y-98238571D01*
X96702142Y-98810000D01*
X96916428Y-98810000D01*
X97059285Y-98881429D01*
X97130714Y-98952857D01*
X97202142Y-99095714D01*
X97202142Y-99452857D01*
X97130714Y-99595714D01*
X97059285Y-99667143D01*
X96916428Y-99738571D01*
X96487856Y-99738571D01*
X96344999Y-99667143D01*
X96273571Y-99595714D01*
X93702143Y-107358571D02*
X93702143Y-105858571D01*
X94202143Y-106930000D01*
X94702143Y-105858571D01*
X94702143Y-107358571D01*
X95416429Y-107358571D02*
X95416429Y-105858571D01*
X96059286Y-107287143D02*
X96273572Y-107358571D01*
X96630715Y-107358571D01*
X96773572Y-107287143D01*
X96845001Y-107215714D01*
X96916429Y-107072857D01*
X96916429Y-106930000D01*
X96845001Y-106787143D01*
X96773572Y-106715714D01*
X96630715Y-106644286D01*
X96345001Y-106572857D01*
X96202143Y-106501429D01*
X96130715Y-106430000D01*
X96059286Y-106287143D01*
X96059286Y-106144286D01*
X96130715Y-106001429D01*
X96202143Y-105930000D01*
X96345001Y-105858571D01*
X96702143Y-105858571D01*
X96916429Y-105930000D01*
X97845000Y-105858571D02*
X98130714Y-105858571D01*
X98273572Y-105930000D01*
X98416429Y-106072857D01*
X98487857Y-106358571D01*
X98487857Y-106858571D01*
X98416429Y-107144286D01*
X98273572Y-107287143D01*
X98130714Y-107358571D01*
X97845000Y-107358571D01*
X97702143Y-107287143D01*
X97559286Y-107144286D01*
X97487857Y-106858571D01*
X97487857Y-106358571D01*
X97559286Y-106072857D01*
X97702143Y-105930000D01*
X97845000Y-105858571D01*
X94227859Y-96420714D02*
X94156430Y-96492143D01*
X93942144Y-96563571D01*
X93799287Y-96563571D01*
X93585002Y-96492143D01*
X93442144Y-96349286D01*
X93370716Y-96206429D01*
X93299287Y-95920714D01*
X93299287Y-95706429D01*
X93370716Y-95420714D01*
X93442144Y-95277857D01*
X93585002Y-95135000D01*
X93799287Y-95063571D01*
X93942144Y-95063571D01*
X94156430Y-95135000D01*
X94227859Y-95206429D01*
X94799287Y-96135000D02*
X95513573Y-96135000D01*
X94656430Y-96563571D02*
X95156430Y-95063571D01*
X95656430Y-96563571D01*
X96156430Y-96563571D02*
X96156430Y-95063571D01*
X97013573Y-96563571D01*
X97013573Y-95063571D01*
X99513573Y-96492143D02*
X99370716Y-96563571D01*
X99085002Y-96563571D01*
X98942144Y-96492143D01*
X98870716Y-96420714D01*
X98799287Y-96277857D01*
X98799287Y-95849286D01*
X98870716Y-95706429D01*
X98942144Y-95635000D01*
X99085002Y-95563571D01*
X99370716Y-95563571D01*
X99513573Y-95635000D01*
X100370716Y-96563571D02*
X100227858Y-96492143D01*
X100156430Y-96420714D01*
X100085001Y-96277857D01*
X100085001Y-95849286D01*
X100156430Y-95706429D01*
X100227858Y-95635000D01*
X100370716Y-95563571D01*
X100585001Y-95563571D01*
X100727858Y-95635000D01*
X100799287Y-95706429D01*
X100870716Y-95849286D01*
X100870716Y-96277857D01*
X100799287Y-96420714D01*
X100727858Y-96492143D01*
X100585001Y-96563571D01*
X100370716Y-96563571D01*
X101513573Y-95563571D02*
X101513573Y-96563571D01*
X101513573Y-95706429D02*
X101585001Y-95635000D01*
X101727859Y-95563571D01*
X101942144Y-95563571D01*
X102085001Y-95635000D01*
X102156430Y-95777857D01*
X102156430Y-96563571D01*
X102656430Y-95563571D02*
X103227859Y-95563571D01*
X102870716Y-95063571D02*
X102870716Y-96349286D01*
X102942144Y-96492143D01*
X103085002Y-96563571D01*
X103227859Y-96563571D01*
X103727859Y-96563571D02*
X103727859Y-95563571D01*
X103727859Y-95849286D02*
X103799287Y-95706429D01*
X103870716Y-95635000D01*
X104013573Y-95563571D01*
X104156430Y-95563571D01*
X104870716Y-96563571D02*
X104727858Y-96492143D01*
X104656430Y-96420714D01*
X104585001Y-96277857D01*
X104585001Y-95849286D01*
X104656430Y-95706429D01*
X104727858Y-95635000D01*
X104870716Y-95563571D01*
X105085001Y-95563571D01*
X105227858Y-95635000D01*
X105299287Y-95706429D01*
X105370716Y-95849286D01*
X105370716Y-96277857D01*
X105299287Y-96420714D01*
X105227858Y-96492143D01*
X105085001Y-96563571D01*
X104870716Y-96563571D01*
X106227859Y-96563571D02*
X106085001Y-96492143D01*
X106013573Y-96349286D01*
X106013573Y-95063571D01*
X107013573Y-96563571D02*
X106870715Y-96492143D01*
X106799287Y-96349286D01*
X106799287Y-95063571D01*
X108156429Y-96492143D02*
X108013572Y-96563571D01*
X107727858Y-96563571D01*
X107585001Y-96492143D01*
X107513572Y-96349286D01*
X107513572Y-95777857D01*
X107585001Y-95635000D01*
X107727858Y-95563571D01*
X108013572Y-95563571D01*
X108156429Y-95635000D01*
X108227858Y-95777857D01*
X108227858Y-95920714D01*
X107513572Y-96063571D01*
X108870715Y-96563571D02*
X108870715Y-95563571D01*
X108870715Y-95849286D02*
X108942143Y-95706429D01*
X109013572Y-95635000D01*
X109156429Y-95563571D01*
X109299286Y-95563571D01*
X110942143Y-96563571D02*
X110942143Y-95063571D01*
X110942143Y-95635000D02*
X111085000Y-95563571D01*
X111370714Y-95563571D01*
X111513571Y-95635000D01*
X111585000Y-95706429D01*
X111656429Y-95849286D01*
X111656429Y-96277857D01*
X111585000Y-96420714D01*
X111513571Y-96492143D01*
X111370714Y-96563571D01*
X111085000Y-96563571D01*
X110942143Y-96492143D01*
X112299286Y-96563571D02*
X112299286Y-95563571D01*
X112299286Y-95849286D02*
X112370714Y-95706429D01*
X112442143Y-95635000D01*
X112585000Y-95563571D01*
X112727857Y-95563571D01*
X113799285Y-96492143D02*
X113656428Y-96563571D01*
X113370714Y-96563571D01*
X113227857Y-96492143D01*
X113156428Y-96349286D01*
X113156428Y-95777857D01*
X113227857Y-95635000D01*
X113370714Y-95563571D01*
X113656428Y-95563571D01*
X113799285Y-95635000D01*
X113870714Y-95777857D01*
X113870714Y-95920714D01*
X113156428Y-96063571D01*
X115156428Y-96563571D02*
X115156428Y-95777857D01*
X115084999Y-95635000D01*
X114942142Y-95563571D01*
X114656428Y-95563571D01*
X114513571Y-95635000D01*
X115156428Y-96492143D02*
X115013571Y-96563571D01*
X114656428Y-96563571D01*
X114513571Y-96492143D01*
X114442142Y-96349286D01*
X114442142Y-96206429D01*
X114513571Y-96063571D01*
X114656428Y-95992143D01*
X115013571Y-95992143D01*
X115156428Y-95920714D01*
X115870714Y-96563571D02*
X115870714Y-95063571D01*
X116013571Y-95992143D02*
X116442142Y-96563571D01*
X116442142Y-95563571D02*
X115870714Y-96135000D01*
X117299286Y-96563571D02*
X117156428Y-96492143D01*
X117085000Y-96420714D01*
X117013571Y-96277857D01*
X117013571Y-95849286D01*
X117085000Y-95706429D01*
X117156428Y-95635000D01*
X117299286Y-95563571D01*
X117513571Y-95563571D01*
X117656428Y-95635000D01*
X117727857Y-95706429D01*
X117799286Y-95849286D01*
X117799286Y-96277857D01*
X117727857Y-96420714D01*
X117656428Y-96492143D01*
X117513571Y-96563571D01*
X117299286Y-96563571D01*
X119085000Y-95563571D02*
X119085000Y-96563571D01*
X118442143Y-95563571D02*
X118442143Y-96349286D01*
X118513571Y-96492143D01*
X118656429Y-96563571D01*
X118870714Y-96563571D01*
X119013571Y-96492143D01*
X119085000Y-96420714D01*
X119585000Y-95563571D02*
X120156429Y-95563571D01*
X119799286Y-95063571D02*
X119799286Y-96349286D01*
X119870714Y-96492143D01*
X120013572Y-96563571D01*
X120156429Y-96563571D01*
X121585000Y-95063571D02*
X122085000Y-96563571D01*
X122585000Y-95063571D01*
X123870714Y-96563571D02*
X123013571Y-96563571D01*
X123442143Y-96563571D02*
X123442143Y-95063571D01*
X123299286Y-95277857D01*
X123156428Y-95420714D01*
X123013571Y-95492143D01*
X134127857Y-108398571D02*
X134985000Y-108398571D01*
X134556429Y-109898571D02*
X134556429Y-108398571D01*
X135342143Y-108398571D02*
X136342143Y-109898571D01*
X136342143Y-108398571D02*
X135342143Y-109898571D01*
X135199286Y-107358571D02*
X134699286Y-106644286D01*
X134342143Y-107358571D02*
X134342143Y-105858571D01*
X134913571Y-105858571D01*
X135056429Y-105930000D01*
X135127857Y-106001429D01*
X135199286Y-106144286D01*
X135199286Y-106358571D01*
X135127857Y-106501429D01*
X135056429Y-106572857D01*
X134913571Y-106644286D01*
X134342143Y-106644286D01*
X135699286Y-105858571D02*
X136699286Y-107358571D01*
X136699286Y-105858571D02*
X135699286Y-107358571D01*
X120126429Y-108398571D02*
X120983572Y-108398571D01*
X120555001Y-109898571D02*
X120555001Y-108398571D01*
X121340715Y-108398571D02*
X122340715Y-109898571D01*
X122340715Y-108398571D02*
X121340715Y-109898571D01*
X120840715Y-107358571D02*
X120340715Y-106644286D01*
X119983572Y-107358571D02*
X119983572Y-105858571D01*
X120555000Y-105858571D01*
X120697858Y-105930000D01*
X120769286Y-106001429D01*
X120840715Y-106144286D01*
X120840715Y-106358571D01*
X120769286Y-106501429D01*
X120697858Y-106572857D01*
X120555000Y-106644286D01*
X119983572Y-106644286D01*
X121340715Y-105858571D02*
X122340715Y-107358571D01*
X122340715Y-105858571D02*
X121340715Y-107358571D01*
X175752143Y-109898571D02*
X175037857Y-109898571D01*
X175037857Y-108398571D01*
X175315714Y-107358571D02*
X175315714Y-105858571D01*
X175315714Y-106572857D02*
X176172857Y-106572857D01*
X176172857Y-107358571D02*
X176172857Y-105858571D01*
X175030000Y-104247143D02*
X176172857Y-104247143D01*
X175030000Y-101707143D02*
X176172857Y-101707143D01*
X175601428Y-102278571D02*
X175601428Y-101135714D01*
D13*
X155575000Y-103505000D02*
G75*
G03X155575000Y-103505000I-127000J0D01*
G01*
X154813000Y-102870000D02*
X154813000Y-107950000D01*
X158115000Y-102870000D02*
X158115000Y-107950000D01*
X154305000Y-102870000D02*
X154305000Y-107950000D01*
X154305000Y-102870000D02*
X158115000Y-102870000D01*
X154305000Y-107950000D02*
X158115000Y-107950000D01*
X161060180Y-106730800D02*
X161060180Y-106029760D01*
X161060180Y-106029760D02*
X161309100Y-106029760D01*
X163859160Y-106029760D02*
X164059820Y-106029760D01*
X164059820Y-106029760D02*
X164059820Y-106730800D01*
X87630000Y-97790000D02*
X87630000Y-113030000D01*
X92710000Y-110490000D02*
X92710000Y-97790000D01*
X87630000Y-97790000D02*
X92710000Y-97790000D01*
X87630000Y-113030000D02*
X90170000Y-113030000D01*
X91440000Y-113310000D02*
X92990000Y-113310000D01*
X90170000Y-113030000D02*
X90170000Y-110490000D01*
X90170000Y-110490000D02*
X92710000Y-110490000D01*
X92990000Y-113310000D02*
X92990000Y-111760000D01*
X130810000Y-110490000D02*
X130810000Y-97790000D01*
X130810000Y-97790000D02*
X133350000Y-97790000D01*
X133350000Y-97790000D02*
X133350000Y-110490000D01*
X130530000Y-113310000D02*
X130530000Y-111760000D01*
X130810000Y-110490000D02*
X133350000Y-110490000D01*
X133630000Y-111760000D02*
X133630000Y-113310000D01*
X133630000Y-113310000D02*
X130530000Y-113310000D01*
X179070000Y-107950000D02*
X179070000Y-100330000D01*
X176530000Y-107950000D02*
X176530000Y-100330000D01*
X176250000Y-110770000D02*
X176250000Y-109220000D01*
X179070000Y-100330000D02*
X176530000Y-100330000D01*
X176530000Y-107950000D02*
X179070000Y-107950000D01*
X179350000Y-109220000D02*
X179350000Y-110770000D01*
X179350000Y-110770000D02*
X176250000Y-110770000D01*
X109920000Y-111360000D02*
X109920000Y-111015000D01*
X102170000Y-111360000D02*
X102170000Y-111015000D01*
X102170000Y-99460000D02*
X102170000Y-99805000D01*
X109920000Y-99460000D02*
X109920000Y-99805000D01*
X109920000Y-111360000D02*
X102170000Y-111360000D01*
X109920000Y-99460000D02*
X102170000Y-99460000D01*
X109920000Y-111015000D02*
X111745000Y-111015000D01*
X148050000Y-110220000D02*
G75*
G03X148050000Y-110220000I-500000J0D01*
G01*
X148550000Y-109720000D02*
X148550000Y-108720000D01*
X143550000Y-107220000D02*
X148550000Y-107220000D01*
X143550000Y-111220000D02*
X148550000Y-111220000D01*
X145050000Y-100600000D02*
G75*
G03X145050000Y-100600000I-500000J0D01*
G01*
X143550000Y-101100000D02*
X143550000Y-102100000D01*
X148550000Y-103600000D02*
X143550000Y-103600000D01*
X148550000Y-99600000D02*
X143550000Y-99600000D01*
X172220000Y-109625000D02*
X173220000Y-109625000D01*
X173220000Y-109625000D02*
X174720000Y-110125000D01*
X174720000Y-110125000D02*
X174720000Y-112125000D01*
X174720000Y-112125000D02*
X173220000Y-112625000D01*
X173220000Y-112625000D02*
X172220000Y-112625000D01*
X172220000Y-112625000D02*
X170720000Y-112125000D01*
X170720000Y-112125000D02*
X170720000Y-110125000D01*
X170720000Y-110125000D02*
X172220000Y-109625000D01*
X168140000Y-101195000D02*
X167140000Y-101195000D01*
X167140000Y-101195000D02*
X165640000Y-100695000D01*
X165640000Y-100695000D02*
X165640000Y-98695000D01*
X165640000Y-98695000D02*
X167140000Y-98195000D01*
X167140000Y-98195000D02*
X168140000Y-98195000D01*
X168140000Y-98195000D02*
X169640000Y-98695000D01*
X169640000Y-98695000D02*
X169640000Y-100695000D01*
X169640000Y-100695000D02*
X168140000Y-101195000D01*
X168140000Y-112625000D02*
X167140000Y-112625000D01*
X167140000Y-112625000D02*
X165640000Y-112125000D01*
X165640000Y-112125000D02*
X165640000Y-110125000D01*
X165640000Y-110125000D02*
X167140000Y-109625000D01*
X167140000Y-109625000D02*
X168140000Y-109625000D01*
X168140000Y-109625000D02*
X169640000Y-110125000D01*
X169640000Y-110125000D02*
X169640000Y-112125000D01*
X169640000Y-112125000D02*
X168140000Y-112625000D01*
X173220000Y-101195000D02*
X172220000Y-101195000D01*
X172220000Y-101195000D02*
X170720000Y-100695000D01*
X170720000Y-100695000D02*
X170720000Y-98695000D01*
X170720000Y-98695000D02*
X172220000Y-98195000D01*
X172220000Y-98195000D02*
X173220000Y-98195000D01*
X173220000Y-98195000D02*
X174720000Y-98695000D01*
X174720000Y-98695000D02*
X174720000Y-100695000D01*
X174720000Y-100695000D02*
X173220000Y-101195000D01*
X139025000Y-104005000D02*
X139025000Y-103005000D01*
X140375000Y-103005000D02*
X140375000Y-104005000D01*
X150455000Y-108450000D02*
X150455000Y-107450000D01*
X151805000Y-107450000D02*
X151805000Y-108450000D01*
X157980000Y-101640000D02*
X156980000Y-101640000D01*
X156980000Y-100290000D02*
X157980000Y-100290000D01*
X171245000Y-106410000D02*
X171245000Y-104410000D01*
X174195000Y-104410000D02*
X174195000Y-106410000D01*
X166165000Y-106410000D02*
X166165000Y-104410000D01*
X169115000Y-104410000D02*
X169115000Y-106410000D01*
X155956000Y-93472000D02*
X155956000Y-94615000D01*
X159004000Y-93472000D02*
X159004000Y-94615000D01*
X162814000Y-94615000D02*
X162814000Y-98298000D01*
X162814000Y-98298000D02*
X152146000Y-98298000D01*
X152146000Y-98298000D02*
X152146000Y-94615000D01*
X162814000Y-93472000D02*
X162814000Y-94615000D01*
X162814000Y-94615000D02*
X152146000Y-94615000D01*
X152146000Y-94615000D02*
X152146000Y-93472000D01*
X157480000Y-93472000D02*
X152146000Y-93472000D01*
X157480000Y-93472000D02*
X162814000Y-93472000D01*
X113870000Y-104835000D02*
X113870000Y-100535000D01*
X117270000Y-99585000D02*
X117270000Y-104835000D01*
X105045000Y-115140000D02*
X107045000Y-115140000D01*
X107045000Y-112190000D02*
X105045000Y-112190000D01*
X155210000Y-111965000D02*
X157210000Y-111965000D01*
X157210000Y-109015000D02*
X155210000Y-109015000D01*
X118145000Y-100680000D02*
X118145000Y-99980000D01*
X119345000Y-99980000D02*
X119345000Y-100680000D01*
X119345000Y-103790000D02*
X119345000Y-104490000D01*
X118145000Y-104490000D02*
X118145000Y-103790000D01*
X123190000Y-110490000D02*
X123190000Y-97790000D01*
X123190000Y-97790000D02*
X125730000Y-97790000D01*
X125730000Y-97790000D02*
X125730000Y-110490000D01*
X122910000Y-113310000D02*
X122910000Y-111760000D01*
X123190000Y-110490000D02*
X125730000Y-110490000D01*
X126010000Y-111760000D02*
X126010000Y-113310000D01*
X126010000Y-113310000D02*
X122910000Y-113310000D01*
X163560000Y-99940000D02*
X161560000Y-99940000D01*
X161560000Y-101990000D02*
X163560000Y-101990000D01*
X139700000Y-97790000D02*
X152400000Y-97790000D01*
X152400000Y-97790000D02*
X152400000Y-91440000D01*
X152400000Y-91440000D02*
X139700000Y-91440000D01*
X139700000Y-91440000D02*
X139700000Y-97790000D01*
X127770000Y-103910000D02*
X128770000Y-103910000D01*
X128770000Y-103910000D02*
X130270000Y-104410000D01*
X130270000Y-104410000D02*
X130270000Y-106410000D01*
X130270000Y-106410000D02*
X128770000Y-106910000D01*
X128770000Y-106910000D02*
X127770000Y-106910000D01*
X127770000Y-106910000D02*
X126270000Y-106410000D01*
X126270000Y-106410000D02*
X126270000Y-104410000D01*
X126270000Y-104410000D02*
X127770000Y-103910000D01*
X127770000Y-108990000D02*
X128770000Y-108990000D01*
X128770000Y-108990000D02*
X130270000Y-109490000D01*
X130270000Y-109490000D02*
X130270000Y-111490000D01*
X130270000Y-111490000D02*
X128770000Y-111990000D01*
X128770000Y-111990000D02*
X127770000Y-111990000D01*
X127770000Y-111990000D02*
X126270000Y-111490000D01*
X126270000Y-111490000D02*
X126270000Y-109490000D01*
X126270000Y-109490000D02*
X127770000Y-108990000D01*
X158837381Y-109981905D02*
X159646905Y-109981905D01*
X159742143Y-109934286D01*
X159789762Y-109886667D01*
X159837381Y-109791429D01*
X159837381Y-109600952D01*
X159789762Y-109505714D01*
X159742143Y-109458095D01*
X159646905Y-109410476D01*
X158837381Y-109410476D01*
X159170714Y-108505714D02*
X159837381Y-108505714D01*
X158789762Y-108743810D02*
X159504048Y-108981905D01*
X159504048Y-108362857D01*
X161107381Y-109283095D02*
X160107381Y-109283095D01*
X160821667Y-108949761D01*
X160107381Y-108616428D01*
X161107381Y-108616428D01*
X161012143Y-107568809D02*
X161059762Y-107616428D01*
X161107381Y-107759285D01*
X161107381Y-107854523D01*
X161059762Y-107997381D01*
X160964524Y-108092619D01*
X160869286Y-108140238D01*
X160678810Y-108187857D01*
X160535952Y-108187857D01*
X160345476Y-108140238D01*
X160250238Y-108092619D01*
X160155000Y-107997381D01*
X160107381Y-107854523D01*
X160107381Y-107759285D01*
X160155000Y-107616428D01*
X160202619Y-107568809D01*
X161107381Y-107140238D02*
X160107381Y-107140238D01*
X160107381Y-106759285D01*
X160155000Y-106664047D01*
X160202619Y-106616428D01*
X160297857Y-106568809D01*
X160440714Y-106568809D01*
X160535952Y-106616428D01*
X160583571Y-106664047D01*
X160631190Y-106759285D01*
X160631190Y-107140238D01*
X160202619Y-106187857D02*
X160155000Y-106140238D01*
X160107381Y-106045000D01*
X160107381Y-105806904D01*
X160155000Y-105711666D01*
X160202619Y-105664047D01*
X160297857Y-105616428D01*
X160393095Y-105616428D01*
X160535952Y-105664047D01*
X161107381Y-106235476D01*
X161107381Y-105616428D01*
X160107381Y-104711666D02*
X160107381Y-105187857D01*
X160583571Y-105235476D01*
X160535952Y-105187857D01*
X160488333Y-105092619D01*
X160488333Y-104854523D01*
X160535952Y-104759285D01*
X160583571Y-104711666D01*
X160678810Y-104664047D01*
X160916905Y-104664047D01*
X161012143Y-104711666D01*
X161059762Y-104759285D01*
X161107381Y-104854523D01*
X161107381Y-105092619D01*
X161059762Y-105187857D01*
X161012143Y-105235476D01*
X160107381Y-103759285D02*
X160107381Y-104235476D01*
X160583571Y-104283095D01*
X160535952Y-104235476D01*
X160488333Y-104140238D01*
X160488333Y-103902142D01*
X160535952Y-103806904D01*
X160583571Y-103759285D01*
X160678810Y-103711666D01*
X160916905Y-103711666D01*
X161012143Y-103759285D01*
X161059762Y-103806904D01*
X161107381Y-103902142D01*
X161107381Y-104140238D01*
X161059762Y-104235476D01*
X161012143Y-104283095D01*
X161107381Y-102759285D02*
X161107381Y-103330714D01*
X161107381Y-103045000D02*
X160107381Y-103045000D01*
X160250238Y-103140238D01*
X160345476Y-103235476D01*
X160393095Y-103330714D01*
X162456905Y-110942381D02*
X162456905Y-109942381D01*
X162695000Y-109942381D01*
X162837858Y-109990000D01*
X162933096Y-110085238D01*
X162980715Y-110180476D01*
X163028334Y-110370952D01*
X163028334Y-110513810D01*
X162980715Y-110704286D01*
X162933096Y-110799524D01*
X162837858Y-110894762D01*
X162695000Y-110942381D01*
X162456905Y-110942381D01*
X163980715Y-110942381D02*
X163409286Y-110942381D01*
X163695000Y-110942381D02*
X163695000Y-109942381D01*
X163599762Y-110085238D01*
X163504524Y-110180476D01*
X163409286Y-110228095D01*
X165552381Y-110934048D02*
X164552381Y-110934048D01*
X164552381Y-110553095D01*
X164600000Y-110457857D01*
X164647619Y-110410238D01*
X164742857Y-110362619D01*
X164885714Y-110362619D01*
X164980952Y-110410238D01*
X165028571Y-110457857D01*
X165076190Y-110553095D01*
X165076190Y-110934048D01*
X165028571Y-109934048D02*
X165028571Y-109600714D01*
X165552381Y-109457857D02*
X165552381Y-109934048D01*
X164552381Y-109934048D01*
X164552381Y-109457857D01*
X165504762Y-109076905D02*
X165552381Y-108934048D01*
X165552381Y-108695952D01*
X165504762Y-108600714D01*
X165457143Y-108553095D01*
X165361905Y-108505476D01*
X165266667Y-108505476D01*
X165171429Y-108553095D01*
X165123810Y-108600714D01*
X165076190Y-108695952D01*
X165028571Y-108886429D01*
X164980952Y-108981667D01*
X164933333Y-109029286D01*
X164838095Y-109076905D01*
X164742857Y-109076905D01*
X164647619Y-109029286D01*
X164600000Y-108981667D01*
X164552381Y-108886429D01*
X164552381Y-108648333D01*
X164600000Y-108505476D01*
X165552381Y-108076905D02*
X164552381Y-108076905D01*
X164552381Y-107838810D01*
X164600000Y-107695952D01*
X164695238Y-107600714D01*
X164790476Y-107553095D01*
X164980952Y-107505476D01*
X165123810Y-107505476D01*
X165314286Y-107553095D01*
X165409524Y-107600714D01*
X165504762Y-107695952D01*
X165552381Y-107838810D01*
X165552381Y-108076905D01*
X165552381Y-106553095D02*
X165552381Y-107124524D01*
X165552381Y-106838810D02*
X164552381Y-106838810D01*
X164695238Y-106934048D01*
X164790476Y-107029286D01*
X164838095Y-107124524D01*
X165457143Y-105553095D02*
X165504762Y-105600714D01*
X165552381Y-105743571D01*
X165552381Y-105838809D01*
X165504762Y-105981667D01*
X165409524Y-106076905D01*
X165314286Y-106124524D01*
X165123810Y-106172143D01*
X164980952Y-106172143D01*
X164790476Y-106124524D01*
X164695238Y-106076905D01*
X164600000Y-105981667D01*
X164552381Y-105838809D01*
X164552381Y-105743571D01*
X164600000Y-105600714D01*
X164647619Y-105553095D01*
X165266667Y-105172143D02*
X165266667Y-104695952D01*
X165552381Y-105267381D02*
X164552381Y-104934048D01*
X165552381Y-104600714D01*
X165552381Y-104267381D02*
X164552381Y-104267381D01*
X165552381Y-103695952D01*
X164552381Y-103695952D01*
X90701905Y-117312381D02*
X90701905Y-116312381D01*
X91082858Y-116312381D01*
X91178096Y-116360000D01*
X91225715Y-116407619D01*
X91273334Y-116502857D01*
X91273334Y-116645714D01*
X91225715Y-116740952D01*
X91178096Y-116788571D01*
X91082858Y-116836190D01*
X90701905Y-116836190D01*
X92225715Y-117312381D02*
X91654286Y-117312381D01*
X91940000Y-117312381D02*
X91940000Y-116312381D01*
X91844762Y-116455238D01*
X91749524Y-116550476D01*
X91654286Y-116598095D01*
X131341905Y-117312381D02*
X131341905Y-116312381D01*
X131722858Y-116312381D01*
X131818096Y-116360000D01*
X131865715Y-116407619D01*
X131913334Y-116502857D01*
X131913334Y-116645714D01*
X131865715Y-116740952D01*
X131818096Y-116788571D01*
X131722858Y-116836190D01*
X131341905Y-116836190D01*
X132294286Y-116407619D02*
X132341905Y-116360000D01*
X132437143Y-116312381D01*
X132675239Y-116312381D01*
X132770477Y-116360000D01*
X132818096Y-116407619D01*
X132865715Y-116502857D01*
X132865715Y-116598095D01*
X132818096Y-116740952D01*
X132246667Y-117312381D01*
X132865715Y-117312381D01*
X177061905Y-114772381D02*
X177061905Y-113772381D01*
X177442858Y-113772381D01*
X177538096Y-113820000D01*
X177585715Y-113867619D01*
X177633334Y-113962857D01*
X177633334Y-114105714D01*
X177585715Y-114200952D01*
X177538096Y-114248571D01*
X177442858Y-114296190D01*
X177061905Y-114296190D01*
X177966667Y-113772381D02*
X178585715Y-113772381D01*
X178252381Y-114153333D01*
X178395239Y-114153333D01*
X178490477Y-114200952D01*
X178538096Y-114248571D01*
X178585715Y-114343810D01*
X178585715Y-114581905D01*
X178538096Y-114677143D01*
X178490477Y-114724762D01*
X178395239Y-114772381D01*
X178109524Y-114772381D01*
X178014286Y-114724762D01*
X177966667Y-114677143D01*
X101473095Y-97877381D02*
X101473095Y-98686905D01*
X101520714Y-98782143D01*
X101568333Y-98829762D01*
X101663571Y-98877381D01*
X101854048Y-98877381D01*
X101949286Y-98829762D01*
X101996905Y-98782143D01*
X102044524Y-98686905D01*
X102044524Y-97877381D01*
X103044524Y-98877381D02*
X102473095Y-98877381D01*
X102758809Y-98877381D02*
X102758809Y-97877381D01*
X102663571Y-98020238D01*
X102568333Y-98115476D01*
X102473095Y-98163095D01*
X105346905Y-98877381D02*
X105346905Y-97877381D01*
X105680239Y-98591667D01*
X106013572Y-97877381D01*
X106013572Y-98877381D01*
X107061191Y-98782143D02*
X107013572Y-98829762D01*
X106870715Y-98877381D01*
X106775477Y-98877381D01*
X106632619Y-98829762D01*
X106537381Y-98734524D01*
X106489762Y-98639286D01*
X106442143Y-98448810D01*
X106442143Y-98305952D01*
X106489762Y-98115476D01*
X106537381Y-98020238D01*
X106632619Y-97925000D01*
X106775477Y-97877381D01*
X106870715Y-97877381D01*
X107013572Y-97925000D01*
X107061191Y-97972619D01*
X107489762Y-98877381D02*
X107489762Y-97877381D01*
X107870715Y-97877381D01*
X107965953Y-97925000D01*
X108013572Y-97972619D01*
X108061191Y-98067857D01*
X108061191Y-98210714D01*
X108013572Y-98305952D01*
X107965953Y-98353571D01*
X107870715Y-98401190D01*
X107489762Y-98401190D01*
X108442143Y-97972619D02*
X108489762Y-97925000D01*
X108585000Y-97877381D01*
X108823096Y-97877381D01*
X108918334Y-97925000D01*
X108965953Y-97972619D01*
X109013572Y-98067857D01*
X109013572Y-98163095D01*
X108965953Y-98305952D01*
X108394524Y-98877381D01*
X109013572Y-98877381D01*
X109918334Y-97877381D02*
X109442143Y-97877381D01*
X109394524Y-98353571D01*
X109442143Y-98305952D01*
X109537381Y-98258333D01*
X109775477Y-98258333D01*
X109870715Y-98305952D01*
X109918334Y-98353571D01*
X109965953Y-98448810D01*
X109965953Y-98686905D01*
X109918334Y-98782143D01*
X109870715Y-98829762D01*
X109775477Y-98877381D01*
X109537381Y-98877381D01*
X109442143Y-98829762D01*
X109394524Y-98782143D01*
X110918334Y-98877381D02*
X110346905Y-98877381D01*
X110632619Y-98877381D02*
X110632619Y-97877381D01*
X110537381Y-98020238D01*
X110442143Y-98115476D01*
X110346905Y-98163095D01*
X111823096Y-97877381D02*
X111346905Y-97877381D01*
X111299286Y-98353571D01*
X111346905Y-98305952D01*
X111442143Y-98258333D01*
X111680239Y-98258333D01*
X111775477Y-98305952D01*
X111823096Y-98353571D01*
X111870715Y-98448810D01*
X111870715Y-98686905D01*
X111823096Y-98782143D01*
X111775477Y-98829762D01*
X111680239Y-98877381D01*
X111442143Y-98877381D01*
X111346905Y-98829762D01*
X111299286Y-98782143D01*
X141478095Y-106132381D02*
X141478095Y-106941905D01*
X141525714Y-107037143D01*
X141573333Y-107084762D01*
X141668571Y-107132381D01*
X141859048Y-107132381D01*
X141954286Y-107084762D01*
X142001905Y-107037143D01*
X142049524Y-106941905D01*
X142049524Y-106132381D01*
X142478095Y-106227619D02*
X142525714Y-106180000D01*
X142620952Y-106132381D01*
X142859048Y-106132381D01*
X142954286Y-106180000D01*
X143001905Y-106227619D01*
X143049524Y-106322857D01*
X143049524Y-106418095D01*
X143001905Y-106560952D01*
X142430476Y-107132381D01*
X143049524Y-107132381D01*
X149098095Y-103592381D02*
X149098095Y-104401905D01*
X149145714Y-104497143D01*
X149193333Y-104544762D01*
X149288571Y-104592381D01*
X149479048Y-104592381D01*
X149574286Y-104544762D01*
X149621905Y-104497143D01*
X149669524Y-104401905D01*
X149669524Y-103592381D01*
X150050476Y-103592381D02*
X150669524Y-103592381D01*
X150336190Y-103973333D01*
X150479048Y-103973333D01*
X150574286Y-104020952D01*
X150621905Y-104068571D01*
X150669524Y-104163810D01*
X150669524Y-104401905D01*
X150621905Y-104497143D01*
X150574286Y-104544762D01*
X150479048Y-104592381D01*
X150193333Y-104592381D01*
X150098095Y-104544762D01*
X150050476Y-104497143D01*
X142954762Y-104862381D02*
X143526191Y-104862381D01*
X143240476Y-105862381D02*
X143240476Y-104862381D01*
X144335715Y-105862381D02*
X143859524Y-105862381D01*
X143859524Y-104862381D01*
X144669048Y-105862381D02*
X144669048Y-104862381D01*
X145050001Y-104862381D01*
X145145239Y-104910000D01*
X145192858Y-104957619D01*
X145240477Y-105052857D01*
X145240477Y-105195714D01*
X145192858Y-105290952D01*
X145145239Y-105338571D01*
X145050001Y-105386190D01*
X144669048Y-105386190D01*
X145621429Y-104957619D02*
X145669048Y-104910000D01*
X145764286Y-104862381D01*
X146002382Y-104862381D01*
X146097620Y-104910000D01*
X146145239Y-104957619D01*
X146192858Y-105052857D01*
X146192858Y-105148095D01*
X146145239Y-105290952D01*
X145573810Y-105862381D01*
X146192858Y-105862381D01*
X146526191Y-104862381D02*
X147145239Y-104862381D01*
X146811905Y-105243333D01*
X146954763Y-105243333D01*
X147050001Y-105290952D01*
X147097620Y-105338571D01*
X147145239Y-105433810D01*
X147145239Y-105671905D01*
X147097620Y-105767143D01*
X147050001Y-105814762D01*
X146954763Y-105862381D01*
X146669048Y-105862381D01*
X146573810Y-105814762D01*
X146526191Y-105767143D01*
X148002382Y-104862381D02*
X147811905Y-104862381D01*
X147716667Y-104910000D01*
X147669048Y-104957619D01*
X147573810Y-105100476D01*
X147526191Y-105290952D01*
X147526191Y-105671905D01*
X147573810Y-105767143D01*
X147621429Y-105814762D01*
X147716667Y-105862381D01*
X147907144Y-105862381D01*
X148002382Y-105814762D01*
X148050001Y-105767143D01*
X148097620Y-105671905D01*
X148097620Y-105433810D01*
X148050001Y-105338571D01*
X148002382Y-105290952D01*
X147907144Y-105243333D01*
X147716667Y-105243333D01*
X147621429Y-105290952D01*
X147573810Y-105338571D01*
X147526191Y-105433810D01*
X149050001Y-105862381D02*
X148478572Y-105862381D01*
X148764286Y-105862381D02*
X148764286Y-104862381D01*
X148669048Y-105005238D01*
X148573810Y-105100476D01*
X148478572Y-105148095D01*
X171886667Y-114387381D02*
X171886667Y-115101667D01*
X171839047Y-115244524D01*
X171743809Y-115339762D01*
X171600952Y-115387381D01*
X171505714Y-115387381D01*
X172362857Y-115387381D02*
X172362857Y-114387381D01*
X172743810Y-114387381D01*
X172839048Y-114435000D01*
X172886667Y-114482619D01*
X172934286Y-114577857D01*
X172934286Y-114720714D01*
X172886667Y-114815952D01*
X172839048Y-114863571D01*
X172743810Y-114911190D01*
X172362857Y-114911190D01*
X173267619Y-114387381D02*
X173886667Y-114387381D01*
X173553333Y-114768333D01*
X173696191Y-114768333D01*
X173791429Y-114815952D01*
X173839048Y-114863571D01*
X173886667Y-114958810D01*
X173886667Y-115196905D01*
X173839048Y-115292143D01*
X173791429Y-115339762D01*
X173696191Y-115387381D01*
X173410476Y-115387381D01*
X173315238Y-115339762D01*
X173267619Y-115292143D01*
X166806667Y-95337381D02*
X166806667Y-96051667D01*
X166759047Y-96194524D01*
X166663809Y-96289762D01*
X166520952Y-96337381D01*
X166425714Y-96337381D01*
X167282857Y-96337381D02*
X167282857Y-95337381D01*
X167663810Y-95337381D01*
X167759048Y-95385000D01*
X167806667Y-95432619D01*
X167854286Y-95527857D01*
X167854286Y-95670714D01*
X167806667Y-95765952D01*
X167759048Y-95813571D01*
X167663810Y-95861190D01*
X167282857Y-95861190D01*
X168711429Y-95670714D02*
X168711429Y-96337381D01*
X168473333Y-95289762D02*
X168235238Y-96004048D01*
X168854286Y-96004048D01*
X166259048Y-97083571D02*
X165925714Y-97083571D01*
X165925714Y-97607381D02*
X165925714Y-96607381D01*
X166401905Y-96607381D01*
X166782857Y-97607381D02*
X166782857Y-96940714D01*
X166782857Y-96607381D02*
X166735238Y-96655000D01*
X166782857Y-96702619D01*
X166830476Y-96655000D01*
X166782857Y-96607381D01*
X166782857Y-96702619D01*
X167401904Y-97607381D02*
X167306666Y-97559762D01*
X167259047Y-97464524D01*
X167259047Y-96607381D01*
X167640000Y-96940714D02*
X168020952Y-96940714D01*
X167782857Y-96607381D02*
X167782857Y-97464524D01*
X167830476Y-97559762D01*
X167925714Y-97607381D01*
X168020952Y-97607381D01*
X168735239Y-97559762D02*
X168640001Y-97607381D01*
X168449524Y-97607381D01*
X168354286Y-97559762D01*
X168306667Y-97464524D01*
X168306667Y-97083571D01*
X168354286Y-96988333D01*
X168449524Y-96940714D01*
X168640001Y-96940714D01*
X168735239Y-96988333D01*
X168782858Y-97083571D01*
X168782858Y-97178810D01*
X168306667Y-97274048D01*
X169211429Y-97607381D02*
X169211429Y-96940714D01*
X169211429Y-97131190D02*
X169259048Y-97035952D01*
X169306667Y-96988333D01*
X169401905Y-96940714D01*
X169497144Y-96940714D01*
X166806667Y-114387381D02*
X166806667Y-115101667D01*
X166759047Y-115244524D01*
X166663809Y-115339762D01*
X166520952Y-115387381D01*
X166425714Y-115387381D01*
X167282857Y-115387381D02*
X167282857Y-114387381D01*
X167663810Y-114387381D01*
X167759048Y-114435000D01*
X167806667Y-114482619D01*
X167854286Y-114577857D01*
X167854286Y-114720714D01*
X167806667Y-114815952D01*
X167759048Y-114863571D01*
X167663810Y-114911190D01*
X167282857Y-114911190D01*
X168759048Y-114387381D02*
X168282857Y-114387381D01*
X168235238Y-114863571D01*
X168282857Y-114815952D01*
X168378095Y-114768333D01*
X168616191Y-114768333D01*
X168711429Y-114815952D01*
X168759048Y-114863571D01*
X168806667Y-114958810D01*
X168806667Y-115196905D01*
X168759048Y-115292143D01*
X168711429Y-115339762D01*
X168616191Y-115387381D01*
X168378095Y-115387381D01*
X168282857Y-115339762D01*
X168235238Y-115292143D01*
X166632381Y-113117381D02*
X167203810Y-113117381D01*
X166918095Y-114117381D02*
X166918095Y-113117381D01*
X167918096Y-114069762D02*
X167822858Y-114117381D01*
X167632381Y-114117381D01*
X167537143Y-114069762D01*
X167489524Y-113974524D01*
X167489524Y-113593571D01*
X167537143Y-113498333D01*
X167632381Y-113450714D01*
X167822858Y-113450714D01*
X167918096Y-113498333D01*
X167965715Y-113593571D01*
X167965715Y-113688810D01*
X167489524Y-113784048D01*
X168394286Y-114117381D02*
X168394286Y-113450714D01*
X168394286Y-113641190D02*
X168441905Y-113545952D01*
X168489524Y-113498333D01*
X168584762Y-113450714D01*
X168680001Y-113450714D01*
X169013334Y-114117381D02*
X169013334Y-113450714D01*
X169013334Y-113545952D02*
X169060953Y-113498333D01*
X169156191Y-113450714D01*
X169299049Y-113450714D01*
X169394287Y-113498333D01*
X169441906Y-113593571D01*
X169441906Y-114117381D01*
X169441906Y-113593571D02*
X169489525Y-113498333D01*
X169584763Y-113450714D01*
X169727620Y-113450714D01*
X169822858Y-113498333D01*
X169870477Y-113593571D01*
X169870477Y-114117381D01*
X170346667Y-114117381D02*
X170346667Y-113450714D01*
X170346667Y-113117381D02*
X170299048Y-113165000D01*
X170346667Y-113212619D01*
X170394286Y-113165000D01*
X170346667Y-113117381D01*
X170346667Y-113212619D01*
X170822857Y-113450714D02*
X170822857Y-114117381D01*
X170822857Y-113545952D02*
X170870476Y-113498333D01*
X170965714Y-113450714D01*
X171108572Y-113450714D01*
X171203810Y-113498333D01*
X171251429Y-113593571D01*
X171251429Y-114117381D01*
X172156191Y-114117381D02*
X172156191Y-113593571D01*
X172108572Y-113498333D01*
X172013334Y-113450714D01*
X171822857Y-113450714D01*
X171727619Y-113498333D01*
X172156191Y-114069762D02*
X172060953Y-114117381D01*
X171822857Y-114117381D01*
X171727619Y-114069762D01*
X171680000Y-113974524D01*
X171680000Y-113879286D01*
X171727619Y-113784048D01*
X171822857Y-113736429D01*
X172060953Y-113736429D01*
X172156191Y-113688810D01*
X172489524Y-113450714D02*
X172870476Y-113450714D01*
X172632381Y-113117381D02*
X172632381Y-113974524D01*
X172680000Y-114069762D01*
X172775238Y-114117381D01*
X172870476Y-114117381D01*
X173584763Y-114069762D02*
X173489525Y-114117381D01*
X173299048Y-114117381D01*
X173203810Y-114069762D01*
X173156191Y-113974524D01*
X173156191Y-113593571D01*
X173203810Y-113498333D01*
X173299048Y-113450714D01*
X173489525Y-113450714D01*
X173584763Y-113498333D01*
X173632382Y-113593571D01*
X173632382Y-113688810D01*
X173156191Y-113784048D01*
X171886667Y-95337381D02*
X171886667Y-96051667D01*
X171839047Y-96194524D01*
X171743809Y-96289762D01*
X171600952Y-96337381D01*
X171505714Y-96337381D01*
X172362857Y-96337381D02*
X172362857Y-95337381D01*
X172743810Y-95337381D01*
X172839048Y-95385000D01*
X172886667Y-95432619D01*
X172934286Y-95527857D01*
X172934286Y-95670714D01*
X172886667Y-95765952D01*
X172839048Y-95813571D01*
X172743810Y-95861190D01*
X172362857Y-95861190D01*
X173791429Y-95337381D02*
X173600952Y-95337381D01*
X173505714Y-95385000D01*
X173458095Y-95432619D01*
X173362857Y-95575476D01*
X173315238Y-95765952D01*
X173315238Y-96146905D01*
X173362857Y-96242143D01*
X173410476Y-96289762D01*
X173505714Y-96337381D01*
X173696191Y-96337381D01*
X173791429Y-96289762D01*
X173839048Y-96242143D01*
X173886667Y-96146905D01*
X173886667Y-95908810D01*
X173839048Y-95813571D01*
X173791429Y-95765952D01*
X173696191Y-95718333D01*
X173505714Y-95718333D01*
X173410476Y-95765952D01*
X173362857Y-95813571D01*
X173315238Y-95908810D01*
X170743809Y-97607381D02*
X170743809Y-96607381D01*
X171124762Y-96607381D01*
X171220000Y-96655000D01*
X171267619Y-96702619D01*
X171315238Y-96797857D01*
X171315238Y-96940714D01*
X171267619Y-97035952D01*
X171220000Y-97083571D01*
X171124762Y-97131190D01*
X170743809Y-97131190D01*
X171886666Y-97607381D02*
X171791428Y-97559762D01*
X171743809Y-97512143D01*
X171696190Y-97416905D01*
X171696190Y-97131190D01*
X171743809Y-97035952D01*
X171791428Y-96988333D01*
X171886666Y-96940714D01*
X172029524Y-96940714D01*
X172124762Y-96988333D01*
X172172381Y-97035952D01*
X172220000Y-97131190D01*
X172220000Y-97416905D01*
X172172381Y-97512143D01*
X172124762Y-97559762D01*
X172029524Y-97607381D01*
X171886666Y-97607381D01*
X172553333Y-96940714D02*
X172743809Y-97607381D01*
X172934286Y-97131190D01*
X173124762Y-97607381D01*
X173315238Y-96940714D01*
X174077143Y-97559762D02*
X173981905Y-97607381D01*
X173791428Y-97607381D01*
X173696190Y-97559762D01*
X173648571Y-97464524D01*
X173648571Y-97083571D01*
X173696190Y-96988333D01*
X173791428Y-96940714D01*
X173981905Y-96940714D01*
X174077143Y-96988333D01*
X174124762Y-97083571D01*
X174124762Y-97178810D01*
X173648571Y-97274048D01*
X174553333Y-97607381D02*
X174553333Y-96940714D01*
X174553333Y-97131190D02*
X174600952Y-97035952D01*
X174648571Y-96988333D01*
X174743809Y-96940714D01*
X174839048Y-96940714D01*
X140152381Y-101131666D02*
X139676190Y-101465000D01*
X140152381Y-101703095D02*
X139152381Y-101703095D01*
X139152381Y-101322142D01*
X139200000Y-101226904D01*
X139247619Y-101179285D01*
X139342857Y-101131666D01*
X139485714Y-101131666D01*
X139580952Y-101179285D01*
X139628571Y-101226904D01*
X139676190Y-101322142D01*
X139676190Y-101703095D01*
X140152381Y-100179285D02*
X140152381Y-100750714D01*
X140152381Y-100465000D02*
X139152381Y-100465000D01*
X139295238Y-100560238D01*
X139390476Y-100655476D01*
X139438095Y-100750714D01*
X138252381Y-104171666D02*
X138252381Y-104743095D01*
X138252381Y-104457381D02*
X137252381Y-104457381D01*
X137395238Y-104552619D01*
X137490476Y-104647857D01*
X137538095Y-104743095D01*
X137252381Y-103552619D02*
X137252381Y-103457380D01*
X137300000Y-103362142D01*
X137347619Y-103314523D01*
X137442857Y-103266904D01*
X137633333Y-103219285D01*
X137871429Y-103219285D01*
X138061905Y-103266904D01*
X138157143Y-103314523D01*
X138204762Y-103362142D01*
X138252381Y-103457380D01*
X138252381Y-103552619D01*
X138204762Y-103647857D01*
X138157143Y-103695476D01*
X138061905Y-103743095D01*
X137871429Y-103790714D01*
X137633333Y-103790714D01*
X137442857Y-103743095D01*
X137347619Y-103695476D01*
X137300000Y-103647857D01*
X137252381Y-103552619D01*
X137252381Y-102600238D02*
X137252381Y-102504999D01*
X137300000Y-102409761D01*
X137347619Y-102362142D01*
X137442857Y-102314523D01*
X137633333Y-102266904D01*
X137871429Y-102266904D01*
X138061905Y-102314523D01*
X138157143Y-102362142D01*
X138204762Y-102409761D01*
X138252381Y-102504999D01*
X138252381Y-102600238D01*
X138204762Y-102695476D01*
X138157143Y-102743095D01*
X138061905Y-102790714D01*
X137871429Y-102838333D01*
X137633333Y-102838333D01*
X137442857Y-102790714D01*
X137347619Y-102743095D01*
X137300000Y-102695476D01*
X137252381Y-102600238D01*
X150963334Y-110942381D02*
X150630000Y-110466190D01*
X150391905Y-110942381D02*
X150391905Y-109942381D01*
X150772858Y-109942381D01*
X150868096Y-109990000D01*
X150915715Y-110037619D01*
X150963334Y-110132857D01*
X150963334Y-110275714D01*
X150915715Y-110370952D01*
X150868096Y-110418571D01*
X150772858Y-110466190D01*
X150391905Y-110466190D01*
X151344286Y-110037619D02*
X151391905Y-109990000D01*
X151487143Y-109942381D01*
X151725239Y-109942381D01*
X151820477Y-109990000D01*
X151868096Y-110037619D01*
X151915715Y-110132857D01*
X151915715Y-110228095D01*
X151868096Y-110370952D01*
X151296667Y-110942381D01*
X151915715Y-110942381D01*
X150479286Y-111212381D02*
X151098334Y-111212381D01*
X150765000Y-111593333D01*
X150907858Y-111593333D01*
X151003096Y-111640952D01*
X151050715Y-111688571D01*
X151098334Y-111783810D01*
X151098334Y-112021905D01*
X151050715Y-112117143D01*
X151003096Y-112164762D01*
X150907858Y-112212381D01*
X150622143Y-112212381D01*
X150526905Y-112164762D01*
X150479286Y-112117143D01*
X151431667Y-111212381D02*
X152050715Y-111212381D01*
X151717381Y-111593333D01*
X151860239Y-111593333D01*
X151955477Y-111640952D01*
X152003096Y-111688571D01*
X152050715Y-111783810D01*
X152050715Y-112021905D01*
X152003096Y-112117143D01*
X151955477Y-112164762D01*
X151860239Y-112212381D01*
X151574524Y-112212381D01*
X151479286Y-112164762D01*
X151431667Y-112117143D01*
X152669762Y-111212381D02*
X152765001Y-111212381D01*
X152860239Y-111260000D01*
X152907858Y-111307619D01*
X152955477Y-111402857D01*
X153003096Y-111593333D01*
X153003096Y-111831429D01*
X152955477Y-112021905D01*
X152907858Y-112117143D01*
X152860239Y-112164762D01*
X152765001Y-112212381D01*
X152669762Y-112212381D01*
X152574524Y-112164762D01*
X152526905Y-112117143D01*
X152479286Y-112021905D01*
X152431667Y-111831429D01*
X152431667Y-111593333D01*
X152479286Y-111402857D01*
X152526905Y-111307619D01*
X152574524Y-111260000D01*
X152669762Y-111212381D01*
X154773334Y-100782381D02*
X154440000Y-100306190D01*
X154201905Y-100782381D02*
X154201905Y-99782381D01*
X154582858Y-99782381D01*
X154678096Y-99830000D01*
X154725715Y-99877619D01*
X154773334Y-99972857D01*
X154773334Y-100115714D01*
X154725715Y-100210952D01*
X154678096Y-100258571D01*
X154582858Y-100306190D01*
X154201905Y-100306190D01*
X155106667Y-99782381D02*
X155725715Y-99782381D01*
X155392381Y-100163333D01*
X155535239Y-100163333D01*
X155630477Y-100210952D01*
X155678096Y-100258571D01*
X155725715Y-100353810D01*
X155725715Y-100591905D01*
X155678096Y-100687143D01*
X155630477Y-100734762D01*
X155535239Y-100782381D01*
X155249524Y-100782381D01*
X155154286Y-100734762D01*
X155106667Y-100687143D01*
X153281191Y-101385714D02*
X153281191Y-102052381D01*
X153043095Y-101004762D02*
X152805000Y-101719048D01*
X153424048Y-101719048D01*
X153805000Y-101957143D02*
X153852619Y-102004762D01*
X153805000Y-102052381D01*
X153757381Y-102004762D01*
X153805000Y-101957143D01*
X153805000Y-102052381D01*
X154185952Y-101052381D02*
X154852619Y-101052381D01*
X154424047Y-102052381D01*
X155233571Y-102052381D02*
X155233571Y-101052381D01*
X155805000Y-102052381D02*
X155376428Y-101480952D01*
X155805000Y-101052381D02*
X155233571Y-101623810D01*
X171918334Y-102687381D02*
X171585000Y-102211190D01*
X171346905Y-102687381D02*
X171346905Y-101687381D01*
X171727858Y-101687381D01*
X171823096Y-101735000D01*
X171870715Y-101782619D01*
X171918334Y-101877857D01*
X171918334Y-102020714D01*
X171870715Y-102115952D01*
X171823096Y-102163571D01*
X171727858Y-102211190D01*
X171346905Y-102211190D01*
X172775477Y-102020714D02*
X172775477Y-102687381D01*
X172537381Y-101639762D02*
X172299286Y-102354048D01*
X172918334Y-102354048D01*
X171799286Y-108037381D02*
X171608809Y-108037381D01*
X171513571Y-108085000D01*
X171465952Y-108132619D01*
X171370714Y-108275476D01*
X171323095Y-108465952D01*
X171323095Y-108846905D01*
X171370714Y-108942143D01*
X171418333Y-108989762D01*
X171513571Y-109037381D01*
X171704048Y-109037381D01*
X171799286Y-108989762D01*
X171846905Y-108942143D01*
X171894524Y-108846905D01*
X171894524Y-108608810D01*
X171846905Y-108513571D01*
X171799286Y-108465952D01*
X171704048Y-108418333D01*
X171513571Y-108418333D01*
X171418333Y-108465952D01*
X171370714Y-108513571D01*
X171323095Y-108608810D01*
X172513571Y-108037381D02*
X172608810Y-108037381D01*
X172704048Y-108085000D01*
X172751667Y-108132619D01*
X172799286Y-108227857D01*
X172846905Y-108418333D01*
X172846905Y-108656429D01*
X172799286Y-108846905D01*
X172751667Y-108942143D01*
X172704048Y-108989762D01*
X172608810Y-109037381D01*
X172513571Y-109037381D01*
X172418333Y-108989762D01*
X172370714Y-108942143D01*
X172323095Y-108846905D01*
X172275476Y-108656429D01*
X172275476Y-108418333D01*
X172323095Y-108227857D01*
X172370714Y-108132619D01*
X172418333Y-108085000D01*
X172513571Y-108037381D01*
X166838334Y-102687381D02*
X166505000Y-102211190D01*
X166266905Y-102687381D02*
X166266905Y-101687381D01*
X166647858Y-101687381D01*
X166743096Y-101735000D01*
X166790715Y-101782619D01*
X166838334Y-101877857D01*
X166838334Y-102020714D01*
X166790715Y-102115952D01*
X166743096Y-102163571D01*
X166647858Y-102211190D01*
X166266905Y-102211190D01*
X167743096Y-101687381D02*
X167266905Y-101687381D01*
X167219286Y-102163571D01*
X167266905Y-102115952D01*
X167362143Y-102068333D01*
X167600239Y-102068333D01*
X167695477Y-102115952D01*
X167743096Y-102163571D01*
X167790715Y-102258810D01*
X167790715Y-102496905D01*
X167743096Y-102592143D01*
X167695477Y-102639762D01*
X167600239Y-102687381D01*
X167362143Y-102687381D01*
X167266905Y-102639762D01*
X167219286Y-102592143D01*
X167354286Y-108037381D02*
X167163809Y-108037381D01*
X167068571Y-108085000D01*
X167020952Y-108132619D01*
X166925714Y-108275476D01*
X166878095Y-108465952D01*
X166878095Y-108846905D01*
X166925714Y-108942143D01*
X166973333Y-108989762D01*
X167068571Y-109037381D01*
X167259048Y-109037381D01*
X167354286Y-108989762D01*
X167401905Y-108942143D01*
X167449524Y-108846905D01*
X167449524Y-108608810D01*
X167401905Y-108513571D01*
X167354286Y-108465952D01*
X167259048Y-108418333D01*
X167068571Y-108418333D01*
X166973333Y-108465952D01*
X166925714Y-108513571D01*
X166878095Y-108608810D01*
X168068571Y-108037381D02*
X168163810Y-108037381D01*
X168259048Y-108085000D01*
X168306667Y-108132619D01*
X168354286Y-108227857D01*
X168401905Y-108418333D01*
X168401905Y-108656429D01*
X168354286Y-108846905D01*
X168306667Y-108942143D01*
X168259048Y-108989762D01*
X168163810Y-109037381D01*
X168068571Y-109037381D01*
X167973333Y-108989762D01*
X167925714Y-108942143D01*
X167878095Y-108846905D01*
X167830476Y-108656429D01*
X167830476Y-108418333D01*
X167878095Y-108227857D01*
X167925714Y-108132619D01*
X167973333Y-108085000D01*
X168068571Y-108037381D01*
X152908095Y-98512381D02*
X152908095Y-99321905D01*
X152955714Y-99417143D01*
X153003333Y-99464762D01*
X153098571Y-99512381D01*
X153289048Y-99512381D01*
X153384286Y-99464762D01*
X153431905Y-99417143D01*
X153479524Y-99321905D01*
X153479524Y-98512381D01*
X154431905Y-98512381D02*
X153955714Y-98512381D01*
X153908095Y-98988571D01*
X153955714Y-98940952D01*
X154050952Y-98893333D01*
X154289048Y-98893333D01*
X154384286Y-98940952D01*
X154431905Y-98988571D01*
X154479524Y-99083810D01*
X154479524Y-99321905D01*
X154431905Y-99417143D01*
X154384286Y-99464762D01*
X154289048Y-99512381D01*
X154050952Y-99512381D01*
X153955714Y-99464762D01*
X153908095Y-99417143D01*
X156353095Y-98512381D02*
X157019762Y-98512381D01*
X156591190Y-99512381D01*
X157543571Y-98940952D02*
X157448333Y-98893333D01*
X157400714Y-98845714D01*
X157353095Y-98750476D01*
X157353095Y-98702857D01*
X157400714Y-98607619D01*
X157448333Y-98560000D01*
X157543571Y-98512381D01*
X157734048Y-98512381D01*
X157829286Y-98560000D01*
X157876905Y-98607619D01*
X157924524Y-98702857D01*
X157924524Y-98750476D01*
X157876905Y-98845714D01*
X157829286Y-98893333D01*
X157734048Y-98940952D01*
X157543571Y-98940952D01*
X157448333Y-98988571D01*
X157400714Y-99036190D01*
X157353095Y-99131429D01*
X157353095Y-99321905D01*
X157400714Y-99417143D01*
X157448333Y-99464762D01*
X157543571Y-99512381D01*
X157734048Y-99512381D01*
X157829286Y-99464762D01*
X157876905Y-99417143D01*
X157924524Y-99321905D01*
X157924524Y-99131429D01*
X157876905Y-99036190D01*
X157829286Y-98988571D01*
X157734048Y-98940952D01*
X158543571Y-98512381D02*
X158638810Y-98512381D01*
X158734048Y-98560000D01*
X158781667Y-98607619D01*
X158829286Y-98702857D01*
X158876905Y-98893333D01*
X158876905Y-99131429D01*
X158829286Y-99321905D01*
X158781667Y-99417143D01*
X158734048Y-99464762D01*
X158638810Y-99512381D01*
X158543571Y-99512381D01*
X158448333Y-99464762D01*
X158400714Y-99417143D01*
X158353095Y-99321905D01*
X158305476Y-99131429D01*
X158305476Y-98893333D01*
X158353095Y-98702857D01*
X158400714Y-98607619D01*
X158448333Y-98560000D01*
X158543571Y-98512381D01*
X159781667Y-98512381D02*
X159305476Y-98512381D01*
X159257857Y-98988571D01*
X159305476Y-98940952D01*
X159400714Y-98893333D01*
X159638810Y-98893333D01*
X159734048Y-98940952D01*
X159781667Y-98988571D01*
X159829286Y-99083810D01*
X159829286Y-99321905D01*
X159781667Y-99417143D01*
X159734048Y-99464762D01*
X159638810Y-99512381D01*
X159400714Y-99512381D01*
X159305476Y-99464762D01*
X159257857Y-99417143D01*
X113006190Y-104616191D02*
X113482381Y-104616191D01*
X112482381Y-104949524D02*
X113006190Y-104616191D01*
X112482381Y-104282857D01*
X113482381Y-103425714D02*
X113482381Y-103997143D01*
X113482381Y-103711429D02*
X112482381Y-103711429D01*
X112625238Y-103806667D01*
X112720476Y-103901905D01*
X112768095Y-103997143D01*
X113482381Y-102020476D02*
X113482381Y-102591905D01*
X113482381Y-102306191D02*
X112482381Y-102306191D01*
X112625238Y-102401429D01*
X112720476Y-102496667D01*
X112768095Y-102591905D01*
X112482381Y-101163333D02*
X112482381Y-101353810D01*
X112530000Y-101449048D01*
X112577619Y-101496667D01*
X112720476Y-101591905D01*
X112910952Y-101639524D01*
X113291905Y-101639524D01*
X113387143Y-101591905D01*
X113434762Y-101544286D01*
X113482381Y-101449048D01*
X113482381Y-101258571D01*
X113434762Y-101163333D01*
X113387143Y-101115714D01*
X113291905Y-101068095D01*
X113053810Y-101068095D01*
X112958571Y-101115714D01*
X112910952Y-101163333D01*
X112863333Y-101258571D01*
X112863333Y-101449048D01*
X112910952Y-101544286D01*
X112958571Y-101591905D01*
X113053810Y-101639524D01*
X113482381Y-100639524D02*
X112482381Y-100639524D01*
X113196667Y-100306190D01*
X112482381Y-99972857D01*
X113482381Y-99972857D01*
X113482381Y-99496667D02*
X112482381Y-99496667D01*
X112958571Y-99496667D02*
X112958571Y-98925238D01*
X113482381Y-98925238D02*
X112482381Y-98925238D01*
X112815714Y-98544286D02*
X112815714Y-98020476D01*
X113482381Y-98544286D01*
X113482381Y-98020476D01*
X102068334Y-115292143D02*
X102020715Y-115339762D01*
X101877858Y-115387381D01*
X101782620Y-115387381D01*
X101639762Y-115339762D01*
X101544524Y-115244524D01*
X101496905Y-115149286D01*
X101449286Y-114958810D01*
X101449286Y-114815952D01*
X101496905Y-114625476D01*
X101544524Y-114530238D01*
X101639762Y-114435000D01*
X101782620Y-114387381D01*
X101877858Y-114387381D01*
X102020715Y-114435000D01*
X102068334Y-114482619D01*
X103020715Y-115387381D02*
X102449286Y-115387381D01*
X102735000Y-115387381D02*
X102735000Y-114387381D01*
X102639762Y-114530238D01*
X102544524Y-114625476D01*
X102449286Y-114673095D01*
X109259762Y-115387381D02*
X108688333Y-115387381D01*
X108974047Y-115387381D02*
X108974047Y-114387381D01*
X108878809Y-114530238D01*
X108783571Y-114625476D01*
X108688333Y-114673095D01*
X110116905Y-114720714D02*
X110116905Y-115387381D01*
X109688333Y-114720714D02*
X109688333Y-115244524D01*
X109735952Y-115339762D01*
X109831190Y-115387381D01*
X109974048Y-115387381D01*
X110069286Y-115339762D01*
X110116905Y-115292143D01*
X110926429Y-114863571D02*
X110593095Y-114863571D01*
X110593095Y-115387381D02*
X110593095Y-114387381D01*
X111069286Y-114387381D01*
X157948334Y-113387143D02*
X157900715Y-113434762D01*
X157757858Y-113482381D01*
X157662620Y-113482381D01*
X157519762Y-113434762D01*
X157424524Y-113339524D01*
X157376905Y-113244286D01*
X157329286Y-113053810D01*
X157329286Y-112910952D01*
X157376905Y-112720476D01*
X157424524Y-112625238D01*
X157519762Y-112530000D01*
X157662620Y-112482381D01*
X157757858Y-112482381D01*
X157900715Y-112530000D01*
X157948334Y-112577619D01*
X158805477Y-112815714D02*
X158805477Y-113482381D01*
X158567381Y-112434762D02*
X158329286Y-113149048D01*
X158948334Y-113149048D01*
X154979762Y-113482381D02*
X154408333Y-113482381D01*
X154694047Y-113482381D02*
X154694047Y-112482381D01*
X154598809Y-112625238D01*
X154503571Y-112720476D01*
X154408333Y-112768095D01*
X155836905Y-112815714D02*
X155836905Y-113482381D01*
X155408333Y-112815714D02*
X155408333Y-113339524D01*
X155455952Y-113434762D01*
X155551190Y-113482381D01*
X155694048Y-113482381D01*
X155789286Y-113434762D01*
X155836905Y-113387143D01*
X156646429Y-112958571D02*
X156313095Y-112958571D01*
X156313095Y-113482381D02*
X156313095Y-112482381D01*
X156789286Y-112482381D01*
X119102143Y-97956666D02*
X119149762Y-98004285D01*
X119197381Y-98147142D01*
X119197381Y-98242380D01*
X119149762Y-98385238D01*
X119054524Y-98480476D01*
X118959286Y-98528095D01*
X118768810Y-98575714D01*
X118625952Y-98575714D01*
X118435476Y-98528095D01*
X118340238Y-98480476D01*
X118245000Y-98385238D01*
X118197381Y-98242380D01*
X118197381Y-98147142D01*
X118245000Y-98004285D01*
X118292619Y-97956666D01*
X118292619Y-97575714D02*
X118245000Y-97528095D01*
X118197381Y-97432857D01*
X118197381Y-97194761D01*
X118245000Y-97099523D01*
X118292619Y-97051904D01*
X118387857Y-97004285D01*
X118483095Y-97004285D01*
X118625952Y-97051904D01*
X119197381Y-97623333D01*
X119197381Y-97004285D01*
X121102381Y-103306428D02*
X121102381Y-103877857D01*
X121102381Y-103592143D02*
X120102381Y-103592143D01*
X120245238Y-103687381D01*
X120340476Y-103782619D01*
X120388095Y-103877857D01*
X120530952Y-102735000D02*
X120483333Y-102830238D01*
X120435714Y-102877857D01*
X120340476Y-102925476D01*
X120292857Y-102925476D01*
X120197619Y-102877857D01*
X120150000Y-102830238D01*
X120102381Y-102735000D01*
X120102381Y-102544523D01*
X120150000Y-102449285D01*
X120197619Y-102401666D01*
X120292857Y-102354047D01*
X120340476Y-102354047D01*
X120435714Y-102401666D01*
X120483333Y-102449285D01*
X120530952Y-102544523D01*
X120530952Y-102735000D01*
X120578571Y-102830238D01*
X120626190Y-102877857D01*
X120721429Y-102925476D01*
X120911905Y-102925476D01*
X121007143Y-102877857D01*
X121054762Y-102830238D01*
X121102381Y-102735000D01*
X121102381Y-102544523D01*
X121054762Y-102449285D01*
X121007143Y-102401666D01*
X120911905Y-102354047D01*
X120721429Y-102354047D01*
X120626190Y-102401666D01*
X120578571Y-102449285D01*
X120530952Y-102544523D01*
X120435714Y-101925476D02*
X121435714Y-101925476D01*
X120483333Y-101925476D02*
X120435714Y-101830238D01*
X120435714Y-101639761D01*
X120483333Y-101544523D01*
X120530952Y-101496904D01*
X120626190Y-101449285D01*
X120911905Y-101449285D01*
X121007143Y-101496904D01*
X121054762Y-101544523D01*
X121102381Y-101639761D01*
X121102381Y-101830238D01*
X121054762Y-101925476D01*
X120578571Y-100687380D02*
X120578571Y-101020714D01*
X121102381Y-101020714D02*
X120102381Y-101020714D01*
X120102381Y-100544523D01*
X119102143Y-106846666D02*
X119149762Y-106894285D01*
X119197381Y-107037142D01*
X119197381Y-107132380D01*
X119149762Y-107275238D01*
X119054524Y-107370476D01*
X118959286Y-107418095D01*
X118768810Y-107465714D01*
X118625952Y-107465714D01*
X118435476Y-107418095D01*
X118340238Y-107370476D01*
X118245000Y-107275238D01*
X118197381Y-107132380D01*
X118197381Y-107037142D01*
X118245000Y-106894285D01*
X118292619Y-106846666D01*
X118197381Y-106513333D02*
X118197381Y-105894285D01*
X118578333Y-106227619D01*
X118578333Y-106084761D01*
X118625952Y-105989523D01*
X118673571Y-105941904D01*
X118768810Y-105894285D01*
X119006905Y-105894285D01*
X119102143Y-105941904D01*
X119149762Y-105989523D01*
X119197381Y-106084761D01*
X119197381Y-106370476D01*
X119149762Y-106465714D01*
X119102143Y-106513333D01*
X123721905Y-117312381D02*
X123721905Y-116312381D01*
X124102858Y-116312381D01*
X124198096Y-116360000D01*
X124245715Y-116407619D01*
X124293334Y-116502857D01*
X124293334Y-116645714D01*
X124245715Y-116740952D01*
X124198096Y-116788571D01*
X124102858Y-116836190D01*
X123721905Y-116836190D01*
X125150477Y-116645714D02*
X125150477Y-117312381D01*
X124912381Y-116264762D02*
X124674286Y-116979048D01*
X125293334Y-116979048D01*
X163028334Y-99417143D02*
X162980715Y-99464762D01*
X162837858Y-99512381D01*
X162742620Y-99512381D01*
X162599762Y-99464762D01*
X162504524Y-99369524D01*
X162456905Y-99274286D01*
X162409286Y-99083810D01*
X162409286Y-98940952D01*
X162456905Y-98750476D01*
X162504524Y-98655238D01*
X162599762Y-98560000D01*
X162742620Y-98512381D01*
X162837858Y-98512381D01*
X162980715Y-98560000D01*
X163028334Y-98607619D01*
X163933096Y-98512381D02*
X163456905Y-98512381D01*
X163409286Y-98988571D01*
X163456905Y-98940952D01*
X163552143Y-98893333D01*
X163790239Y-98893333D01*
X163885477Y-98940952D01*
X163933096Y-98988571D01*
X163980715Y-99083810D01*
X163980715Y-99321905D01*
X163933096Y-99417143D01*
X163885477Y-99464762D01*
X163790239Y-99512381D01*
X163552143Y-99512381D01*
X163456905Y-99464762D01*
X163409286Y-99417143D01*
X162425239Y-102655714D02*
X162425239Y-103322381D01*
X162187143Y-102274762D02*
X161949048Y-102989048D01*
X162568096Y-102989048D01*
X162949048Y-103227143D02*
X162996667Y-103274762D01*
X162949048Y-103322381D01*
X162901429Y-103274762D01*
X162949048Y-103227143D01*
X162949048Y-103322381D01*
X163330000Y-102322381D02*
X163996667Y-102322381D01*
X163568095Y-103322381D01*
X164377619Y-102655714D02*
X164377619Y-103322381D01*
X164377619Y-102750952D02*
X164425238Y-102703333D01*
X164520476Y-102655714D01*
X164663334Y-102655714D01*
X164758572Y-102703333D01*
X164806191Y-102798571D01*
X164806191Y-103322381D01*
X165615715Y-102798571D02*
X165282381Y-102798571D01*
X165282381Y-103322381D02*
X165282381Y-102322381D01*
X165758572Y-102322381D01*
X137668095Y-95972381D02*
X137668095Y-96781905D01*
X137715714Y-96877143D01*
X137763333Y-96924762D01*
X137858571Y-96972381D01*
X138049048Y-96972381D01*
X138144286Y-96924762D01*
X138191905Y-96877143D01*
X138239524Y-96781905D01*
X138239524Y-95972381D01*
X139144286Y-95972381D02*
X138953809Y-95972381D01*
X138858571Y-96020000D01*
X138810952Y-96067619D01*
X138715714Y-96210476D01*
X138668095Y-96400952D01*
X138668095Y-96781905D01*
X138715714Y-96877143D01*
X138763333Y-96924762D01*
X138858571Y-96972381D01*
X139049048Y-96972381D01*
X139144286Y-96924762D01*
X139191905Y-96877143D01*
X139239524Y-96781905D01*
X139239524Y-96543810D01*
X139191905Y-96448571D01*
X139144286Y-96400952D01*
X139049048Y-96353333D01*
X138858571Y-96353333D01*
X138763333Y-96400952D01*
X138715714Y-96448571D01*
X138668095Y-96543810D01*
X131135952Y-95702381D02*
X131135952Y-94702381D01*
X131707381Y-95702381D01*
X131707381Y-94702381D01*
X132183571Y-95702381D02*
X132183571Y-94702381D01*
X132755000Y-95702381D02*
X132326428Y-95130952D01*
X132755000Y-94702381D02*
X132183571Y-95273810D01*
X133183571Y-95178571D02*
X133516905Y-95178571D01*
X133659762Y-95702381D02*
X133183571Y-95702381D01*
X133183571Y-94702381D01*
X133659762Y-94702381D01*
X134278809Y-94702381D02*
X134374048Y-94702381D01*
X134469286Y-94750000D01*
X134516905Y-94797619D01*
X134564524Y-94892857D01*
X134612143Y-95083333D01*
X134612143Y-95321429D01*
X134564524Y-95511905D01*
X134516905Y-95607143D01*
X134469286Y-95654762D01*
X134374048Y-95702381D01*
X134278809Y-95702381D01*
X134183571Y-95654762D01*
X134135952Y-95607143D01*
X134088333Y-95511905D01*
X134040714Y-95321429D01*
X134040714Y-95083333D01*
X134088333Y-94892857D01*
X134135952Y-94797619D01*
X134183571Y-94750000D01*
X134278809Y-94702381D01*
X134945476Y-94702381D02*
X135564524Y-94702381D01*
X135231190Y-95083333D01*
X135374048Y-95083333D01*
X135469286Y-95130952D01*
X135516905Y-95178571D01*
X135564524Y-95273810D01*
X135564524Y-95511905D01*
X135516905Y-95607143D01*
X135469286Y-95654762D01*
X135374048Y-95702381D01*
X135088333Y-95702381D01*
X134993095Y-95654762D01*
X134945476Y-95607143D01*
X136183571Y-94702381D02*
X136278810Y-94702381D01*
X136374048Y-94750000D01*
X136421667Y-94797619D01*
X136469286Y-94892857D01*
X136516905Y-95083333D01*
X136516905Y-95321429D01*
X136469286Y-95511905D01*
X136421667Y-95607143D01*
X136374048Y-95654762D01*
X136278810Y-95702381D01*
X136183571Y-95702381D01*
X136088333Y-95654762D01*
X136040714Y-95607143D01*
X135993095Y-95511905D01*
X135945476Y-95321429D01*
X135945476Y-95083333D01*
X135993095Y-94892857D01*
X136040714Y-94797619D01*
X136088333Y-94750000D01*
X136183571Y-94702381D01*
X137421667Y-94702381D02*
X136945476Y-94702381D01*
X136897857Y-95178571D01*
X136945476Y-95130952D01*
X137040714Y-95083333D01*
X137278810Y-95083333D01*
X137374048Y-95130952D01*
X137421667Y-95178571D01*
X137469286Y-95273810D01*
X137469286Y-95511905D01*
X137421667Y-95607143D01*
X137374048Y-95654762D01*
X137278810Y-95702381D01*
X137040714Y-95702381D01*
X136945476Y-95654762D01*
X136897857Y-95607143D01*
X137850238Y-95654762D02*
X137993095Y-95702381D01*
X138231191Y-95702381D01*
X138326429Y-95654762D01*
X138374048Y-95607143D01*
X138421667Y-95511905D01*
X138421667Y-95416667D01*
X138374048Y-95321429D01*
X138326429Y-95273810D01*
X138231191Y-95226190D01*
X138040714Y-95178571D01*
X137945476Y-95130952D01*
X137897857Y-95083333D01*
X137850238Y-94988095D01*
X137850238Y-94892857D01*
X137897857Y-94797619D01*
X137945476Y-94750000D01*
X138040714Y-94702381D01*
X138278810Y-94702381D01*
X138421667Y-94750000D01*
X139421667Y-95607143D02*
X139374048Y-95654762D01*
X139231191Y-95702381D01*
X139135953Y-95702381D01*
X138993095Y-95654762D01*
X138897857Y-95559524D01*
X138850238Y-95464286D01*
X138802619Y-95273810D01*
X138802619Y-95130952D01*
X138850238Y-94940476D01*
X138897857Y-94845238D01*
X138993095Y-94750000D01*
X139135953Y-94702381D01*
X139231191Y-94702381D01*
X139374048Y-94750000D01*
X139421667Y-94797619D01*
X127436667Y-107362381D02*
X127436667Y-108076667D01*
X127389047Y-108219524D01*
X127293809Y-108314762D01*
X127150952Y-108362381D01*
X127055714Y-108362381D01*
X127912857Y-108362381D02*
X127912857Y-107362381D01*
X128293810Y-107362381D01*
X128389048Y-107410000D01*
X128436667Y-107457619D01*
X128484286Y-107552857D01*
X128484286Y-107695714D01*
X128436667Y-107790952D01*
X128389048Y-107838571D01*
X128293810Y-107886190D01*
X127912857Y-107886190D01*
X129436667Y-108362381D02*
X128865238Y-108362381D01*
X129150952Y-108362381D02*
X129150952Y-107362381D01*
X129055714Y-107505238D01*
X128960476Y-107600476D01*
X128865238Y-107648095D01*
X123293809Y-113752381D02*
X123293809Y-114561905D01*
X123341428Y-114657143D01*
X123389047Y-114704762D01*
X123484285Y-114752381D01*
X123674762Y-114752381D01*
X123770000Y-114704762D01*
X123817619Y-114657143D01*
X123865238Y-114561905D01*
X123865238Y-113752381D01*
X124293809Y-114704762D02*
X124389047Y-114752381D01*
X124579523Y-114752381D01*
X124674762Y-114704762D01*
X124722381Y-114609524D01*
X124722381Y-114561905D01*
X124674762Y-114466667D01*
X124579523Y-114419048D01*
X124436666Y-114419048D01*
X124341428Y-114371429D01*
X124293809Y-114276190D01*
X124293809Y-114228571D01*
X124341428Y-114133333D01*
X124436666Y-114085714D01*
X124579523Y-114085714D01*
X124674762Y-114133333D01*
X125531905Y-114704762D02*
X125436667Y-114752381D01*
X125246190Y-114752381D01*
X125150952Y-114704762D01*
X125103333Y-114609524D01*
X125103333Y-114228571D01*
X125150952Y-114133333D01*
X125246190Y-114085714D01*
X125436667Y-114085714D01*
X125531905Y-114133333D01*
X125579524Y-114228571D01*
X125579524Y-114323810D01*
X125103333Y-114419048D01*
X126770000Y-114752381D02*
X126770000Y-113752381D01*
X127103334Y-114466667D01*
X127436667Y-113752381D01*
X127436667Y-114752381D01*
X128484286Y-114657143D02*
X128436667Y-114704762D01*
X128293810Y-114752381D01*
X128198572Y-114752381D01*
X128055714Y-114704762D01*
X127960476Y-114609524D01*
X127912857Y-114514286D01*
X127865238Y-114323810D01*
X127865238Y-114180952D01*
X127912857Y-113990476D01*
X127960476Y-113895238D01*
X128055714Y-113800000D01*
X128198572Y-113752381D01*
X128293810Y-113752381D01*
X128436667Y-113800000D01*
X128484286Y-113847619D01*
X128912857Y-114752381D02*
X128912857Y-113752381D01*
X129293810Y-113752381D01*
X129389048Y-113800000D01*
X129436667Y-113847619D01*
X129484286Y-113942857D01*
X129484286Y-114085714D01*
X129436667Y-114180952D01*
X129389048Y-114228571D01*
X129293810Y-114276190D01*
X128912857Y-114276190D01*
X129865238Y-113847619D02*
X129912857Y-113800000D01*
X130008095Y-113752381D01*
X130246191Y-113752381D01*
X130341429Y-113800000D01*
X130389048Y-113847619D01*
X130436667Y-113942857D01*
X130436667Y-114038095D01*
X130389048Y-114180952D01*
X129817619Y-114752381D01*
X130436667Y-114752381D01*
X131341429Y-113752381D02*
X130865238Y-113752381D01*
X130817619Y-114228571D01*
X130865238Y-114180952D01*
X130960476Y-114133333D01*
X131198572Y-114133333D01*
X131293810Y-114180952D01*
X131341429Y-114228571D01*
X131389048Y-114323810D01*
X131389048Y-114561905D01*
X131341429Y-114657143D01*
X131293810Y-114704762D01*
X131198572Y-114752381D01*
X130960476Y-114752381D01*
X130865238Y-114704762D01*
X130817619Y-114657143D01*
X132341429Y-114752381D02*
X131770000Y-114752381D01*
X132055714Y-114752381D02*
X132055714Y-113752381D01*
X131960476Y-113895238D01*
X131865238Y-113990476D01*
X131770000Y-114038095D01*
X133246191Y-113752381D02*
X132770000Y-113752381D01*
X132722381Y-114228571D01*
X132770000Y-114180952D01*
X132865238Y-114133333D01*
X133103334Y-114133333D01*
X133198572Y-114180952D01*
X133246191Y-114228571D01*
X133293810Y-114323810D01*
X133293810Y-114561905D01*
X133246191Y-114657143D01*
X133198572Y-114704762D01*
X133103334Y-114752381D01*
X132865238Y-114752381D01*
X132770000Y-114704762D01*
X132722381Y-114657143D01*
X127436667Y-112442381D02*
X127436667Y-113156667D01*
X127389047Y-113299524D01*
X127293809Y-113394762D01*
X127150952Y-113442381D01*
X127055714Y-113442381D01*
X127912857Y-113442381D02*
X127912857Y-112442381D01*
X128293810Y-112442381D01*
X128389048Y-112490000D01*
X128436667Y-112537619D01*
X128484286Y-112632857D01*
X128484286Y-112775714D01*
X128436667Y-112870952D01*
X128389048Y-112918571D01*
X128293810Y-112966190D01*
X127912857Y-112966190D01*
X128865238Y-112537619D02*
X128912857Y-112490000D01*
X129008095Y-112442381D01*
X129246191Y-112442381D01*
X129341429Y-112490000D01*
X129389048Y-112537619D01*
X129436667Y-112632857D01*
X129436667Y-112728095D01*
X129389048Y-112870952D01*
X128817619Y-113442381D01*
X129436667Y-113442381D01*
%LPC*%
D14*
X153416000Y-103505000D03*
X153416000Y-104775000D03*
X153416000Y-106045000D03*
X153416000Y-107315000D03*
X159004000Y-107315000D03*
X159004000Y-106045000D03*
X159004000Y-104775000D03*
X159004000Y-103505000D03*
D15*
X161610000Y-108181140D03*
X163510000Y-108181140D03*
X162560000Y-105178860D03*
D16*
X91440000Y-111760000D03*
D17*
X88900000Y-111760000D03*
X91440000Y-109220000D03*
X88900000Y-109220000D03*
X91440000Y-106680000D03*
X88900000Y-106680000D03*
X91440000Y-104140000D03*
X88900000Y-104140000D03*
X91440000Y-101600000D03*
X88900000Y-101600000D03*
X91440000Y-99060000D03*
X88900000Y-99060000D03*
D18*
X132080000Y-111760000D03*
D19*
X132080000Y-109220000D03*
X132080000Y-106680000D03*
X132080000Y-104140000D03*
X132080000Y-101600000D03*
X132080000Y-99060000D03*
D18*
X177800000Y-109220000D03*
D19*
X177800000Y-106680000D03*
X177800000Y-104140000D03*
X177800000Y-101600000D03*
D20*
X110745000Y-110490000D03*
X110745000Y-109220000D03*
X110745000Y-107950000D03*
X110745000Y-106680000D03*
X110745000Y-105410000D03*
X110745000Y-104140000D03*
X110745000Y-102870000D03*
X110745000Y-101600000D03*
X110745000Y-100330000D03*
X101345000Y-100330000D03*
X101345000Y-101600000D03*
X101345000Y-102870000D03*
X101345000Y-104140000D03*
X101345000Y-105410000D03*
X101345000Y-106680000D03*
X101345000Y-107950000D03*
X101345000Y-109220000D03*
X101345000Y-110490000D03*
D21*
X149200000Y-110490000D03*
X149200000Y-107950000D03*
X142900000Y-107950000D03*
X142900000Y-109220000D03*
X142900000Y-110490000D03*
X142900000Y-100330000D03*
X142900000Y-102870000D03*
X149200000Y-102870000D03*
X149200000Y-101600000D03*
X149200000Y-100330000D03*
D10*
G36*
X170770000Y-112075000D02*
X170770000Y-110175000D01*
X172670000Y-109675000D01*
X172670000Y-112575000D01*
X170770000Y-112075000D01*
X170770000Y-112075000D01*
G37*
G36*
X172770000Y-112575000D02*
X172770000Y-109675000D01*
X174670000Y-110175000D01*
X174670000Y-112075000D01*
X172770000Y-112575000D01*
X172770000Y-112575000D01*
G37*
G36*
X169590000Y-98745000D02*
X169590000Y-100645000D01*
X167690000Y-101145000D01*
X167690000Y-98245000D01*
X169590000Y-98745000D01*
X169590000Y-98745000D01*
G37*
G36*
X167590000Y-98245000D02*
X167590000Y-101145000D01*
X165690000Y-100645000D01*
X165690000Y-98745000D01*
X167590000Y-98245000D01*
X167590000Y-98245000D01*
G37*
G36*
X169590000Y-110175000D02*
X169590000Y-112075000D01*
X167690000Y-112575000D01*
X167690000Y-109675000D01*
X169590000Y-110175000D01*
X169590000Y-110175000D01*
G37*
G36*
X167590000Y-109675000D02*
X167590000Y-112575000D01*
X165690000Y-112075000D01*
X165690000Y-110175000D01*
X167590000Y-109675000D01*
X167590000Y-109675000D01*
G37*
G36*
X174670000Y-98745000D02*
X174670000Y-100645000D01*
X172770000Y-101145000D01*
X172770000Y-98245000D01*
X174670000Y-98745000D01*
X174670000Y-98745000D01*
G37*
G36*
X172670000Y-98245000D02*
X172670000Y-101145000D01*
X170770000Y-100645000D01*
X170770000Y-98745000D01*
X172670000Y-98245000D01*
X172670000Y-98245000D01*
G37*
D22*
X139700000Y-102755000D03*
X139700000Y-104255000D03*
X151130000Y-107200000D03*
X151130000Y-108700000D03*
D23*
X156730000Y-100965000D03*
X158230000Y-100965000D03*
D24*
X172720000Y-103960000D03*
X172720000Y-106860000D03*
X167640000Y-103960000D03*
X167640000Y-106860000D03*
D25*
X157480000Y-96520000D03*
X154940000Y-96520000D03*
X160020000Y-96520000D03*
D26*
X115570000Y-100185000D03*
X115570000Y-104285000D03*
D27*
X107545000Y-113665000D03*
X104545000Y-113665000D03*
X157710000Y-110490000D03*
X154710000Y-110490000D03*
D28*
X118745000Y-101080000D03*
X118745000Y-99580000D03*
X118745000Y-103390000D03*
X118745000Y-104890000D03*
D18*
X124460000Y-111760000D03*
D19*
X124460000Y-109220000D03*
X124460000Y-106680000D03*
X124460000Y-104140000D03*
X124460000Y-101600000D03*
X124460000Y-99060000D03*
D29*
X161060000Y-100965000D03*
X164060000Y-100965000D03*
D30*
X142240000Y-96520000D03*
X144780000Y-96520000D03*
X147320000Y-96520000D03*
X149860000Y-96520000D03*
D10*
G36*
X126320000Y-106360000D02*
X126320000Y-104460000D01*
X128220000Y-103960000D01*
X128220000Y-106860000D01*
X126320000Y-106360000D01*
X126320000Y-106360000D01*
G37*
G36*
X128320000Y-106860000D02*
X128320000Y-103960000D01*
X130220000Y-104460000D01*
X130220000Y-106360000D01*
X128320000Y-106860000D01*
X128320000Y-106860000D01*
G37*
D31*
X128270000Y-105410000D03*
D10*
G36*
X126320000Y-111440000D02*
X126320000Y-109540000D01*
X128220000Y-109040000D01*
X128220000Y-111940000D01*
X126320000Y-111440000D01*
X126320000Y-111440000D01*
G37*
G36*
X128320000Y-111940000D02*
X128320000Y-109040000D01*
X130220000Y-109540000D01*
X130220000Y-111440000D01*
X128320000Y-111940000D01*
X128320000Y-111940000D01*
G37*
D31*
X128270000Y-110490000D03*
M02*
