M48
;DRILL file {KiCad 4.0.2+e4-6225~38~ubuntu15.10.1-stable} date Do 16 Jun 2016 08:59:31 CEST
;FORMAT={-:-/ absolute / metric / decimal}
FMAT,2
METRIC,TZ
T1C0.400
T2C0.800
T3C1.001
T4C1.016
%
G90
G05
M71
T1
X95.25Y-97.155
X95.25Y-101.6
X95.25Y-105.41
X95.25Y-107.95
X97.79Y-102.87
X97.79Y-109.22
X102.235Y-113.665
X109.22Y-113.665
X112.395Y-100.33
X120.65Y-102.235
X136.525Y-105.41
X136.525Y-107.95
X137.795Y-104.14
X137.795Y-107.95
X141.605Y-101.6
X141.605Y-107.95
X141.605Y-111.76
X142.875Y-99.06
X151.765Y-104.775
X156.845Y-104.775
X159.385Y-110.49
X162.56Y-103.505
X170.815Y-102.235
X175.26Y-97.79
T2
X142.24Y-96.52
X144.78Y-96.52
X147.32Y-96.52
X149.86Y-96.52
T3
X154.94Y-96.52
X157.48Y-96.52
X160.02Y-96.52
T4
X88.9Y-99.06
X88.9Y-101.6
X88.9Y-104.14
X88.9Y-106.68
X88.9Y-109.22
X88.9Y-111.76
X91.44Y-99.06
X91.44Y-101.6
X91.44Y-104.14
X91.44Y-106.68
X91.44Y-109.22
X91.44Y-111.76
X124.46Y-99.06
X124.46Y-101.6
X124.46Y-104.14
X124.46Y-106.68
X124.46Y-109.22
X124.46Y-111.76
X132.08Y-99.06
X132.08Y-101.6
X132.08Y-104.14
X132.08Y-106.68
X132.08Y-109.22
X132.08Y-111.76
X177.8Y-101.6
X177.8Y-104.14
X177.8Y-106.68
X177.8Y-109.22
T0
M30
