G04 #@! TF.FileFunction,Soldermask,Top*
%FSLAX46Y46*%
G04 Gerber Fmt 4.6, Leading zero omitted, Abs format (unit mm)*
G04 Created by KiCad (PCBNEW 4.0.2+e4-6225~38~ubuntu15.10.1-stable) date Do 16 Jun 2016 08:59:29 CEST*
%MOMM*%
G01*
G04 APERTURE LIST*
%ADD10C,0.100000*%
%ADD11O,1.873200X1.009600*%
%ADD12R,1.200100X2.200860*%
%ADD13R,2.127200X2.127200*%
%ADD14O,2.127200X2.127200*%
%ADD15R,2.432000X2.127200*%
%ADD16O,2.432000X2.127200*%
%ADD17R,2.400000X1.000000*%
%ADD18R,1.600000X1.200000*%
%ADD19R,1.300000X0.900000*%
%ADD20R,0.900000X1.300000*%
%ADD21R,2.900000X1.300000*%
%ADD22O,1.901140X2.899360*%
%ADD23R,2.800000X2.400000*%
%ADD24R,1.400000X2.900000*%
%ADD25R,1.150000X1.200000*%
%ADD26R,1.400000X2.000000*%
%ADD27O,1.600000X2.200000*%
%ADD28R,1.400000X0.900000*%
G04 APERTURE END LIST*
D10*
D11*
X153416000Y-103505000D03*
X153416000Y-104775000D03*
X153416000Y-106045000D03*
X153416000Y-107315000D03*
X159004000Y-107315000D03*
X159004000Y-106045000D03*
X159004000Y-104775000D03*
X159004000Y-103505000D03*
D12*
X161610000Y-108181140D03*
X163510000Y-108181140D03*
X162560000Y-105178860D03*
D13*
X91440000Y-111760000D03*
D14*
X88900000Y-111760000D03*
X91440000Y-109220000D03*
X88900000Y-109220000D03*
X91440000Y-106680000D03*
X88900000Y-106680000D03*
X91440000Y-104140000D03*
X88900000Y-104140000D03*
X91440000Y-101600000D03*
X88900000Y-101600000D03*
X91440000Y-99060000D03*
X88900000Y-99060000D03*
D15*
X132080000Y-111760000D03*
D16*
X132080000Y-109220000D03*
X132080000Y-106680000D03*
X132080000Y-104140000D03*
X132080000Y-101600000D03*
X132080000Y-99060000D03*
D15*
X177800000Y-109220000D03*
D16*
X177800000Y-106680000D03*
X177800000Y-104140000D03*
X177800000Y-101600000D03*
D17*
X110745000Y-110490000D03*
X110745000Y-109220000D03*
X110745000Y-107950000D03*
X110745000Y-106680000D03*
X110745000Y-105410000D03*
X110745000Y-104140000D03*
X110745000Y-102870000D03*
X110745000Y-101600000D03*
X110745000Y-100330000D03*
X101345000Y-100330000D03*
X101345000Y-101600000D03*
X101345000Y-102870000D03*
X101345000Y-104140000D03*
X101345000Y-105410000D03*
X101345000Y-106680000D03*
X101345000Y-107950000D03*
X101345000Y-109220000D03*
X101345000Y-110490000D03*
D18*
X149200000Y-110490000D03*
X149200000Y-107950000D03*
X142900000Y-107950000D03*
X142900000Y-109220000D03*
X142900000Y-110490000D03*
X142900000Y-100330000D03*
X142900000Y-102870000D03*
X149200000Y-102870000D03*
X149200000Y-101600000D03*
X149200000Y-100330000D03*
D10*
G36*
X170770000Y-112075000D02*
X170770000Y-110175000D01*
X172670000Y-109675000D01*
X172670000Y-112575000D01*
X170770000Y-112075000D01*
X170770000Y-112075000D01*
G37*
G36*
X172770000Y-112575000D02*
X172770000Y-109675000D01*
X174670000Y-110175000D01*
X174670000Y-112075000D01*
X172770000Y-112575000D01*
X172770000Y-112575000D01*
G37*
G36*
X169590000Y-98745000D02*
X169590000Y-100645000D01*
X167690000Y-101145000D01*
X167690000Y-98245000D01*
X169590000Y-98745000D01*
X169590000Y-98745000D01*
G37*
G36*
X167590000Y-98245000D02*
X167590000Y-101145000D01*
X165690000Y-100645000D01*
X165690000Y-98745000D01*
X167590000Y-98245000D01*
X167590000Y-98245000D01*
G37*
G36*
X169590000Y-110175000D02*
X169590000Y-112075000D01*
X167690000Y-112575000D01*
X167690000Y-109675000D01*
X169590000Y-110175000D01*
X169590000Y-110175000D01*
G37*
G36*
X167590000Y-109675000D02*
X167590000Y-112575000D01*
X165690000Y-112075000D01*
X165690000Y-110175000D01*
X167590000Y-109675000D01*
X167590000Y-109675000D01*
G37*
G36*
X174670000Y-98745000D02*
X174670000Y-100645000D01*
X172770000Y-101145000D01*
X172770000Y-98245000D01*
X174670000Y-98745000D01*
X174670000Y-98745000D01*
G37*
G36*
X172670000Y-98245000D02*
X172670000Y-101145000D01*
X170770000Y-100645000D01*
X170770000Y-98745000D01*
X172670000Y-98245000D01*
X172670000Y-98245000D01*
G37*
D19*
X139700000Y-102755000D03*
X139700000Y-104255000D03*
X151130000Y-107200000D03*
X151130000Y-108700000D03*
D20*
X156730000Y-100965000D03*
X158230000Y-100965000D03*
D21*
X172720000Y-103960000D03*
X172720000Y-106860000D03*
X167640000Y-103960000D03*
X167640000Y-106860000D03*
D22*
X157480000Y-96520000D03*
X154940000Y-96520000D03*
X160020000Y-96520000D03*
D23*
X115570000Y-100185000D03*
X115570000Y-104285000D03*
D24*
X107545000Y-113665000D03*
X104545000Y-113665000D03*
X157710000Y-110490000D03*
X154710000Y-110490000D03*
D25*
X118745000Y-101080000D03*
X118745000Y-99580000D03*
X118745000Y-103390000D03*
X118745000Y-104890000D03*
D15*
X124460000Y-111760000D03*
D16*
X124460000Y-109220000D03*
X124460000Y-106680000D03*
X124460000Y-104140000D03*
X124460000Y-101600000D03*
X124460000Y-99060000D03*
D26*
X161060000Y-100965000D03*
X164060000Y-100965000D03*
D27*
X142240000Y-96520000D03*
X144780000Y-96520000D03*
X147320000Y-96520000D03*
X149860000Y-96520000D03*
D10*
G36*
X126320000Y-106360000D02*
X126320000Y-104460000D01*
X128220000Y-103960000D01*
X128220000Y-106860000D01*
X126320000Y-106360000D01*
X126320000Y-106360000D01*
G37*
G36*
X128320000Y-106860000D02*
X128320000Y-103960000D01*
X130220000Y-104460000D01*
X130220000Y-106360000D01*
X128320000Y-106860000D01*
X128320000Y-106860000D01*
G37*
D28*
X128270000Y-105410000D03*
D10*
G36*
X126320000Y-111440000D02*
X126320000Y-109540000D01*
X128220000Y-109040000D01*
X128220000Y-111940000D01*
X126320000Y-111440000D01*
X126320000Y-111440000D01*
G37*
G36*
X128320000Y-111940000D02*
X128320000Y-109040000D01*
X130220000Y-109540000D01*
X130220000Y-111440000D01*
X128320000Y-111940000D01*
X128320000Y-111940000D01*
G37*
D28*
X128270000Y-110490000D03*
M02*
