M48
;DRILL file {KiCad 4.0.2+e4-6225~38~ubuntu15.10.1-stable} date Do 16 Jun 2016 09:56:31 CEST
;FORMAT={-:-/ absolute / metric / decimal}
FMAT,2
METRIC,TZ
T1C0.400
T2C0.800
T3C1.001
T4C1.016
%
G90
G05
M71
T1
X24.13Y-27.94
X24.13Y-30.48
X26.67Y-25.4
X26.67Y-31.75
X31.115Y-36.195
X38.1Y-36.195
X41.275Y-22.86
X47.625Y-24.765
X65.405Y-27.94
X65.405Y-30.48
X66.675Y-26.67
X66.675Y-30.48
X70.485Y-24.13
X70.485Y-30.48
X70.485Y-34.29
X71.755Y-21.59
X80.645Y-27.305
X85.725Y-27.305
X88.265Y-33.02
X91.44Y-26.035
X99.695Y-24.765
X104.14Y-20.32
T2
X71.12Y-19.05
X73.66Y-19.05
X76.2Y-19.05
X78.74Y-19.05
T3
X83.82Y-19.05
X86.36Y-19.05
X88.9Y-19.05
T4
X17.78Y-21.59
X17.78Y-24.13
X17.78Y-26.67
X17.78Y-29.21
X17.78Y-31.75
X17.78Y-34.29
X20.32Y-21.59
X20.32Y-24.13
X20.32Y-26.67
X20.32Y-29.21
X20.32Y-31.75
X20.32Y-34.29
X53.34Y-21.59
X53.34Y-24.13
X53.34Y-26.67
X53.34Y-29.21
X53.34Y-31.75
X53.34Y-34.29
X60.96Y-21.59
X60.96Y-24.13
X60.96Y-26.67
X60.96Y-29.21
X60.96Y-31.75
X60.96Y-34.29
X106.68Y-24.13
X106.68Y-26.67
X106.68Y-29.21
X106.68Y-31.75
T0
M30
