G04 #@! TF.FileFunction,Soldermask,Top*
%FSLAX46Y46*%
G04 Gerber Fmt 4.6, Leading zero omitted, Abs format (unit mm)*
G04 Created by KiCad (PCBNEW 4.0.2+e4-6225~38~ubuntu15.10.1-stable) date Do 16 Jun 2016 10:00:32 CEST*
%MOMM*%
G01*
G04 APERTURE LIST*
%ADD10C,0.100000*%
%ADD11R,2.400000X1.000000*%
%ADD12R,1.400000X0.900000*%
%ADD13O,1.600000X2.200000*%
%ADD14R,1.400000X2.000000*%
%ADD15R,2.432000X2.127200*%
%ADD16O,2.432000X2.127200*%
%ADD17R,1.150000X1.200000*%
%ADD18R,1.400000X2.900000*%
%ADD19R,2.800000X2.400000*%
%ADD20O,1.901140X2.899360*%
%ADD21R,2.900000X1.300000*%
%ADD22R,0.900000X1.300000*%
%ADD23R,1.300000X0.900000*%
%ADD24R,1.600000X1.200000*%
%ADD25R,2.127200X2.127200*%
%ADD26O,2.127200X2.127200*%
%ADD27R,1.200100X2.200860*%
%ADD28O,1.873200X1.009600*%
G04 APERTURE END LIST*
D10*
D11*
X39625000Y-33020000D03*
X39625000Y-31750000D03*
X39625000Y-30480000D03*
X39625000Y-29210000D03*
X39625000Y-27940000D03*
X39625000Y-26670000D03*
X39625000Y-25400000D03*
X39625000Y-24130000D03*
X39625000Y-22860000D03*
X30225000Y-22860000D03*
X30225000Y-24130000D03*
X30225000Y-25400000D03*
X30225000Y-26670000D03*
X30225000Y-27940000D03*
X30225000Y-29210000D03*
X30225000Y-30480000D03*
X30225000Y-31750000D03*
X30225000Y-33020000D03*
D10*
G36*
X55200000Y-33970000D02*
X55200000Y-32070000D01*
X57100000Y-31570000D01*
X57100000Y-34470000D01*
X55200000Y-33970000D01*
X55200000Y-33970000D01*
G37*
G36*
X57200000Y-34470000D02*
X57200000Y-31570000D01*
X59100000Y-32070000D01*
X59100000Y-33970000D01*
X57200000Y-34470000D01*
X57200000Y-34470000D01*
G37*
D12*
X57150000Y-33020000D03*
D10*
G36*
X55200000Y-28890000D02*
X55200000Y-26990000D01*
X57100000Y-26490000D01*
X57100000Y-29390000D01*
X55200000Y-28890000D01*
X55200000Y-28890000D01*
G37*
G36*
X57200000Y-29390000D02*
X57200000Y-26490000D01*
X59100000Y-26990000D01*
X59100000Y-28890000D01*
X57200000Y-29390000D01*
X57200000Y-29390000D01*
G37*
D12*
X57150000Y-27940000D03*
D13*
X71120000Y-19050000D03*
X73660000Y-19050000D03*
X76200000Y-19050000D03*
X78740000Y-19050000D03*
D14*
X89940000Y-23495000D03*
X92940000Y-23495000D03*
D15*
X53340000Y-34290000D03*
D16*
X53340000Y-31750000D03*
X53340000Y-29210000D03*
X53340000Y-26670000D03*
X53340000Y-24130000D03*
X53340000Y-21590000D03*
D17*
X47625000Y-25920000D03*
X47625000Y-27420000D03*
X47625000Y-23610000D03*
X47625000Y-22110000D03*
D18*
X86590000Y-33020000D03*
X83590000Y-33020000D03*
X36425000Y-36195000D03*
X33425000Y-36195000D03*
D19*
X44450000Y-22715000D03*
X44450000Y-26815000D03*
D20*
X86360000Y-19050000D03*
X83820000Y-19050000D03*
X88900000Y-19050000D03*
D21*
X96520000Y-26490000D03*
X96520000Y-29390000D03*
X101600000Y-26490000D03*
X101600000Y-29390000D03*
D22*
X85610000Y-23495000D03*
X87110000Y-23495000D03*
D23*
X80010000Y-29730000D03*
X80010000Y-31230000D03*
X68580000Y-25285000D03*
X68580000Y-26785000D03*
D24*
X71780000Y-22860000D03*
X71780000Y-25400000D03*
X78080000Y-25400000D03*
X78080000Y-24130000D03*
X78080000Y-22860000D03*
X78080000Y-33020000D03*
X78080000Y-30480000D03*
X71780000Y-30480000D03*
X71780000Y-31750000D03*
X71780000Y-33020000D03*
D15*
X106680000Y-31750000D03*
D16*
X106680000Y-29210000D03*
X106680000Y-26670000D03*
X106680000Y-24130000D03*
D15*
X60960000Y-34290000D03*
D16*
X60960000Y-31750000D03*
X60960000Y-29210000D03*
X60960000Y-26670000D03*
X60960000Y-24130000D03*
X60960000Y-21590000D03*
D25*
X20320000Y-34290000D03*
D26*
X17780000Y-34290000D03*
X20320000Y-31750000D03*
X17780000Y-31750000D03*
X20320000Y-29210000D03*
X17780000Y-29210000D03*
X20320000Y-26670000D03*
X17780000Y-26670000D03*
X20320000Y-24130000D03*
X17780000Y-24130000D03*
X20320000Y-21590000D03*
X17780000Y-21590000D03*
D27*
X90490000Y-30711140D03*
X92390000Y-30711140D03*
X91440000Y-27708860D03*
D28*
X82296000Y-26035000D03*
X82296000Y-27305000D03*
X82296000Y-28575000D03*
X82296000Y-29845000D03*
X87884000Y-29845000D03*
X87884000Y-28575000D03*
X87884000Y-27305000D03*
X87884000Y-26035000D03*
D10*
G36*
X99650000Y-34605000D02*
X99650000Y-32705000D01*
X101550000Y-32205000D01*
X101550000Y-35105000D01*
X99650000Y-34605000D01*
X99650000Y-34605000D01*
G37*
G36*
X101650000Y-35105000D02*
X101650000Y-32205000D01*
X103550000Y-32705000D01*
X103550000Y-34605000D01*
X101650000Y-35105000D01*
X101650000Y-35105000D01*
G37*
G36*
X98470000Y-21275000D02*
X98470000Y-23175000D01*
X96570000Y-23675000D01*
X96570000Y-20775000D01*
X98470000Y-21275000D01*
X98470000Y-21275000D01*
G37*
G36*
X96470000Y-20775000D02*
X96470000Y-23675000D01*
X94570000Y-23175000D01*
X94570000Y-21275000D01*
X96470000Y-20775000D01*
X96470000Y-20775000D01*
G37*
G36*
X98470000Y-32705000D02*
X98470000Y-34605000D01*
X96570000Y-35105000D01*
X96570000Y-32205000D01*
X98470000Y-32705000D01*
X98470000Y-32705000D01*
G37*
G36*
X96470000Y-32205000D02*
X96470000Y-35105000D01*
X94570000Y-34605000D01*
X94570000Y-32705000D01*
X96470000Y-32205000D01*
X96470000Y-32205000D01*
G37*
G36*
X103550000Y-21275000D02*
X103550000Y-23175000D01*
X101650000Y-23675000D01*
X101650000Y-20775000D01*
X103550000Y-21275000D01*
X103550000Y-21275000D01*
G37*
G36*
X101550000Y-20775000D02*
X101550000Y-23675000D01*
X99650000Y-23175000D01*
X99650000Y-21275000D01*
X101550000Y-20775000D01*
X101550000Y-20775000D01*
G37*
M02*
