G04 #@! TF.FileFunction,Legend,Top*
%FSLAX46Y46*%
G04 Gerber Fmt 4.6, Leading zero omitted, Abs format (unit mm)*
G04 Created by KiCad (PCBNEW 4.0.2+e4-6225~38~ubuntu15.10.1-stable) date Do 16 Jun 2016 10:00:32 CEST*
%MOMM*%
G01*
G04 APERTURE LIST*
%ADD10C,0.100000*%
%ADD11C,0.200000*%
%ADD12C,0.300000*%
%ADD13C,0.150000*%
%ADD14R,2.400000X1.000000*%
%ADD15R,1.400000X0.900000*%
%ADD16O,1.600000X2.200000*%
%ADD17R,1.400000X2.000000*%
%ADD18R,2.432000X2.127200*%
%ADD19O,2.432000X2.127200*%
%ADD20R,1.150000X1.200000*%
%ADD21R,1.400000X2.900000*%
%ADD22R,2.800000X2.400000*%
%ADD23O,1.901140X2.899360*%
%ADD24R,2.900000X1.300000*%
%ADD25R,0.900000X1.300000*%
%ADD26R,1.300000X0.900000*%
%ADD27R,1.600000X1.200000*%
%ADD28R,2.127200X2.127200*%
%ADD29O,2.127200X2.127200*%
%ADD30R,1.200100X2.200860*%
%ADD31O,1.873200X1.009600*%
G04 APERTURE END LIST*
D10*
D11*
X74930000Y-17145000D02*
X74930000Y-16510000D01*
X74930000Y-17780000D02*
X74930000Y-17145000D01*
X74930000Y-19685000D02*
X74930000Y-18415000D01*
X74930000Y-21590000D02*
X74930000Y-20320000D01*
X74930000Y-23495000D02*
X74930000Y-22225000D01*
X74930000Y-25400000D02*
X74930000Y-24130000D01*
X74930000Y-31115000D02*
X74930000Y-29845000D01*
X74930000Y-33020000D02*
X74930000Y-31750000D01*
X74930000Y-34925000D02*
X74930000Y-33655000D01*
X74930000Y-36830000D02*
X74930000Y-35560000D01*
X74930000Y-38735000D02*
X74930000Y-37465000D01*
D12*
X78160715Y-36308571D02*
X77446429Y-36308571D01*
X77446429Y-34808571D01*
X78660715Y-36308571D02*
X78660715Y-35308571D01*
X78660715Y-34808571D02*
X78589286Y-34880000D01*
X78660715Y-34951429D01*
X78732143Y-34880000D01*
X78660715Y-34808571D01*
X78660715Y-34951429D01*
X79375001Y-35308571D02*
X79375001Y-36308571D01*
X79375001Y-35451429D02*
X79446429Y-35380000D01*
X79589287Y-35308571D01*
X79803572Y-35308571D01*
X79946429Y-35380000D01*
X80017858Y-35522857D01*
X80017858Y-36308571D01*
X81303572Y-36237143D02*
X81160715Y-36308571D01*
X80875001Y-36308571D01*
X80732144Y-36237143D01*
X80660715Y-36094286D01*
X80660715Y-35522857D01*
X80732144Y-35380000D01*
X80875001Y-35308571D01*
X81160715Y-35308571D01*
X81303572Y-35380000D01*
X81375001Y-35522857D01*
X81375001Y-35665714D01*
X80660715Y-35808571D01*
X77589287Y-38708571D02*
X76875001Y-38708571D01*
X76875001Y-37208571D01*
X78660715Y-38637143D02*
X78517858Y-38708571D01*
X78232144Y-38708571D01*
X78089287Y-38637143D01*
X78017858Y-38494286D01*
X78017858Y-37922857D01*
X78089287Y-37780000D01*
X78232144Y-37708571D01*
X78517858Y-37708571D01*
X78660715Y-37780000D01*
X78732144Y-37922857D01*
X78732144Y-38065714D01*
X78017858Y-38208571D01*
X79232144Y-37708571D02*
X79589287Y-38708571D01*
X79946429Y-37708571D01*
X81089286Y-38637143D02*
X80946429Y-38708571D01*
X80660715Y-38708571D01*
X80517858Y-38637143D01*
X80446429Y-38494286D01*
X80446429Y-37922857D01*
X80517858Y-37780000D01*
X80660715Y-37708571D01*
X80946429Y-37708571D01*
X81089286Y-37780000D01*
X81160715Y-37922857D01*
X81160715Y-38065714D01*
X80446429Y-38208571D01*
X82017858Y-38708571D02*
X81875000Y-38637143D01*
X81803572Y-38494286D01*
X81803572Y-37208571D01*
X68592143Y-36308571D02*
X67877857Y-36308571D01*
X67877857Y-34808571D01*
X69306429Y-36308571D02*
X69163571Y-36237143D01*
X69092143Y-36165714D01*
X69020714Y-36022857D01*
X69020714Y-35594286D01*
X69092143Y-35451429D01*
X69163571Y-35380000D01*
X69306429Y-35308571D01*
X69520714Y-35308571D01*
X69663571Y-35380000D01*
X69735000Y-35451429D01*
X69806429Y-35594286D01*
X69806429Y-36022857D01*
X69735000Y-36165714D01*
X69663571Y-36237143D01*
X69520714Y-36308571D01*
X69306429Y-36308571D01*
X71092143Y-35308571D02*
X71092143Y-36522857D01*
X71020714Y-36665714D01*
X70949286Y-36737143D01*
X70806429Y-36808571D01*
X70592143Y-36808571D01*
X70449286Y-36737143D01*
X71092143Y-36237143D02*
X70949286Y-36308571D01*
X70663572Y-36308571D01*
X70520714Y-36237143D01*
X70449286Y-36165714D01*
X70377857Y-36022857D01*
X70377857Y-35594286D01*
X70449286Y-35451429D01*
X70520714Y-35380000D01*
X70663572Y-35308571D01*
X70949286Y-35308571D01*
X71092143Y-35380000D01*
X71806429Y-36308571D02*
X71806429Y-35308571D01*
X71806429Y-34808571D02*
X71735000Y-34880000D01*
X71806429Y-34951429D01*
X71877857Y-34880000D01*
X71806429Y-34808571D01*
X71806429Y-34951429D01*
X73163572Y-36237143D02*
X73020715Y-36308571D01*
X72735001Y-36308571D01*
X72592143Y-36237143D01*
X72520715Y-36165714D01*
X72449286Y-36022857D01*
X72449286Y-35594286D01*
X72520715Y-35451429D01*
X72592143Y-35380000D01*
X72735001Y-35308571D01*
X73020715Y-35308571D01*
X73163572Y-35380000D01*
X68699287Y-38708571D02*
X67985001Y-38708571D01*
X67985001Y-37208571D01*
X69770715Y-38637143D02*
X69627858Y-38708571D01*
X69342144Y-38708571D01*
X69199287Y-38637143D01*
X69127858Y-38494286D01*
X69127858Y-37922857D01*
X69199287Y-37780000D01*
X69342144Y-37708571D01*
X69627858Y-37708571D01*
X69770715Y-37780000D01*
X69842144Y-37922857D01*
X69842144Y-38065714D01*
X69127858Y-38208571D01*
X70342144Y-37708571D02*
X70699287Y-38708571D01*
X71056429Y-37708571D01*
X72199286Y-38637143D02*
X72056429Y-38708571D01*
X71770715Y-38708571D01*
X71627858Y-38637143D01*
X71556429Y-38494286D01*
X71556429Y-37922857D01*
X71627858Y-37780000D01*
X71770715Y-37708571D01*
X72056429Y-37708571D01*
X72199286Y-37780000D01*
X72270715Y-37922857D01*
X72270715Y-38065714D01*
X71556429Y-38208571D01*
X73127858Y-38708571D02*
X72985000Y-38637143D01*
X72913572Y-38494286D01*
X72913572Y-37208571D01*
D11*
X18415000Y-36195000D02*
X22225000Y-36195000D01*
X17780000Y-35560000D02*
X18415000Y-36195000D01*
X15875000Y-32385000D02*
X15875000Y-36195000D01*
X16510000Y-31750000D02*
X15875000Y-32385000D01*
D12*
X17724286Y-38778571D02*
X17224286Y-38064286D01*
X16867143Y-38778571D02*
X16867143Y-37278571D01*
X17438571Y-37278571D01*
X17581429Y-37350000D01*
X17652857Y-37421429D01*
X17724286Y-37564286D01*
X17724286Y-37778571D01*
X17652857Y-37921429D01*
X17581429Y-37992857D01*
X17438571Y-38064286D01*
X16867143Y-38064286D01*
X18295714Y-38707143D02*
X18510000Y-38778571D01*
X18867143Y-38778571D01*
X19010000Y-38707143D01*
X19081429Y-38635714D01*
X19152857Y-38492857D01*
X19152857Y-38350000D01*
X19081429Y-38207143D01*
X19010000Y-38135714D01*
X18867143Y-38064286D01*
X18581429Y-37992857D01*
X18438571Y-37921429D01*
X18367143Y-37850000D01*
X18295714Y-37707143D01*
X18295714Y-37564286D01*
X18367143Y-37421429D01*
X18438571Y-37350000D01*
X18581429Y-37278571D01*
X18938571Y-37278571D01*
X19152857Y-37350000D01*
X19581428Y-37278571D02*
X20438571Y-37278571D01*
X20010000Y-38778571D02*
X20010000Y-37278571D01*
X22582143Y-37508571D02*
X22582143Y-36008571D01*
X23296429Y-37508571D02*
X23296429Y-36008571D01*
X24153572Y-37508571D01*
X24153572Y-36008571D01*
X24653572Y-36008571D02*
X25510715Y-36008571D01*
X25082144Y-37508571D02*
X25082144Y-36008571D01*
X23439286Y-34825714D02*
X23367857Y-34897143D01*
X23153571Y-34968571D01*
X23010714Y-34968571D01*
X22796429Y-34897143D01*
X22653571Y-34754286D01*
X22582143Y-34611429D01*
X22510714Y-34325714D01*
X22510714Y-34111429D01*
X22582143Y-33825714D01*
X22653571Y-33682857D01*
X22796429Y-33540000D01*
X23010714Y-33468571D01*
X23153571Y-33468571D01*
X23367857Y-33540000D01*
X23439286Y-33611429D01*
X24010714Y-34897143D02*
X24225000Y-34968571D01*
X24582143Y-34968571D01*
X24725000Y-34897143D01*
X24796429Y-34825714D01*
X24867857Y-34682857D01*
X24867857Y-34540000D01*
X24796429Y-34397143D01*
X24725000Y-34325714D01*
X24582143Y-34254286D01*
X24296429Y-34182857D01*
X24153571Y-34111429D01*
X24082143Y-34040000D01*
X24010714Y-33897143D01*
X24010714Y-33754286D01*
X24082143Y-33611429D01*
X24153571Y-33540000D01*
X24296429Y-33468571D01*
X24653571Y-33468571D01*
X24867857Y-33540000D01*
X22582143Y-32428571D02*
X22582143Y-30928571D01*
X23082143Y-32000000D01*
X23582143Y-30928571D01*
X23582143Y-32428571D01*
X24582143Y-30928571D02*
X24867857Y-30928571D01*
X25010715Y-31000000D01*
X25153572Y-31142857D01*
X25225000Y-31428571D01*
X25225000Y-31928571D01*
X25153572Y-32214286D01*
X25010715Y-32357143D01*
X24867857Y-32428571D01*
X24582143Y-32428571D01*
X24439286Y-32357143D01*
X24296429Y-32214286D01*
X24225000Y-31928571D01*
X24225000Y-31428571D01*
X24296429Y-31142857D01*
X24439286Y-31000000D01*
X24582143Y-30928571D01*
X25796429Y-32357143D02*
X26010715Y-32428571D01*
X26367858Y-32428571D01*
X26510715Y-32357143D01*
X26582144Y-32285714D01*
X26653572Y-32142857D01*
X26653572Y-32000000D01*
X26582144Y-31857143D01*
X26510715Y-31785714D01*
X26367858Y-31714286D01*
X26082144Y-31642857D01*
X25939286Y-31571429D01*
X25867858Y-31500000D01*
X25796429Y-31357143D01*
X25796429Y-31214286D01*
X25867858Y-31071429D01*
X25939286Y-31000000D01*
X26082144Y-30928571D01*
X26439286Y-30928571D01*
X26653572Y-31000000D01*
X27296429Y-32428571D02*
X27296429Y-30928571D01*
X22510714Y-27277143D02*
X22725000Y-27348571D01*
X23082143Y-27348571D01*
X23225000Y-27277143D01*
X23296429Y-27205714D01*
X23367857Y-27062857D01*
X23367857Y-26920000D01*
X23296429Y-26777143D01*
X23225000Y-26705714D01*
X23082143Y-26634286D01*
X22796429Y-26562857D01*
X22653571Y-26491429D01*
X22582143Y-26420000D01*
X22510714Y-26277143D01*
X22510714Y-26134286D01*
X22582143Y-25991429D01*
X22653571Y-25920000D01*
X22796429Y-25848571D01*
X23153571Y-25848571D01*
X23367857Y-25920000D01*
X24867857Y-27205714D02*
X24796428Y-27277143D01*
X24582142Y-27348571D01*
X24439285Y-27348571D01*
X24225000Y-27277143D01*
X24082142Y-27134286D01*
X24010714Y-26991429D01*
X23939285Y-26705714D01*
X23939285Y-26491429D01*
X24010714Y-26205714D01*
X24082142Y-26062857D01*
X24225000Y-25920000D01*
X24439285Y-25848571D01*
X24582142Y-25848571D01*
X24796428Y-25920000D01*
X24867857Y-25991429D01*
X25510714Y-27348571D02*
X25510714Y-25848571D01*
X26367857Y-27348571D02*
X25725000Y-26491429D01*
X26367857Y-25848571D02*
X25510714Y-26705714D01*
X23367857Y-23380000D02*
X23225000Y-23308571D01*
X23010714Y-23308571D01*
X22796429Y-23380000D01*
X22653571Y-23522857D01*
X22582143Y-23665714D01*
X22510714Y-23951429D01*
X22510714Y-24165714D01*
X22582143Y-24451429D01*
X22653571Y-24594286D01*
X22796429Y-24737143D01*
X23010714Y-24808571D01*
X23153571Y-24808571D01*
X23367857Y-24737143D01*
X23439286Y-24665714D01*
X23439286Y-24165714D01*
X23153571Y-24165714D01*
X24082143Y-24808571D02*
X24082143Y-23308571D01*
X24939286Y-24808571D01*
X24939286Y-23308571D01*
X25653572Y-24808571D02*
X25653572Y-23308571D01*
X26010715Y-23308571D01*
X26225000Y-23380000D01*
X26367858Y-23522857D01*
X26439286Y-23665714D01*
X26510715Y-23951429D01*
X26510715Y-24165714D01*
X26439286Y-24451429D01*
X26367858Y-24594286D01*
X26225000Y-24737143D01*
X26010715Y-24808571D01*
X25653572Y-24808571D01*
X22439286Y-20768571D02*
X23367857Y-20768571D01*
X22867857Y-21340000D01*
X23082143Y-21340000D01*
X23225000Y-21411429D01*
X23296429Y-21482857D01*
X23367857Y-21625714D01*
X23367857Y-21982857D01*
X23296429Y-22125714D01*
X23225000Y-22197143D01*
X23082143Y-22268571D01*
X22653571Y-22268571D01*
X22510714Y-22197143D01*
X22439286Y-22125714D01*
X23796428Y-20768571D02*
X24296428Y-22268571D01*
X24796428Y-20768571D01*
X25153571Y-20768571D02*
X26082142Y-20768571D01*
X25582142Y-21340000D01*
X25796428Y-21340000D01*
X25939285Y-21411429D01*
X26010714Y-21482857D01*
X26082142Y-21625714D01*
X26082142Y-21982857D01*
X26010714Y-22125714D01*
X25939285Y-22197143D01*
X25796428Y-22268571D01*
X25367856Y-22268571D01*
X25224999Y-22197143D01*
X25153571Y-22125714D01*
X22582143Y-29888571D02*
X22582143Y-28388571D01*
X23082143Y-29460000D01*
X23582143Y-28388571D01*
X23582143Y-29888571D01*
X24296429Y-29888571D02*
X24296429Y-28388571D01*
X24939286Y-29817143D02*
X25153572Y-29888571D01*
X25510715Y-29888571D01*
X25653572Y-29817143D01*
X25725001Y-29745714D01*
X25796429Y-29602857D01*
X25796429Y-29460000D01*
X25725001Y-29317143D01*
X25653572Y-29245714D01*
X25510715Y-29174286D01*
X25225001Y-29102857D01*
X25082143Y-29031429D01*
X25010715Y-28960000D01*
X24939286Y-28817143D01*
X24939286Y-28674286D01*
X25010715Y-28531429D01*
X25082143Y-28460000D01*
X25225001Y-28388571D01*
X25582143Y-28388571D01*
X25796429Y-28460000D01*
X26725000Y-28388571D02*
X27010714Y-28388571D01*
X27153572Y-28460000D01*
X27296429Y-28602857D01*
X27367857Y-28888571D01*
X27367857Y-29388571D01*
X27296429Y-29674286D01*
X27153572Y-29817143D01*
X27010714Y-29888571D01*
X26725000Y-29888571D01*
X26582143Y-29817143D01*
X26439286Y-29674286D01*
X26367857Y-29388571D01*
X26367857Y-28888571D01*
X26439286Y-28602857D01*
X26582143Y-28460000D01*
X26725000Y-28388571D01*
X26575715Y-18950714D02*
X26504286Y-19022143D01*
X26290000Y-19093571D01*
X26147143Y-19093571D01*
X25932858Y-19022143D01*
X25790000Y-18879286D01*
X25718572Y-18736429D01*
X25647143Y-18450714D01*
X25647143Y-18236429D01*
X25718572Y-17950714D01*
X25790000Y-17807857D01*
X25932858Y-17665000D01*
X26147143Y-17593571D01*
X26290000Y-17593571D01*
X26504286Y-17665000D01*
X26575715Y-17736429D01*
X27147143Y-18665000D02*
X27861429Y-18665000D01*
X27004286Y-19093571D02*
X27504286Y-17593571D01*
X28004286Y-19093571D01*
X28504286Y-19093571D02*
X28504286Y-17593571D01*
X29361429Y-19093571D01*
X29361429Y-17593571D01*
X31861429Y-19093571D02*
X31861429Y-18307857D01*
X31790000Y-18165000D01*
X31647143Y-18093571D01*
X31361429Y-18093571D01*
X31218572Y-18165000D01*
X31861429Y-19022143D02*
X31718572Y-19093571D01*
X31361429Y-19093571D01*
X31218572Y-19022143D01*
X31147143Y-18879286D01*
X31147143Y-18736429D01*
X31218572Y-18593571D01*
X31361429Y-18522143D01*
X31718572Y-18522143D01*
X31861429Y-18450714D01*
X33218572Y-19093571D02*
X33218572Y-17593571D01*
X33218572Y-19022143D02*
X33075715Y-19093571D01*
X32790001Y-19093571D01*
X32647143Y-19022143D01*
X32575715Y-18950714D01*
X32504286Y-18807857D01*
X32504286Y-18379286D01*
X32575715Y-18236429D01*
X32647143Y-18165000D01*
X32790001Y-18093571D01*
X33075715Y-18093571D01*
X33218572Y-18165000D01*
X34575715Y-19093571D02*
X34575715Y-18307857D01*
X34504286Y-18165000D01*
X34361429Y-18093571D01*
X34075715Y-18093571D01*
X33932858Y-18165000D01*
X34575715Y-19022143D02*
X34432858Y-19093571D01*
X34075715Y-19093571D01*
X33932858Y-19022143D01*
X33861429Y-18879286D01*
X33861429Y-18736429D01*
X33932858Y-18593571D01*
X34075715Y-18522143D01*
X34432858Y-18522143D01*
X34575715Y-18450714D01*
X35290001Y-18093571D02*
X35290001Y-19593571D01*
X35290001Y-18165000D02*
X35432858Y-18093571D01*
X35718572Y-18093571D01*
X35861429Y-18165000D01*
X35932858Y-18236429D01*
X36004287Y-18379286D01*
X36004287Y-18807857D01*
X35932858Y-18950714D01*
X35861429Y-19022143D01*
X35718572Y-19093571D01*
X35432858Y-19093571D01*
X35290001Y-19022143D01*
X36432858Y-18093571D02*
X37004287Y-18093571D01*
X36647144Y-17593571D02*
X36647144Y-18879286D01*
X36718572Y-19022143D01*
X36861430Y-19093571D01*
X37004287Y-19093571D01*
X38075715Y-19022143D02*
X37932858Y-19093571D01*
X37647144Y-19093571D01*
X37504287Y-19022143D01*
X37432858Y-18879286D01*
X37432858Y-18307857D01*
X37504287Y-18165000D01*
X37647144Y-18093571D01*
X37932858Y-18093571D01*
X38075715Y-18165000D01*
X38147144Y-18307857D01*
X38147144Y-18450714D01*
X37432858Y-18593571D01*
X38790001Y-19093571D02*
X38790001Y-18093571D01*
X38790001Y-18379286D02*
X38861429Y-18236429D01*
X38932858Y-18165000D01*
X39075715Y-18093571D01*
X39218572Y-18093571D01*
X40647143Y-17593571D02*
X41147143Y-19093571D01*
X41647143Y-17593571D01*
X42932857Y-19093571D02*
X42075714Y-19093571D01*
X42504286Y-19093571D02*
X42504286Y-17593571D01*
X42361429Y-17807857D01*
X42218571Y-17950714D01*
X42075714Y-18022143D01*
X27504287Y-20847857D02*
X27718573Y-20919286D01*
X27790001Y-20990714D01*
X27861430Y-21133571D01*
X27861430Y-21347857D01*
X27790001Y-21490714D01*
X27718573Y-21562143D01*
X27575715Y-21633571D01*
X27004287Y-21633571D01*
X27004287Y-20133571D01*
X27504287Y-20133571D01*
X27647144Y-20205000D01*
X27718573Y-20276429D01*
X27790001Y-20419286D01*
X27790001Y-20562143D01*
X27718573Y-20705000D01*
X27647144Y-20776429D01*
X27504287Y-20847857D01*
X27004287Y-20847857D01*
X28504287Y-21633571D02*
X28504287Y-20633571D01*
X28504287Y-20919286D02*
X28575715Y-20776429D01*
X28647144Y-20705000D01*
X28790001Y-20633571D01*
X28932858Y-20633571D01*
X30004286Y-21562143D02*
X29861429Y-21633571D01*
X29575715Y-21633571D01*
X29432858Y-21562143D01*
X29361429Y-21419286D01*
X29361429Y-20847857D01*
X29432858Y-20705000D01*
X29575715Y-20633571D01*
X29861429Y-20633571D01*
X30004286Y-20705000D01*
X30075715Y-20847857D01*
X30075715Y-20990714D01*
X29361429Y-21133571D01*
X30504286Y-20633571D02*
X31075715Y-20633571D01*
X30718572Y-20133571D02*
X30718572Y-21419286D01*
X30790000Y-21562143D01*
X30932858Y-21633571D01*
X31075715Y-21633571D01*
X31361429Y-20633571D02*
X31932858Y-20633571D01*
X31575715Y-20133571D02*
X31575715Y-21419286D01*
X31647143Y-21562143D01*
X31790001Y-21633571D01*
X31932858Y-21633571D01*
X33290001Y-21633571D02*
X32790001Y-20919286D01*
X32432858Y-21633571D02*
X32432858Y-20133571D01*
X33004286Y-20133571D01*
X33147144Y-20205000D01*
X33218572Y-20276429D01*
X33290001Y-20419286D01*
X33290001Y-20633571D01*
X33218572Y-20776429D01*
X33147144Y-20847857D01*
X33004286Y-20919286D01*
X32432858Y-20919286D01*
X33932858Y-21633571D02*
X33932858Y-20133571D01*
X34290001Y-20133571D01*
X34504286Y-20205000D01*
X34647144Y-20347857D01*
X34718572Y-20490714D01*
X34790001Y-20776429D01*
X34790001Y-20990714D01*
X34718572Y-21276429D01*
X34647144Y-21419286D01*
X34504286Y-21562143D01*
X34290001Y-21633571D01*
X33932858Y-21633571D01*
X36504286Y-20276429D02*
X36575715Y-20205000D01*
X36718572Y-20133571D01*
X37075715Y-20133571D01*
X37218572Y-20205000D01*
X37290001Y-20276429D01*
X37361429Y-20419286D01*
X37361429Y-20562143D01*
X37290001Y-20776429D01*
X36432858Y-21633571D01*
X37361429Y-21633571D01*
X38290000Y-20133571D02*
X38432857Y-20133571D01*
X38575714Y-20205000D01*
X38647143Y-20276429D01*
X38718572Y-20419286D01*
X38790000Y-20705000D01*
X38790000Y-21062143D01*
X38718572Y-21347857D01*
X38647143Y-21490714D01*
X38575714Y-21562143D01*
X38432857Y-21633571D01*
X38290000Y-21633571D01*
X38147143Y-21562143D01*
X38075714Y-21490714D01*
X38004286Y-21347857D01*
X37932857Y-21062143D01*
X37932857Y-20705000D01*
X38004286Y-20419286D01*
X38075714Y-20276429D01*
X38147143Y-20205000D01*
X38290000Y-20133571D01*
X40218571Y-21633571D02*
X39361428Y-21633571D01*
X39790000Y-21633571D02*
X39790000Y-20133571D01*
X39647143Y-20347857D01*
X39504285Y-20490714D01*
X39361428Y-20562143D01*
X41504285Y-20133571D02*
X41218571Y-20133571D01*
X41075714Y-20205000D01*
X41004285Y-20276429D01*
X40861428Y-20490714D01*
X40789999Y-20776429D01*
X40789999Y-21347857D01*
X40861428Y-21490714D01*
X40932856Y-21562143D01*
X41075714Y-21633571D01*
X41361428Y-21633571D01*
X41504285Y-21562143D01*
X41575714Y-21490714D01*
X41647142Y-21347857D01*
X41647142Y-20990714D01*
X41575714Y-20847857D01*
X41504285Y-20776429D01*
X41361428Y-20705000D01*
X41075714Y-20705000D01*
X40932856Y-20776429D01*
X40861428Y-20847857D01*
X40789999Y-20990714D01*
X63007857Y-30928571D02*
X63865000Y-30928571D01*
X63436429Y-32428571D02*
X63436429Y-30928571D01*
X64222143Y-30928571D02*
X65222143Y-32428571D01*
X65222143Y-30928571D02*
X64222143Y-32428571D01*
X64079286Y-29888571D02*
X63579286Y-29174286D01*
X63222143Y-29888571D02*
X63222143Y-28388571D01*
X63793571Y-28388571D01*
X63936429Y-28460000D01*
X64007857Y-28531429D01*
X64079286Y-28674286D01*
X64079286Y-28888571D01*
X64007857Y-29031429D01*
X63936429Y-29102857D01*
X63793571Y-29174286D01*
X63222143Y-29174286D01*
X64579286Y-28388571D02*
X65579286Y-29888571D01*
X65579286Y-28388571D02*
X64579286Y-29888571D01*
X49006429Y-30928571D02*
X49863572Y-30928571D01*
X49435001Y-32428571D02*
X49435001Y-30928571D01*
X50220715Y-30928571D02*
X51220715Y-32428571D01*
X51220715Y-30928571D02*
X50220715Y-32428571D01*
X49720715Y-29888571D02*
X49220715Y-29174286D01*
X48863572Y-29888571D02*
X48863572Y-28388571D01*
X49435000Y-28388571D01*
X49577858Y-28460000D01*
X49649286Y-28531429D01*
X49720715Y-28674286D01*
X49720715Y-28888571D01*
X49649286Y-29031429D01*
X49577858Y-29102857D01*
X49435000Y-29174286D01*
X48863572Y-29174286D01*
X50220715Y-28388571D02*
X51220715Y-29888571D01*
X51220715Y-28388571D02*
X50220715Y-29888571D01*
X104632143Y-32428571D02*
X103917857Y-32428571D01*
X103917857Y-30928571D01*
X104195714Y-29888571D02*
X104195714Y-28388571D01*
X104195714Y-29102857D02*
X105052857Y-29102857D01*
X105052857Y-29888571D02*
X105052857Y-28388571D01*
X103910000Y-26777143D02*
X105052857Y-26777143D01*
X103910000Y-24237143D02*
X105052857Y-24237143D01*
X104481428Y-24808571D02*
X104481428Y-23665714D01*
D13*
X38257815Y-33020000D02*
G75*
G03X38257815Y-33020000I-538815J0D01*
G01*
X38800000Y-33890000D02*
X38800000Y-33545000D01*
X31050000Y-33890000D02*
X31050000Y-33545000D01*
X31050000Y-21990000D02*
X31050000Y-22335000D01*
X38800000Y-21990000D02*
X38800000Y-22335000D01*
X38800000Y-33890000D02*
X31050000Y-33890000D01*
X38800000Y-21990000D02*
X31050000Y-21990000D01*
X38800000Y-33545000D02*
X40625000Y-33545000D01*
X56650000Y-31520000D02*
X57650000Y-31520000D01*
X57650000Y-31520000D02*
X59150000Y-32020000D01*
X59150000Y-32020000D02*
X59150000Y-34020000D01*
X59150000Y-34020000D02*
X57650000Y-34520000D01*
X57650000Y-34520000D02*
X56650000Y-34520000D01*
X56650000Y-34520000D02*
X55150000Y-34020000D01*
X55150000Y-34020000D02*
X55150000Y-32020000D01*
X55150000Y-32020000D02*
X56650000Y-31520000D01*
X56650000Y-26440000D02*
X57650000Y-26440000D01*
X57650000Y-26440000D02*
X59150000Y-26940000D01*
X59150000Y-26940000D02*
X59150000Y-28940000D01*
X59150000Y-28940000D02*
X57650000Y-29440000D01*
X57650000Y-29440000D02*
X56650000Y-29440000D01*
X56650000Y-29440000D02*
X55150000Y-28940000D01*
X55150000Y-28940000D02*
X55150000Y-26940000D01*
X55150000Y-26940000D02*
X56650000Y-26440000D01*
X68580000Y-20320000D02*
X81280000Y-20320000D01*
X81280000Y-20320000D02*
X81280000Y-13970000D01*
X81280000Y-13970000D02*
X68580000Y-13970000D01*
X68580000Y-13970000D02*
X68580000Y-20320000D01*
X92440000Y-22470000D02*
X90440000Y-22470000D01*
X90440000Y-24520000D02*
X92440000Y-24520000D01*
X52070000Y-33020000D02*
X52070000Y-20320000D01*
X52070000Y-20320000D02*
X54610000Y-20320000D01*
X54610000Y-20320000D02*
X54610000Y-33020000D01*
X51790000Y-35840000D02*
X51790000Y-34290000D01*
X52070000Y-33020000D02*
X54610000Y-33020000D01*
X54890000Y-34290000D02*
X54890000Y-35840000D01*
X54890000Y-35840000D02*
X51790000Y-35840000D01*
X48225000Y-26320000D02*
X48225000Y-27020000D01*
X47025000Y-27020000D02*
X47025000Y-26320000D01*
X47025000Y-23210000D02*
X47025000Y-22510000D01*
X48225000Y-22510000D02*
X48225000Y-23210000D01*
X84090000Y-34495000D02*
X86090000Y-34495000D01*
X86090000Y-31545000D02*
X84090000Y-31545000D01*
X33925000Y-37670000D02*
X35925000Y-37670000D01*
X35925000Y-34720000D02*
X33925000Y-34720000D01*
X42750000Y-27365000D02*
X42750000Y-23065000D01*
X46150000Y-22115000D02*
X46150000Y-27365000D01*
X84836000Y-16002000D02*
X84836000Y-17145000D01*
X87884000Y-16002000D02*
X87884000Y-17145000D01*
X91694000Y-17145000D02*
X91694000Y-20828000D01*
X91694000Y-20828000D02*
X81026000Y-20828000D01*
X81026000Y-20828000D02*
X81026000Y-17145000D01*
X91694000Y-16002000D02*
X91694000Y-17145000D01*
X91694000Y-17145000D02*
X81026000Y-17145000D01*
X81026000Y-17145000D02*
X81026000Y-16002000D01*
X86360000Y-16002000D02*
X81026000Y-16002000D01*
X86360000Y-16002000D02*
X91694000Y-16002000D01*
X95045000Y-28940000D02*
X95045000Y-26940000D01*
X97995000Y-26940000D02*
X97995000Y-28940000D01*
X100125000Y-28940000D02*
X100125000Y-26940000D01*
X103075000Y-26940000D02*
X103075000Y-28940000D01*
X86860000Y-24170000D02*
X85860000Y-24170000D01*
X85860000Y-22820000D02*
X86860000Y-22820000D01*
X79335000Y-30980000D02*
X79335000Y-29980000D01*
X80685000Y-29980000D02*
X80685000Y-30980000D01*
X67905000Y-26535000D02*
X67905000Y-25535000D01*
X69255000Y-25535000D02*
X69255000Y-26535000D01*
X73930000Y-23130000D02*
G75*
G03X73930000Y-23130000I-500000J0D01*
G01*
X72430000Y-23630000D02*
X72430000Y-24630000D01*
X77430000Y-26130000D02*
X72430000Y-26130000D01*
X77430000Y-22130000D02*
X72430000Y-22130000D01*
X76930000Y-32750000D02*
G75*
G03X76930000Y-32750000I-500000J0D01*
G01*
X77430000Y-32250000D02*
X77430000Y-31250000D01*
X72430000Y-29750000D02*
X77430000Y-29750000D01*
X72430000Y-33750000D02*
X77430000Y-33750000D01*
X107950000Y-30480000D02*
X107950000Y-22860000D01*
X105410000Y-30480000D02*
X105410000Y-22860000D01*
X105130000Y-33300000D02*
X105130000Y-31750000D01*
X107950000Y-22860000D02*
X105410000Y-22860000D01*
X105410000Y-30480000D02*
X107950000Y-30480000D01*
X108230000Y-31750000D02*
X108230000Y-33300000D01*
X108230000Y-33300000D02*
X105130000Y-33300000D01*
X59690000Y-33020000D02*
X59690000Y-20320000D01*
X59690000Y-20320000D02*
X62230000Y-20320000D01*
X62230000Y-20320000D02*
X62230000Y-33020000D01*
X59410000Y-35840000D02*
X59410000Y-34290000D01*
X59690000Y-33020000D02*
X62230000Y-33020000D01*
X62510000Y-34290000D02*
X62510000Y-35840000D01*
X62510000Y-35840000D02*
X59410000Y-35840000D01*
X16510000Y-20320000D02*
X16510000Y-35560000D01*
X21590000Y-33020000D02*
X21590000Y-20320000D01*
X16510000Y-20320000D02*
X21590000Y-20320000D01*
X16510000Y-35560000D02*
X19050000Y-35560000D01*
X20320000Y-35840000D02*
X21870000Y-35840000D01*
X19050000Y-35560000D02*
X19050000Y-33020000D01*
X19050000Y-33020000D02*
X21590000Y-33020000D01*
X21870000Y-35840000D02*
X21870000Y-34290000D01*
X89940180Y-29260800D02*
X89940180Y-28559760D01*
X89940180Y-28559760D02*
X90189100Y-28559760D01*
X92739160Y-28559760D02*
X92939820Y-28559760D01*
X92939820Y-28559760D02*
X92939820Y-29260800D01*
X84455000Y-26035000D02*
G75*
G03X84455000Y-26035000I-127000J0D01*
G01*
X83693000Y-25400000D02*
X83693000Y-30480000D01*
X86995000Y-25400000D02*
X86995000Y-30480000D01*
X83185000Y-25400000D02*
X83185000Y-30480000D01*
X83185000Y-25400000D02*
X86995000Y-25400000D01*
X83185000Y-30480000D02*
X86995000Y-30480000D01*
X101100000Y-32155000D02*
X102100000Y-32155000D01*
X102100000Y-32155000D02*
X103600000Y-32655000D01*
X103600000Y-32655000D02*
X103600000Y-34655000D01*
X103600000Y-34655000D02*
X102100000Y-35155000D01*
X102100000Y-35155000D02*
X101100000Y-35155000D01*
X101100000Y-35155000D02*
X99600000Y-34655000D01*
X99600000Y-34655000D02*
X99600000Y-32655000D01*
X99600000Y-32655000D02*
X101100000Y-32155000D01*
X97020000Y-23725000D02*
X96020000Y-23725000D01*
X96020000Y-23725000D02*
X94520000Y-23225000D01*
X94520000Y-23225000D02*
X94520000Y-21225000D01*
X94520000Y-21225000D02*
X96020000Y-20725000D01*
X96020000Y-20725000D02*
X97020000Y-20725000D01*
X97020000Y-20725000D02*
X98520000Y-21225000D01*
X98520000Y-21225000D02*
X98520000Y-23225000D01*
X98520000Y-23225000D02*
X97020000Y-23725000D01*
X97020000Y-35155000D02*
X96020000Y-35155000D01*
X96020000Y-35155000D02*
X94520000Y-34655000D01*
X94520000Y-34655000D02*
X94520000Y-32655000D01*
X94520000Y-32655000D02*
X96020000Y-32155000D01*
X96020000Y-32155000D02*
X97020000Y-32155000D01*
X97020000Y-32155000D02*
X98520000Y-32655000D01*
X98520000Y-32655000D02*
X98520000Y-34655000D01*
X98520000Y-34655000D02*
X97020000Y-35155000D01*
X102100000Y-23725000D02*
X101100000Y-23725000D01*
X101100000Y-23725000D02*
X99600000Y-23225000D01*
X99600000Y-23225000D02*
X99600000Y-21225000D01*
X99600000Y-21225000D02*
X101100000Y-20725000D01*
X101100000Y-20725000D02*
X102100000Y-20725000D01*
X102100000Y-20725000D02*
X103600000Y-21225000D01*
X103600000Y-21225000D02*
X103600000Y-23225000D01*
X103600000Y-23225000D02*
X102100000Y-23725000D01*
X41362381Y-33781905D02*
X42171905Y-33781905D01*
X42267143Y-33734286D01*
X42314762Y-33686667D01*
X42362381Y-33591429D01*
X42362381Y-33400952D01*
X42314762Y-33305714D01*
X42267143Y-33258095D01*
X42171905Y-33210476D01*
X41362381Y-33210476D01*
X42362381Y-32210476D02*
X42362381Y-32781905D01*
X42362381Y-32496191D02*
X41362381Y-32496191D01*
X41505238Y-32591429D01*
X41600476Y-32686667D01*
X41648095Y-32781905D01*
X44267381Y-36258095D02*
X43267381Y-36258095D01*
X43981667Y-35924761D01*
X43267381Y-35591428D01*
X44267381Y-35591428D01*
X44172143Y-34543809D02*
X44219762Y-34591428D01*
X44267381Y-34734285D01*
X44267381Y-34829523D01*
X44219762Y-34972381D01*
X44124524Y-35067619D01*
X44029286Y-35115238D01*
X43838810Y-35162857D01*
X43695952Y-35162857D01*
X43505476Y-35115238D01*
X43410238Y-35067619D01*
X43315000Y-34972381D01*
X43267381Y-34829523D01*
X43267381Y-34734285D01*
X43315000Y-34591428D01*
X43362619Y-34543809D01*
X44267381Y-34115238D02*
X43267381Y-34115238D01*
X43267381Y-33734285D01*
X43315000Y-33639047D01*
X43362619Y-33591428D01*
X43457857Y-33543809D01*
X43600714Y-33543809D01*
X43695952Y-33591428D01*
X43743571Y-33639047D01*
X43791190Y-33734285D01*
X43791190Y-34115238D01*
X43362619Y-33162857D02*
X43315000Y-33115238D01*
X43267381Y-33020000D01*
X43267381Y-32781904D01*
X43315000Y-32686666D01*
X43362619Y-32639047D01*
X43457857Y-32591428D01*
X43553095Y-32591428D01*
X43695952Y-32639047D01*
X44267381Y-33210476D01*
X44267381Y-32591428D01*
X43267381Y-31686666D02*
X43267381Y-32162857D01*
X43743571Y-32210476D01*
X43695952Y-32162857D01*
X43648333Y-32067619D01*
X43648333Y-31829523D01*
X43695952Y-31734285D01*
X43743571Y-31686666D01*
X43838810Y-31639047D01*
X44076905Y-31639047D01*
X44172143Y-31686666D01*
X44219762Y-31734285D01*
X44267381Y-31829523D01*
X44267381Y-32067619D01*
X44219762Y-32162857D01*
X44172143Y-32210476D01*
X44267381Y-30686666D02*
X44267381Y-31258095D01*
X44267381Y-30972381D02*
X43267381Y-30972381D01*
X43410238Y-31067619D01*
X43505476Y-31162857D01*
X43553095Y-31258095D01*
X43267381Y-29781904D02*
X43267381Y-30258095D01*
X43743571Y-30305714D01*
X43695952Y-30258095D01*
X43648333Y-30162857D01*
X43648333Y-29924761D01*
X43695952Y-29829523D01*
X43743571Y-29781904D01*
X43838810Y-29734285D01*
X44076905Y-29734285D01*
X44172143Y-29781904D01*
X44219762Y-29829523D01*
X44267381Y-29924761D01*
X44267381Y-30162857D01*
X44219762Y-30258095D01*
X44172143Y-30305714D01*
X56316667Y-34972381D02*
X56316667Y-35686667D01*
X56269047Y-35829524D01*
X56173809Y-35924762D01*
X56030952Y-35972381D01*
X55935714Y-35972381D01*
X56792857Y-35972381D02*
X56792857Y-34972381D01*
X57173810Y-34972381D01*
X57269048Y-35020000D01*
X57316667Y-35067619D01*
X57364286Y-35162857D01*
X57364286Y-35305714D01*
X57316667Y-35400952D01*
X57269048Y-35448571D01*
X57173810Y-35496190D01*
X56792857Y-35496190D01*
X57745238Y-35067619D02*
X57792857Y-35020000D01*
X57888095Y-34972381D01*
X58126191Y-34972381D01*
X58221429Y-35020000D01*
X58269048Y-35067619D01*
X58316667Y-35162857D01*
X58316667Y-35258095D01*
X58269048Y-35400952D01*
X57697619Y-35972381D01*
X58316667Y-35972381D01*
X52173809Y-36917381D02*
X52173809Y-37726905D01*
X52221428Y-37822143D01*
X52269047Y-37869762D01*
X52364285Y-37917381D01*
X52554762Y-37917381D01*
X52650000Y-37869762D01*
X52697619Y-37822143D01*
X52745238Y-37726905D01*
X52745238Y-36917381D01*
X53173809Y-37869762D02*
X53269047Y-37917381D01*
X53459523Y-37917381D01*
X53554762Y-37869762D01*
X53602381Y-37774524D01*
X53602381Y-37726905D01*
X53554762Y-37631667D01*
X53459523Y-37584048D01*
X53316666Y-37584048D01*
X53221428Y-37536429D01*
X53173809Y-37441190D01*
X53173809Y-37393571D01*
X53221428Y-37298333D01*
X53316666Y-37250714D01*
X53459523Y-37250714D01*
X53554762Y-37298333D01*
X54411905Y-37869762D02*
X54316667Y-37917381D01*
X54126190Y-37917381D01*
X54030952Y-37869762D01*
X53983333Y-37774524D01*
X53983333Y-37393571D01*
X54030952Y-37298333D01*
X54126190Y-37250714D01*
X54316667Y-37250714D01*
X54411905Y-37298333D01*
X54459524Y-37393571D01*
X54459524Y-37488810D01*
X53983333Y-37584048D01*
X55650000Y-37917381D02*
X55650000Y-36917381D01*
X55983334Y-37631667D01*
X56316667Y-36917381D01*
X56316667Y-37917381D01*
X57364286Y-37822143D02*
X57316667Y-37869762D01*
X57173810Y-37917381D01*
X57078572Y-37917381D01*
X56935714Y-37869762D01*
X56840476Y-37774524D01*
X56792857Y-37679286D01*
X56745238Y-37488810D01*
X56745238Y-37345952D01*
X56792857Y-37155476D01*
X56840476Y-37060238D01*
X56935714Y-36965000D01*
X57078572Y-36917381D01*
X57173810Y-36917381D01*
X57316667Y-36965000D01*
X57364286Y-37012619D01*
X57792857Y-37917381D02*
X57792857Y-36917381D01*
X58173810Y-36917381D01*
X58269048Y-36965000D01*
X58316667Y-37012619D01*
X58364286Y-37107857D01*
X58364286Y-37250714D01*
X58316667Y-37345952D01*
X58269048Y-37393571D01*
X58173810Y-37441190D01*
X57792857Y-37441190D01*
X58745238Y-37012619D02*
X58792857Y-36965000D01*
X58888095Y-36917381D01*
X59126191Y-36917381D01*
X59221429Y-36965000D01*
X59269048Y-37012619D01*
X59316667Y-37107857D01*
X59316667Y-37203095D01*
X59269048Y-37345952D01*
X58697619Y-37917381D01*
X59316667Y-37917381D01*
X60221429Y-36917381D02*
X59745238Y-36917381D01*
X59697619Y-37393571D01*
X59745238Y-37345952D01*
X59840476Y-37298333D01*
X60078572Y-37298333D01*
X60173810Y-37345952D01*
X60221429Y-37393571D01*
X60269048Y-37488810D01*
X60269048Y-37726905D01*
X60221429Y-37822143D01*
X60173810Y-37869762D01*
X60078572Y-37917381D01*
X59840476Y-37917381D01*
X59745238Y-37869762D01*
X59697619Y-37822143D01*
X61221429Y-37917381D02*
X60650000Y-37917381D01*
X60935714Y-37917381D02*
X60935714Y-36917381D01*
X60840476Y-37060238D01*
X60745238Y-37155476D01*
X60650000Y-37203095D01*
X62126191Y-36917381D02*
X61650000Y-36917381D01*
X61602381Y-37393571D01*
X61650000Y-37345952D01*
X61745238Y-37298333D01*
X61983334Y-37298333D01*
X62078572Y-37345952D01*
X62126191Y-37393571D01*
X62173810Y-37488810D01*
X62173810Y-37726905D01*
X62126191Y-37822143D01*
X62078572Y-37869762D01*
X61983334Y-37917381D01*
X61745238Y-37917381D01*
X61650000Y-37869762D01*
X61602381Y-37822143D01*
X56316667Y-24852381D02*
X56316667Y-25566667D01*
X56269047Y-25709524D01*
X56173809Y-25804762D01*
X56030952Y-25852381D01*
X55935714Y-25852381D01*
X56792857Y-25852381D02*
X56792857Y-24852381D01*
X57173810Y-24852381D01*
X57269048Y-24900000D01*
X57316667Y-24947619D01*
X57364286Y-25042857D01*
X57364286Y-25185714D01*
X57316667Y-25280952D01*
X57269048Y-25328571D01*
X57173810Y-25376190D01*
X56792857Y-25376190D01*
X58316667Y-25852381D02*
X57745238Y-25852381D01*
X58030952Y-25852381D02*
X58030952Y-24852381D01*
X57935714Y-24995238D01*
X57840476Y-25090476D01*
X57745238Y-25138095D01*
X66548095Y-17867381D02*
X66548095Y-18676905D01*
X66595714Y-18772143D01*
X66643333Y-18819762D01*
X66738571Y-18867381D01*
X66929048Y-18867381D01*
X67024286Y-18819762D01*
X67071905Y-18772143D01*
X67119524Y-18676905D01*
X67119524Y-17867381D01*
X68024286Y-17867381D02*
X67833809Y-17867381D01*
X67738571Y-17915000D01*
X67690952Y-17962619D01*
X67595714Y-18105476D01*
X67548095Y-18295952D01*
X67548095Y-18676905D01*
X67595714Y-18772143D01*
X67643333Y-18819762D01*
X67738571Y-18867381D01*
X67929048Y-18867381D01*
X68024286Y-18819762D01*
X68071905Y-18772143D01*
X68119524Y-18676905D01*
X68119524Y-18438810D01*
X68071905Y-18343571D01*
X68024286Y-18295952D01*
X67929048Y-18248333D01*
X67738571Y-18248333D01*
X67643333Y-18295952D01*
X67595714Y-18343571D01*
X67548095Y-18438810D01*
X92543334Y-25757143D02*
X92495715Y-25804762D01*
X92352858Y-25852381D01*
X92257620Y-25852381D01*
X92114762Y-25804762D01*
X92019524Y-25709524D01*
X91971905Y-25614286D01*
X91924286Y-25423810D01*
X91924286Y-25280952D01*
X91971905Y-25090476D01*
X92019524Y-24995238D01*
X92114762Y-24900000D01*
X92257620Y-24852381D01*
X92352858Y-24852381D01*
X92495715Y-24900000D01*
X92543334Y-24947619D01*
X93448096Y-24852381D02*
X92971905Y-24852381D01*
X92924286Y-25328571D01*
X92971905Y-25280952D01*
X93067143Y-25233333D01*
X93305239Y-25233333D01*
X93400477Y-25280952D01*
X93448096Y-25328571D01*
X93495715Y-25423810D01*
X93495715Y-25661905D01*
X93448096Y-25757143D01*
X93400477Y-25804762D01*
X93305239Y-25852381D01*
X93067143Y-25852381D01*
X92971905Y-25804762D01*
X92924286Y-25757143D01*
X90035239Y-21375714D02*
X90035239Y-22042381D01*
X89797143Y-20994762D02*
X89559048Y-21709048D01*
X90178096Y-21709048D01*
X90559048Y-21947143D02*
X90606667Y-21994762D01*
X90559048Y-22042381D01*
X90511429Y-21994762D01*
X90559048Y-21947143D01*
X90559048Y-22042381D01*
X90940000Y-21042381D02*
X91606667Y-21042381D01*
X91178095Y-22042381D01*
X91987619Y-21375714D02*
X91987619Y-22042381D01*
X91987619Y-21470952D02*
X92035238Y-21423333D01*
X92130476Y-21375714D01*
X92273334Y-21375714D01*
X92368572Y-21423333D01*
X92416191Y-21518571D01*
X92416191Y-22042381D01*
X93225715Y-21518571D02*
X92892381Y-21518571D01*
X92892381Y-22042381D02*
X92892381Y-21042381D01*
X93368572Y-21042381D01*
X47982143Y-29376666D02*
X48029762Y-29424285D01*
X48077381Y-29567142D01*
X48077381Y-29662380D01*
X48029762Y-29805238D01*
X47934524Y-29900476D01*
X47839286Y-29948095D01*
X47648810Y-29995714D01*
X47505952Y-29995714D01*
X47315476Y-29948095D01*
X47220238Y-29900476D01*
X47125000Y-29805238D01*
X47077381Y-29662380D01*
X47077381Y-29567142D01*
X47125000Y-29424285D01*
X47172619Y-29376666D01*
X47077381Y-29043333D02*
X47077381Y-28424285D01*
X47458333Y-28757619D01*
X47458333Y-28614761D01*
X47505952Y-28519523D01*
X47553571Y-28471904D01*
X47648810Y-28424285D01*
X47886905Y-28424285D01*
X47982143Y-28471904D01*
X48029762Y-28519523D01*
X48077381Y-28614761D01*
X48077381Y-28900476D01*
X48029762Y-28995714D01*
X47982143Y-29043333D01*
X47982143Y-20486666D02*
X48029762Y-20534285D01*
X48077381Y-20677142D01*
X48077381Y-20772380D01*
X48029762Y-20915238D01*
X47934524Y-21010476D01*
X47839286Y-21058095D01*
X47648810Y-21105714D01*
X47505952Y-21105714D01*
X47315476Y-21058095D01*
X47220238Y-21010476D01*
X47125000Y-20915238D01*
X47077381Y-20772380D01*
X47077381Y-20677142D01*
X47125000Y-20534285D01*
X47172619Y-20486666D01*
X47172619Y-20105714D02*
X47125000Y-20058095D01*
X47077381Y-19962857D01*
X47077381Y-19724761D01*
X47125000Y-19629523D01*
X47172619Y-19581904D01*
X47267857Y-19534285D01*
X47363095Y-19534285D01*
X47505952Y-19581904D01*
X48077381Y-20153333D01*
X48077381Y-19534285D01*
X49982381Y-25836428D02*
X49982381Y-26407857D01*
X49982381Y-26122143D02*
X48982381Y-26122143D01*
X49125238Y-26217381D01*
X49220476Y-26312619D01*
X49268095Y-26407857D01*
X49410952Y-25265000D02*
X49363333Y-25360238D01*
X49315714Y-25407857D01*
X49220476Y-25455476D01*
X49172857Y-25455476D01*
X49077619Y-25407857D01*
X49030000Y-25360238D01*
X48982381Y-25265000D01*
X48982381Y-25074523D01*
X49030000Y-24979285D01*
X49077619Y-24931666D01*
X49172857Y-24884047D01*
X49220476Y-24884047D01*
X49315714Y-24931666D01*
X49363333Y-24979285D01*
X49410952Y-25074523D01*
X49410952Y-25265000D01*
X49458571Y-25360238D01*
X49506190Y-25407857D01*
X49601429Y-25455476D01*
X49791905Y-25455476D01*
X49887143Y-25407857D01*
X49934762Y-25360238D01*
X49982381Y-25265000D01*
X49982381Y-25074523D01*
X49934762Y-24979285D01*
X49887143Y-24931666D01*
X49791905Y-24884047D01*
X49601429Y-24884047D01*
X49506190Y-24931666D01*
X49458571Y-24979285D01*
X49410952Y-25074523D01*
X49315714Y-24455476D02*
X50315714Y-24455476D01*
X49363333Y-24455476D02*
X49315714Y-24360238D01*
X49315714Y-24169761D01*
X49363333Y-24074523D01*
X49410952Y-24026904D01*
X49506190Y-23979285D01*
X49791905Y-23979285D01*
X49887143Y-24026904D01*
X49934762Y-24074523D01*
X49982381Y-24169761D01*
X49982381Y-24360238D01*
X49934762Y-24455476D01*
X49458571Y-23217380D02*
X49458571Y-23550714D01*
X49982381Y-23550714D02*
X48982381Y-23550714D01*
X48982381Y-23074523D01*
X86828334Y-35917143D02*
X86780715Y-35964762D01*
X86637858Y-36012381D01*
X86542620Y-36012381D01*
X86399762Y-35964762D01*
X86304524Y-35869524D01*
X86256905Y-35774286D01*
X86209286Y-35583810D01*
X86209286Y-35440952D01*
X86256905Y-35250476D01*
X86304524Y-35155238D01*
X86399762Y-35060000D01*
X86542620Y-35012381D01*
X86637858Y-35012381D01*
X86780715Y-35060000D01*
X86828334Y-35107619D01*
X87685477Y-35345714D02*
X87685477Y-36012381D01*
X87447381Y-34964762D02*
X87209286Y-35679048D01*
X87828334Y-35679048D01*
X83224762Y-36012381D02*
X82653333Y-36012381D01*
X82939047Y-36012381D02*
X82939047Y-35012381D01*
X82843809Y-35155238D01*
X82748571Y-35250476D01*
X82653333Y-35298095D01*
X84081905Y-35345714D02*
X84081905Y-36012381D01*
X83653333Y-35345714D02*
X83653333Y-35869524D01*
X83700952Y-35964762D01*
X83796190Y-36012381D01*
X83939048Y-36012381D01*
X84034286Y-35964762D01*
X84081905Y-35917143D01*
X84891429Y-35488571D02*
X84558095Y-35488571D01*
X84558095Y-36012381D02*
X84558095Y-35012381D01*
X85034286Y-35012381D01*
X30948334Y-37822143D02*
X30900715Y-37869762D01*
X30757858Y-37917381D01*
X30662620Y-37917381D01*
X30519762Y-37869762D01*
X30424524Y-37774524D01*
X30376905Y-37679286D01*
X30329286Y-37488810D01*
X30329286Y-37345952D01*
X30376905Y-37155476D01*
X30424524Y-37060238D01*
X30519762Y-36965000D01*
X30662620Y-36917381D01*
X30757858Y-36917381D01*
X30900715Y-36965000D01*
X30948334Y-37012619D01*
X31900715Y-37917381D02*
X31329286Y-37917381D01*
X31615000Y-37917381D02*
X31615000Y-36917381D01*
X31519762Y-37060238D01*
X31424524Y-37155476D01*
X31329286Y-37203095D01*
X38774762Y-37917381D02*
X38203333Y-37917381D01*
X38489047Y-37917381D02*
X38489047Y-36917381D01*
X38393809Y-37060238D01*
X38298571Y-37155476D01*
X38203333Y-37203095D01*
X39631905Y-37250714D02*
X39631905Y-37917381D01*
X39203333Y-37250714D02*
X39203333Y-37774524D01*
X39250952Y-37869762D01*
X39346190Y-37917381D01*
X39489048Y-37917381D01*
X39584286Y-37869762D01*
X39631905Y-37822143D01*
X40441429Y-37393571D02*
X40108095Y-37393571D01*
X40108095Y-37917381D02*
X40108095Y-36917381D01*
X40584286Y-36917381D01*
X41886190Y-28416191D02*
X42362381Y-28416191D01*
X41362381Y-28749524D02*
X41886190Y-28416191D01*
X41362381Y-28082857D01*
X42362381Y-27225714D02*
X42362381Y-27797143D01*
X42362381Y-27511429D02*
X41362381Y-27511429D01*
X41505238Y-27606667D01*
X41600476Y-27701905D01*
X41648095Y-27797143D01*
X42362381Y-25820476D02*
X42362381Y-26391905D01*
X42362381Y-26106191D02*
X41362381Y-26106191D01*
X41505238Y-26201429D01*
X41600476Y-26296667D01*
X41648095Y-26391905D01*
X41362381Y-24963333D02*
X41362381Y-25153810D01*
X41410000Y-25249048D01*
X41457619Y-25296667D01*
X41600476Y-25391905D01*
X41790952Y-25439524D01*
X42171905Y-25439524D01*
X42267143Y-25391905D01*
X42314762Y-25344286D01*
X42362381Y-25249048D01*
X42362381Y-25058571D01*
X42314762Y-24963333D01*
X42267143Y-24915714D01*
X42171905Y-24868095D01*
X41933810Y-24868095D01*
X41838571Y-24915714D01*
X41790952Y-24963333D01*
X41743333Y-25058571D01*
X41743333Y-25249048D01*
X41790952Y-25344286D01*
X41838571Y-25391905D01*
X41933810Y-25439524D01*
X42362381Y-24439524D02*
X41362381Y-24439524D01*
X42076667Y-24106190D01*
X41362381Y-23772857D01*
X42362381Y-23772857D01*
X42362381Y-23296667D02*
X41362381Y-23296667D01*
X41838571Y-23296667D02*
X41838571Y-22725238D01*
X42362381Y-22725238D02*
X41362381Y-22725238D01*
X41695714Y-22344286D02*
X41695714Y-21820476D01*
X42362381Y-22344286D01*
X42362381Y-21820476D01*
X81153095Y-21042381D02*
X81153095Y-21851905D01*
X81200714Y-21947143D01*
X81248333Y-21994762D01*
X81343571Y-22042381D01*
X81534048Y-22042381D01*
X81629286Y-21994762D01*
X81676905Y-21947143D01*
X81724524Y-21851905D01*
X81724524Y-21042381D01*
X82676905Y-21042381D02*
X82200714Y-21042381D01*
X82153095Y-21518571D01*
X82200714Y-21470952D01*
X82295952Y-21423333D01*
X82534048Y-21423333D01*
X82629286Y-21470952D01*
X82676905Y-21518571D01*
X82724524Y-21613810D01*
X82724524Y-21851905D01*
X82676905Y-21947143D01*
X82629286Y-21994762D01*
X82534048Y-22042381D01*
X82295952Y-22042381D01*
X82200714Y-21994762D01*
X82153095Y-21947143D01*
X83328095Y-21042381D02*
X83994762Y-21042381D01*
X83566190Y-22042381D01*
X84518571Y-21470952D02*
X84423333Y-21423333D01*
X84375714Y-21375714D01*
X84328095Y-21280476D01*
X84328095Y-21232857D01*
X84375714Y-21137619D01*
X84423333Y-21090000D01*
X84518571Y-21042381D01*
X84709048Y-21042381D01*
X84804286Y-21090000D01*
X84851905Y-21137619D01*
X84899524Y-21232857D01*
X84899524Y-21280476D01*
X84851905Y-21375714D01*
X84804286Y-21423333D01*
X84709048Y-21470952D01*
X84518571Y-21470952D01*
X84423333Y-21518571D01*
X84375714Y-21566190D01*
X84328095Y-21661429D01*
X84328095Y-21851905D01*
X84375714Y-21947143D01*
X84423333Y-21994762D01*
X84518571Y-22042381D01*
X84709048Y-22042381D01*
X84804286Y-21994762D01*
X84851905Y-21947143D01*
X84899524Y-21851905D01*
X84899524Y-21661429D01*
X84851905Y-21566190D01*
X84804286Y-21518571D01*
X84709048Y-21470952D01*
X85518571Y-21042381D02*
X85613810Y-21042381D01*
X85709048Y-21090000D01*
X85756667Y-21137619D01*
X85804286Y-21232857D01*
X85851905Y-21423333D01*
X85851905Y-21661429D01*
X85804286Y-21851905D01*
X85756667Y-21947143D01*
X85709048Y-21994762D01*
X85613810Y-22042381D01*
X85518571Y-22042381D01*
X85423333Y-21994762D01*
X85375714Y-21947143D01*
X85328095Y-21851905D01*
X85280476Y-21661429D01*
X85280476Y-21423333D01*
X85328095Y-21232857D01*
X85375714Y-21137619D01*
X85423333Y-21090000D01*
X85518571Y-21042381D01*
X86756667Y-21042381D02*
X86280476Y-21042381D01*
X86232857Y-21518571D01*
X86280476Y-21470952D01*
X86375714Y-21423333D01*
X86613810Y-21423333D01*
X86709048Y-21470952D01*
X86756667Y-21518571D01*
X86804286Y-21613810D01*
X86804286Y-21851905D01*
X86756667Y-21947143D01*
X86709048Y-21994762D01*
X86613810Y-22042381D01*
X86375714Y-22042381D01*
X86280476Y-21994762D01*
X86232857Y-21947143D01*
X96353334Y-31567381D02*
X96020000Y-31091190D01*
X95781905Y-31567381D02*
X95781905Y-30567381D01*
X96162858Y-30567381D01*
X96258096Y-30615000D01*
X96305715Y-30662619D01*
X96353334Y-30757857D01*
X96353334Y-30900714D01*
X96305715Y-30995952D01*
X96258096Y-31043571D01*
X96162858Y-31091190D01*
X95781905Y-31091190D01*
X97258096Y-30567381D02*
X96781905Y-30567381D01*
X96734286Y-31043571D01*
X96781905Y-30995952D01*
X96877143Y-30948333D01*
X97115239Y-30948333D01*
X97210477Y-30995952D01*
X97258096Y-31043571D01*
X97305715Y-31138810D01*
X97305715Y-31376905D01*
X97258096Y-31472143D01*
X97210477Y-31519762D01*
X97115239Y-31567381D01*
X96877143Y-31567381D01*
X96781905Y-31519762D01*
X96734286Y-31472143D01*
X96234286Y-24217381D02*
X96043809Y-24217381D01*
X95948571Y-24265000D01*
X95900952Y-24312619D01*
X95805714Y-24455476D01*
X95758095Y-24645952D01*
X95758095Y-25026905D01*
X95805714Y-25122143D01*
X95853333Y-25169762D01*
X95948571Y-25217381D01*
X96139048Y-25217381D01*
X96234286Y-25169762D01*
X96281905Y-25122143D01*
X96329524Y-25026905D01*
X96329524Y-24788810D01*
X96281905Y-24693571D01*
X96234286Y-24645952D01*
X96139048Y-24598333D01*
X95948571Y-24598333D01*
X95853333Y-24645952D01*
X95805714Y-24693571D01*
X95758095Y-24788810D01*
X96948571Y-24217381D02*
X97043810Y-24217381D01*
X97139048Y-24265000D01*
X97186667Y-24312619D01*
X97234286Y-24407857D01*
X97281905Y-24598333D01*
X97281905Y-24836429D01*
X97234286Y-25026905D01*
X97186667Y-25122143D01*
X97139048Y-25169762D01*
X97043810Y-25217381D01*
X96948571Y-25217381D01*
X96853333Y-25169762D01*
X96805714Y-25122143D01*
X96758095Y-25026905D01*
X96710476Y-24836429D01*
X96710476Y-24598333D01*
X96758095Y-24407857D01*
X96805714Y-24312619D01*
X96853333Y-24265000D01*
X96948571Y-24217381D01*
X101433334Y-31567381D02*
X101100000Y-31091190D01*
X100861905Y-31567381D02*
X100861905Y-30567381D01*
X101242858Y-30567381D01*
X101338096Y-30615000D01*
X101385715Y-30662619D01*
X101433334Y-30757857D01*
X101433334Y-30900714D01*
X101385715Y-30995952D01*
X101338096Y-31043571D01*
X101242858Y-31091190D01*
X100861905Y-31091190D01*
X102290477Y-30900714D02*
X102290477Y-31567381D01*
X102052381Y-30519762D02*
X101814286Y-31234048D01*
X102433334Y-31234048D01*
X101314286Y-24217381D02*
X101123809Y-24217381D01*
X101028571Y-24265000D01*
X100980952Y-24312619D01*
X100885714Y-24455476D01*
X100838095Y-24645952D01*
X100838095Y-25026905D01*
X100885714Y-25122143D01*
X100933333Y-25169762D01*
X101028571Y-25217381D01*
X101219048Y-25217381D01*
X101314286Y-25169762D01*
X101361905Y-25122143D01*
X101409524Y-25026905D01*
X101409524Y-24788810D01*
X101361905Y-24693571D01*
X101314286Y-24645952D01*
X101219048Y-24598333D01*
X101028571Y-24598333D01*
X100933333Y-24645952D01*
X100885714Y-24693571D01*
X100838095Y-24788810D01*
X102028571Y-24217381D02*
X102123810Y-24217381D01*
X102219048Y-24265000D01*
X102266667Y-24312619D01*
X102314286Y-24407857D01*
X102361905Y-24598333D01*
X102361905Y-24836429D01*
X102314286Y-25026905D01*
X102266667Y-25122143D01*
X102219048Y-25169762D01*
X102123810Y-25217381D01*
X102028571Y-25217381D01*
X101933333Y-25169762D01*
X101885714Y-25122143D01*
X101838095Y-25026905D01*
X101790476Y-24836429D01*
X101790476Y-24598333D01*
X101838095Y-24407857D01*
X101885714Y-24312619D01*
X101933333Y-24265000D01*
X102028571Y-24217381D01*
X83653334Y-23312381D02*
X83320000Y-22836190D01*
X83081905Y-23312381D02*
X83081905Y-22312381D01*
X83462858Y-22312381D01*
X83558096Y-22360000D01*
X83605715Y-22407619D01*
X83653334Y-22502857D01*
X83653334Y-22645714D01*
X83605715Y-22740952D01*
X83558096Y-22788571D01*
X83462858Y-22836190D01*
X83081905Y-22836190D01*
X83986667Y-22312381D02*
X84605715Y-22312381D01*
X84272381Y-22693333D01*
X84415239Y-22693333D01*
X84510477Y-22740952D01*
X84558096Y-22788571D01*
X84605715Y-22883810D01*
X84605715Y-23121905D01*
X84558096Y-23217143D01*
X84510477Y-23264762D01*
X84415239Y-23312381D01*
X84129524Y-23312381D01*
X84034286Y-23264762D01*
X83986667Y-23217143D01*
X82161191Y-23915714D02*
X82161191Y-24582381D01*
X81923095Y-23534762D02*
X81685000Y-24249048D01*
X82304048Y-24249048D01*
X82685000Y-24487143D02*
X82732619Y-24534762D01*
X82685000Y-24582381D01*
X82637381Y-24534762D01*
X82685000Y-24487143D01*
X82685000Y-24582381D01*
X83065952Y-23582381D02*
X83732619Y-23582381D01*
X83304047Y-24582381D01*
X84113571Y-24582381D02*
X84113571Y-23582381D01*
X84685000Y-24582381D02*
X84256428Y-24010952D01*
X84685000Y-23582381D02*
X84113571Y-24153810D01*
X80462381Y-33186666D02*
X79986190Y-33520000D01*
X80462381Y-33758095D02*
X79462381Y-33758095D01*
X79462381Y-33377142D01*
X79510000Y-33281904D01*
X79557619Y-33234285D01*
X79652857Y-33186666D01*
X79795714Y-33186666D01*
X79890952Y-33234285D01*
X79938571Y-33281904D01*
X79986190Y-33377142D01*
X79986190Y-33758095D01*
X79557619Y-32805714D02*
X79510000Y-32758095D01*
X79462381Y-32662857D01*
X79462381Y-32424761D01*
X79510000Y-32329523D01*
X79557619Y-32281904D01*
X79652857Y-32234285D01*
X79748095Y-32234285D01*
X79890952Y-32281904D01*
X80462381Y-32853333D01*
X80462381Y-32234285D01*
X79462381Y-28590714D02*
X79462381Y-27971666D01*
X79843333Y-28305000D01*
X79843333Y-28162142D01*
X79890952Y-28066904D01*
X79938571Y-28019285D01*
X80033810Y-27971666D01*
X80271905Y-27971666D01*
X80367143Y-28019285D01*
X80414762Y-28066904D01*
X80462381Y-28162142D01*
X80462381Y-28447857D01*
X80414762Y-28543095D01*
X80367143Y-28590714D01*
X79462381Y-27638333D02*
X79462381Y-27019285D01*
X79843333Y-27352619D01*
X79843333Y-27209761D01*
X79890952Y-27114523D01*
X79938571Y-27066904D01*
X80033810Y-27019285D01*
X80271905Y-27019285D01*
X80367143Y-27066904D01*
X80414762Y-27114523D01*
X80462381Y-27209761D01*
X80462381Y-27495476D01*
X80414762Y-27590714D01*
X80367143Y-27638333D01*
X79462381Y-26400238D02*
X79462381Y-26304999D01*
X79510000Y-26209761D01*
X79557619Y-26162142D01*
X79652857Y-26114523D01*
X79843333Y-26066904D01*
X80081429Y-26066904D01*
X80271905Y-26114523D01*
X80367143Y-26162142D01*
X80414762Y-26209761D01*
X80462381Y-26304999D01*
X80462381Y-26400238D01*
X80414762Y-26495476D01*
X80367143Y-26543095D01*
X80271905Y-26590714D01*
X80081429Y-26638333D01*
X79843333Y-26638333D01*
X79652857Y-26590714D01*
X79557619Y-26543095D01*
X79510000Y-26495476D01*
X79462381Y-26400238D01*
X66492381Y-24296666D02*
X66016190Y-24630000D01*
X66492381Y-24868095D02*
X65492381Y-24868095D01*
X65492381Y-24487142D01*
X65540000Y-24391904D01*
X65587619Y-24344285D01*
X65682857Y-24296666D01*
X65825714Y-24296666D01*
X65920952Y-24344285D01*
X65968571Y-24391904D01*
X66016190Y-24487142D01*
X66016190Y-24868095D01*
X66492381Y-23344285D02*
X66492381Y-23915714D01*
X66492381Y-23630000D02*
X65492381Y-23630000D01*
X65635238Y-23725238D01*
X65730476Y-23820476D01*
X65778095Y-23915714D01*
X68397381Y-24161666D02*
X68397381Y-24733095D01*
X68397381Y-24447381D02*
X67397381Y-24447381D01*
X67540238Y-24542619D01*
X67635476Y-24637857D01*
X67683095Y-24733095D01*
X67397381Y-23542619D02*
X67397381Y-23447380D01*
X67445000Y-23352142D01*
X67492619Y-23304523D01*
X67587857Y-23256904D01*
X67778333Y-23209285D01*
X68016429Y-23209285D01*
X68206905Y-23256904D01*
X68302143Y-23304523D01*
X68349762Y-23352142D01*
X68397381Y-23447380D01*
X68397381Y-23542619D01*
X68349762Y-23637857D01*
X68302143Y-23685476D01*
X68206905Y-23733095D01*
X68016429Y-23780714D01*
X67778333Y-23780714D01*
X67587857Y-23733095D01*
X67492619Y-23685476D01*
X67445000Y-23637857D01*
X67397381Y-23542619D01*
X67397381Y-22590238D02*
X67397381Y-22494999D01*
X67445000Y-22399761D01*
X67492619Y-22352142D01*
X67587857Y-22304523D01*
X67778333Y-22256904D01*
X68016429Y-22256904D01*
X68206905Y-22304523D01*
X68302143Y-22352142D01*
X68349762Y-22399761D01*
X68397381Y-22494999D01*
X68397381Y-22590238D01*
X68349762Y-22685476D01*
X68302143Y-22733095D01*
X68206905Y-22780714D01*
X68016429Y-22828333D01*
X67778333Y-22828333D01*
X67587857Y-22780714D01*
X67492619Y-22733095D01*
X67445000Y-22685476D01*
X67397381Y-22590238D01*
X77343095Y-26122381D02*
X77343095Y-26931905D01*
X77390714Y-27027143D01*
X77438333Y-27074762D01*
X77533571Y-27122381D01*
X77724048Y-27122381D01*
X77819286Y-27074762D01*
X77866905Y-27027143D01*
X77914524Y-26931905D01*
X77914524Y-26122381D01*
X78295476Y-26122381D02*
X78914524Y-26122381D01*
X78581190Y-26503333D01*
X78724048Y-26503333D01*
X78819286Y-26550952D01*
X78866905Y-26598571D01*
X78914524Y-26693810D01*
X78914524Y-26931905D01*
X78866905Y-27027143D01*
X78819286Y-27074762D01*
X78724048Y-27122381D01*
X78438333Y-27122381D01*
X78343095Y-27074762D01*
X78295476Y-27027143D01*
X70993095Y-28662381D02*
X70993095Y-29471905D01*
X71040714Y-29567143D01*
X71088333Y-29614762D01*
X71183571Y-29662381D01*
X71374048Y-29662381D01*
X71469286Y-29614762D01*
X71516905Y-29567143D01*
X71564524Y-29471905D01*
X71564524Y-28662381D01*
X71993095Y-28757619D02*
X72040714Y-28710000D01*
X72135952Y-28662381D01*
X72374048Y-28662381D01*
X72469286Y-28710000D01*
X72516905Y-28757619D01*
X72564524Y-28852857D01*
X72564524Y-28948095D01*
X72516905Y-29090952D01*
X71945476Y-29662381D01*
X72564524Y-29662381D01*
X71834762Y-27392381D02*
X72406191Y-27392381D01*
X72120476Y-28392381D02*
X72120476Y-27392381D01*
X73215715Y-28392381D02*
X72739524Y-28392381D01*
X72739524Y-27392381D01*
X73549048Y-28392381D02*
X73549048Y-27392381D01*
X73930001Y-27392381D01*
X74025239Y-27440000D01*
X74072858Y-27487619D01*
X74120477Y-27582857D01*
X74120477Y-27725714D01*
X74072858Y-27820952D01*
X74025239Y-27868571D01*
X73930001Y-27916190D01*
X73549048Y-27916190D01*
X74501429Y-27487619D02*
X74549048Y-27440000D01*
X74644286Y-27392381D01*
X74882382Y-27392381D01*
X74977620Y-27440000D01*
X75025239Y-27487619D01*
X75072858Y-27582857D01*
X75072858Y-27678095D01*
X75025239Y-27820952D01*
X74453810Y-28392381D01*
X75072858Y-28392381D01*
X75406191Y-27392381D02*
X76025239Y-27392381D01*
X75691905Y-27773333D01*
X75834763Y-27773333D01*
X75930001Y-27820952D01*
X75977620Y-27868571D01*
X76025239Y-27963810D01*
X76025239Y-28201905D01*
X75977620Y-28297143D01*
X75930001Y-28344762D01*
X75834763Y-28392381D01*
X75549048Y-28392381D01*
X75453810Y-28344762D01*
X75406191Y-28297143D01*
X76882382Y-27392381D02*
X76691905Y-27392381D01*
X76596667Y-27440000D01*
X76549048Y-27487619D01*
X76453810Y-27630476D01*
X76406191Y-27820952D01*
X76406191Y-28201905D01*
X76453810Y-28297143D01*
X76501429Y-28344762D01*
X76596667Y-28392381D01*
X76787144Y-28392381D01*
X76882382Y-28344762D01*
X76930001Y-28297143D01*
X76977620Y-28201905D01*
X76977620Y-27963810D01*
X76930001Y-27868571D01*
X76882382Y-27820952D01*
X76787144Y-27773333D01*
X76596667Y-27773333D01*
X76501429Y-27820952D01*
X76453810Y-27868571D01*
X76406191Y-27963810D01*
X77930001Y-28392381D02*
X77358572Y-28392381D01*
X77644286Y-28392381D02*
X77644286Y-27392381D01*
X77549048Y-27535238D01*
X77453810Y-27630476D01*
X77358572Y-27678095D01*
X90701905Y-33472381D02*
X90701905Y-32472381D01*
X90940000Y-32472381D01*
X91082858Y-32520000D01*
X91178096Y-32615238D01*
X91225715Y-32710476D01*
X91273334Y-32900952D01*
X91273334Y-33043810D01*
X91225715Y-33234286D01*
X91178096Y-33329524D01*
X91082858Y-33424762D01*
X90940000Y-33472381D01*
X90701905Y-33472381D01*
X92225715Y-33472381D02*
X91654286Y-33472381D01*
X91940000Y-33472381D02*
X91940000Y-32472381D01*
X91844762Y-32615238D01*
X91749524Y-32710476D01*
X91654286Y-32758095D01*
X87717381Y-32511905D02*
X88526905Y-32511905D01*
X88622143Y-32464286D01*
X88669762Y-32416667D01*
X88717381Y-32321429D01*
X88717381Y-32130952D01*
X88669762Y-32035714D01*
X88622143Y-31988095D01*
X88526905Y-31940476D01*
X87717381Y-31940476D01*
X88050714Y-31035714D02*
X88717381Y-31035714D01*
X87669762Y-31273810D02*
X88384048Y-31511905D01*
X88384048Y-30892857D01*
X89987381Y-31178095D02*
X88987381Y-31178095D01*
X89701667Y-30844761D01*
X88987381Y-30511428D01*
X89987381Y-30511428D01*
X89892143Y-29463809D02*
X89939762Y-29511428D01*
X89987381Y-29654285D01*
X89987381Y-29749523D01*
X89939762Y-29892381D01*
X89844524Y-29987619D01*
X89749286Y-30035238D01*
X89558810Y-30082857D01*
X89415952Y-30082857D01*
X89225476Y-30035238D01*
X89130238Y-29987619D01*
X89035000Y-29892381D01*
X88987381Y-29749523D01*
X88987381Y-29654285D01*
X89035000Y-29511428D01*
X89082619Y-29463809D01*
X89987381Y-29035238D02*
X88987381Y-29035238D01*
X88987381Y-28654285D01*
X89035000Y-28559047D01*
X89082619Y-28511428D01*
X89177857Y-28463809D01*
X89320714Y-28463809D01*
X89415952Y-28511428D01*
X89463571Y-28559047D01*
X89511190Y-28654285D01*
X89511190Y-29035238D01*
X89082619Y-28082857D02*
X89035000Y-28035238D01*
X88987381Y-27940000D01*
X88987381Y-27701904D01*
X89035000Y-27606666D01*
X89082619Y-27559047D01*
X89177857Y-27511428D01*
X89273095Y-27511428D01*
X89415952Y-27559047D01*
X89987381Y-28130476D01*
X89987381Y-27511428D01*
X88987381Y-26606666D02*
X88987381Y-27082857D01*
X89463571Y-27130476D01*
X89415952Y-27082857D01*
X89368333Y-26987619D01*
X89368333Y-26749523D01*
X89415952Y-26654285D01*
X89463571Y-26606666D01*
X89558810Y-26559047D01*
X89796905Y-26559047D01*
X89892143Y-26606666D01*
X89939762Y-26654285D01*
X89987381Y-26749523D01*
X89987381Y-26987619D01*
X89939762Y-27082857D01*
X89892143Y-27130476D01*
X88987381Y-25654285D02*
X88987381Y-26130476D01*
X89463571Y-26178095D01*
X89415952Y-26130476D01*
X89368333Y-26035238D01*
X89368333Y-25797142D01*
X89415952Y-25701904D01*
X89463571Y-25654285D01*
X89558810Y-25606666D01*
X89796905Y-25606666D01*
X89892143Y-25654285D01*
X89939762Y-25701904D01*
X89987381Y-25797142D01*
X89987381Y-26035238D01*
X89939762Y-26130476D01*
X89892143Y-26178095D01*
X89987381Y-24654285D02*
X89987381Y-25225714D01*
X89987381Y-24940000D02*
X88987381Y-24940000D01*
X89130238Y-25035238D01*
X89225476Y-25130476D01*
X89273095Y-25225714D01*
X100766667Y-37552381D02*
X100766667Y-38266667D01*
X100719047Y-38409524D01*
X100623809Y-38504762D01*
X100480952Y-38552381D01*
X100385714Y-38552381D01*
X101242857Y-38552381D02*
X101242857Y-37552381D01*
X101623810Y-37552381D01*
X101719048Y-37600000D01*
X101766667Y-37647619D01*
X101814286Y-37742857D01*
X101814286Y-37885714D01*
X101766667Y-37980952D01*
X101719048Y-38028571D01*
X101623810Y-38076190D01*
X101242857Y-38076190D01*
X102147619Y-37552381D02*
X102766667Y-37552381D01*
X102433333Y-37933333D01*
X102576191Y-37933333D01*
X102671429Y-37980952D01*
X102719048Y-38028571D01*
X102766667Y-38123810D01*
X102766667Y-38361905D01*
X102719048Y-38457143D01*
X102671429Y-38504762D01*
X102576191Y-38552381D01*
X102290476Y-38552381D01*
X102195238Y-38504762D01*
X102147619Y-38457143D01*
X95512381Y-35647381D02*
X96083810Y-35647381D01*
X95798095Y-36647381D02*
X95798095Y-35647381D01*
X96798096Y-36599762D02*
X96702858Y-36647381D01*
X96512381Y-36647381D01*
X96417143Y-36599762D01*
X96369524Y-36504524D01*
X96369524Y-36123571D01*
X96417143Y-36028333D01*
X96512381Y-35980714D01*
X96702858Y-35980714D01*
X96798096Y-36028333D01*
X96845715Y-36123571D01*
X96845715Y-36218810D01*
X96369524Y-36314048D01*
X97274286Y-36647381D02*
X97274286Y-35980714D01*
X97274286Y-36171190D02*
X97321905Y-36075952D01*
X97369524Y-36028333D01*
X97464762Y-35980714D01*
X97560001Y-35980714D01*
X97893334Y-36647381D02*
X97893334Y-35980714D01*
X97893334Y-36075952D02*
X97940953Y-36028333D01*
X98036191Y-35980714D01*
X98179049Y-35980714D01*
X98274287Y-36028333D01*
X98321906Y-36123571D01*
X98321906Y-36647381D01*
X98321906Y-36123571D02*
X98369525Y-36028333D01*
X98464763Y-35980714D01*
X98607620Y-35980714D01*
X98702858Y-36028333D01*
X98750477Y-36123571D01*
X98750477Y-36647381D01*
X99226667Y-36647381D02*
X99226667Y-35980714D01*
X99226667Y-35647381D02*
X99179048Y-35695000D01*
X99226667Y-35742619D01*
X99274286Y-35695000D01*
X99226667Y-35647381D01*
X99226667Y-35742619D01*
X99702857Y-35980714D02*
X99702857Y-36647381D01*
X99702857Y-36075952D02*
X99750476Y-36028333D01*
X99845714Y-35980714D01*
X99988572Y-35980714D01*
X100083810Y-36028333D01*
X100131429Y-36123571D01*
X100131429Y-36647381D01*
X101036191Y-36647381D02*
X101036191Y-36123571D01*
X100988572Y-36028333D01*
X100893334Y-35980714D01*
X100702857Y-35980714D01*
X100607619Y-36028333D01*
X101036191Y-36599762D02*
X100940953Y-36647381D01*
X100702857Y-36647381D01*
X100607619Y-36599762D01*
X100560000Y-36504524D01*
X100560000Y-36409286D01*
X100607619Y-36314048D01*
X100702857Y-36266429D01*
X100940953Y-36266429D01*
X101036191Y-36218810D01*
X101369524Y-35980714D02*
X101750476Y-35980714D01*
X101512381Y-35647381D02*
X101512381Y-36504524D01*
X101560000Y-36599762D01*
X101655238Y-36647381D01*
X101750476Y-36647381D01*
X102464763Y-36599762D02*
X102369525Y-36647381D01*
X102179048Y-36647381D01*
X102083810Y-36599762D01*
X102036191Y-36504524D01*
X102036191Y-36123571D01*
X102083810Y-36028333D01*
X102179048Y-35980714D01*
X102369525Y-35980714D01*
X102464763Y-36028333D01*
X102512382Y-36123571D01*
X102512382Y-36218810D01*
X102036191Y-36314048D01*
X95686667Y-17232381D02*
X95686667Y-17946667D01*
X95639047Y-18089524D01*
X95543809Y-18184762D01*
X95400952Y-18232381D01*
X95305714Y-18232381D01*
X96162857Y-18232381D02*
X96162857Y-17232381D01*
X96543810Y-17232381D01*
X96639048Y-17280000D01*
X96686667Y-17327619D01*
X96734286Y-17422857D01*
X96734286Y-17565714D01*
X96686667Y-17660952D01*
X96639048Y-17708571D01*
X96543810Y-17756190D01*
X96162857Y-17756190D01*
X97591429Y-17565714D02*
X97591429Y-18232381D01*
X97353333Y-17184762D02*
X97115238Y-17899048D01*
X97734286Y-17899048D01*
X95139048Y-19613571D02*
X94805714Y-19613571D01*
X94805714Y-20137381D02*
X94805714Y-19137381D01*
X95281905Y-19137381D01*
X95662857Y-20137381D02*
X95662857Y-19470714D01*
X95662857Y-19137381D02*
X95615238Y-19185000D01*
X95662857Y-19232619D01*
X95710476Y-19185000D01*
X95662857Y-19137381D01*
X95662857Y-19232619D01*
X96281904Y-20137381D02*
X96186666Y-20089762D01*
X96139047Y-19994524D01*
X96139047Y-19137381D01*
X96520000Y-19470714D02*
X96900952Y-19470714D01*
X96662857Y-19137381D02*
X96662857Y-19994524D01*
X96710476Y-20089762D01*
X96805714Y-20137381D01*
X96900952Y-20137381D01*
X97615239Y-20089762D02*
X97520001Y-20137381D01*
X97329524Y-20137381D01*
X97234286Y-20089762D01*
X97186667Y-19994524D01*
X97186667Y-19613571D01*
X97234286Y-19518333D01*
X97329524Y-19470714D01*
X97520001Y-19470714D01*
X97615239Y-19518333D01*
X97662858Y-19613571D01*
X97662858Y-19708810D01*
X97186667Y-19804048D01*
X98091429Y-20137381D02*
X98091429Y-19470714D01*
X98091429Y-19661190D02*
X98139048Y-19565952D01*
X98186667Y-19518333D01*
X98281905Y-19470714D01*
X98377144Y-19470714D01*
X95686667Y-37552381D02*
X95686667Y-38266667D01*
X95639047Y-38409524D01*
X95543809Y-38504762D01*
X95400952Y-38552381D01*
X95305714Y-38552381D01*
X96162857Y-38552381D02*
X96162857Y-37552381D01*
X96543810Y-37552381D01*
X96639048Y-37600000D01*
X96686667Y-37647619D01*
X96734286Y-37742857D01*
X96734286Y-37885714D01*
X96686667Y-37980952D01*
X96639048Y-38028571D01*
X96543810Y-38076190D01*
X96162857Y-38076190D01*
X97639048Y-37552381D02*
X97162857Y-37552381D01*
X97115238Y-38028571D01*
X97162857Y-37980952D01*
X97258095Y-37933333D01*
X97496191Y-37933333D01*
X97591429Y-37980952D01*
X97639048Y-38028571D01*
X97686667Y-38123810D01*
X97686667Y-38361905D01*
X97639048Y-38457143D01*
X97591429Y-38504762D01*
X97496191Y-38552381D01*
X97258095Y-38552381D01*
X97162857Y-38504762D01*
X97115238Y-38457143D01*
X100766667Y-17232381D02*
X100766667Y-17946667D01*
X100719047Y-18089524D01*
X100623809Y-18184762D01*
X100480952Y-18232381D01*
X100385714Y-18232381D01*
X101242857Y-18232381D02*
X101242857Y-17232381D01*
X101623810Y-17232381D01*
X101719048Y-17280000D01*
X101766667Y-17327619D01*
X101814286Y-17422857D01*
X101814286Y-17565714D01*
X101766667Y-17660952D01*
X101719048Y-17708571D01*
X101623810Y-17756190D01*
X101242857Y-17756190D01*
X102671429Y-17232381D02*
X102480952Y-17232381D01*
X102385714Y-17280000D01*
X102338095Y-17327619D01*
X102242857Y-17470476D01*
X102195238Y-17660952D01*
X102195238Y-18041905D01*
X102242857Y-18137143D01*
X102290476Y-18184762D01*
X102385714Y-18232381D01*
X102576191Y-18232381D01*
X102671429Y-18184762D01*
X102719048Y-18137143D01*
X102766667Y-18041905D01*
X102766667Y-17803810D01*
X102719048Y-17708571D01*
X102671429Y-17660952D01*
X102576191Y-17613333D01*
X102385714Y-17613333D01*
X102290476Y-17660952D01*
X102242857Y-17708571D01*
X102195238Y-17803810D01*
X99623809Y-20137381D02*
X99623809Y-19137381D01*
X100004762Y-19137381D01*
X100100000Y-19185000D01*
X100147619Y-19232619D01*
X100195238Y-19327857D01*
X100195238Y-19470714D01*
X100147619Y-19565952D01*
X100100000Y-19613571D01*
X100004762Y-19661190D01*
X99623809Y-19661190D01*
X100766666Y-20137381D02*
X100671428Y-20089762D01*
X100623809Y-20042143D01*
X100576190Y-19946905D01*
X100576190Y-19661190D01*
X100623809Y-19565952D01*
X100671428Y-19518333D01*
X100766666Y-19470714D01*
X100909524Y-19470714D01*
X101004762Y-19518333D01*
X101052381Y-19565952D01*
X101100000Y-19661190D01*
X101100000Y-19946905D01*
X101052381Y-20042143D01*
X101004762Y-20089762D01*
X100909524Y-20137381D01*
X100766666Y-20137381D01*
X101433333Y-19470714D02*
X101623809Y-20137381D01*
X101814286Y-19661190D01*
X102004762Y-20137381D01*
X102195238Y-19470714D01*
X102957143Y-20089762D02*
X102861905Y-20137381D01*
X102671428Y-20137381D01*
X102576190Y-20089762D01*
X102528571Y-19994524D01*
X102528571Y-19613571D01*
X102576190Y-19518333D01*
X102671428Y-19470714D01*
X102861905Y-19470714D01*
X102957143Y-19518333D01*
X103004762Y-19613571D01*
X103004762Y-19708810D01*
X102528571Y-19804048D01*
X103433333Y-20137381D02*
X103433333Y-19470714D01*
X103433333Y-19661190D02*
X103480952Y-19565952D01*
X103528571Y-19518333D01*
X103623809Y-19470714D01*
X103719048Y-19470714D01*
%LPC*%
D14*
X39625000Y-33020000D03*
X39625000Y-31750000D03*
X39625000Y-30480000D03*
X39625000Y-29210000D03*
X39625000Y-27940000D03*
X39625000Y-26670000D03*
X39625000Y-25400000D03*
X39625000Y-24130000D03*
X39625000Y-22860000D03*
X30225000Y-22860000D03*
X30225000Y-24130000D03*
X30225000Y-25400000D03*
X30225000Y-26670000D03*
X30225000Y-27940000D03*
X30225000Y-29210000D03*
X30225000Y-30480000D03*
X30225000Y-31750000D03*
X30225000Y-33020000D03*
D10*
G36*
X55200000Y-33970000D02*
X55200000Y-32070000D01*
X57100000Y-31570000D01*
X57100000Y-34470000D01*
X55200000Y-33970000D01*
X55200000Y-33970000D01*
G37*
G36*
X57200000Y-34470000D02*
X57200000Y-31570000D01*
X59100000Y-32070000D01*
X59100000Y-33970000D01*
X57200000Y-34470000D01*
X57200000Y-34470000D01*
G37*
D15*
X57150000Y-33020000D03*
D10*
G36*
X55200000Y-28890000D02*
X55200000Y-26990000D01*
X57100000Y-26490000D01*
X57100000Y-29390000D01*
X55200000Y-28890000D01*
X55200000Y-28890000D01*
G37*
G36*
X57200000Y-29390000D02*
X57200000Y-26490000D01*
X59100000Y-26990000D01*
X59100000Y-28890000D01*
X57200000Y-29390000D01*
X57200000Y-29390000D01*
G37*
D15*
X57150000Y-27940000D03*
D16*
X71120000Y-19050000D03*
X73660000Y-19050000D03*
X76200000Y-19050000D03*
X78740000Y-19050000D03*
D17*
X89940000Y-23495000D03*
X92940000Y-23495000D03*
D18*
X53340000Y-34290000D03*
D19*
X53340000Y-31750000D03*
X53340000Y-29210000D03*
X53340000Y-26670000D03*
X53340000Y-24130000D03*
X53340000Y-21590000D03*
D20*
X47625000Y-25920000D03*
X47625000Y-27420000D03*
X47625000Y-23610000D03*
X47625000Y-22110000D03*
D21*
X86590000Y-33020000D03*
X83590000Y-33020000D03*
X36425000Y-36195000D03*
X33425000Y-36195000D03*
D22*
X44450000Y-22715000D03*
X44450000Y-26815000D03*
D23*
X86360000Y-19050000D03*
X83820000Y-19050000D03*
X88900000Y-19050000D03*
D24*
X96520000Y-26490000D03*
X96520000Y-29390000D03*
X101600000Y-26490000D03*
X101600000Y-29390000D03*
D25*
X85610000Y-23495000D03*
X87110000Y-23495000D03*
D26*
X80010000Y-29730000D03*
X80010000Y-31230000D03*
X68580000Y-25285000D03*
X68580000Y-26785000D03*
D27*
X71780000Y-22860000D03*
X71780000Y-25400000D03*
X78080000Y-25400000D03*
X78080000Y-24130000D03*
X78080000Y-22860000D03*
X78080000Y-33020000D03*
X78080000Y-30480000D03*
X71780000Y-30480000D03*
X71780000Y-31750000D03*
X71780000Y-33020000D03*
D18*
X106680000Y-31750000D03*
D19*
X106680000Y-29210000D03*
X106680000Y-26670000D03*
X106680000Y-24130000D03*
D18*
X60960000Y-34290000D03*
D19*
X60960000Y-31750000D03*
X60960000Y-29210000D03*
X60960000Y-26670000D03*
X60960000Y-24130000D03*
X60960000Y-21590000D03*
D28*
X20320000Y-34290000D03*
D29*
X17780000Y-34290000D03*
X20320000Y-31750000D03*
X17780000Y-31750000D03*
X20320000Y-29210000D03*
X17780000Y-29210000D03*
X20320000Y-26670000D03*
X17780000Y-26670000D03*
X20320000Y-24130000D03*
X17780000Y-24130000D03*
X20320000Y-21590000D03*
X17780000Y-21590000D03*
D30*
X90490000Y-30711140D03*
X92390000Y-30711140D03*
X91440000Y-27708860D03*
D31*
X82296000Y-26035000D03*
X82296000Y-27305000D03*
X82296000Y-28575000D03*
X82296000Y-29845000D03*
X87884000Y-29845000D03*
X87884000Y-28575000D03*
X87884000Y-27305000D03*
X87884000Y-26035000D03*
D10*
G36*
X99650000Y-34605000D02*
X99650000Y-32705000D01*
X101550000Y-32205000D01*
X101550000Y-35105000D01*
X99650000Y-34605000D01*
X99650000Y-34605000D01*
G37*
G36*
X101650000Y-35105000D02*
X101650000Y-32205000D01*
X103550000Y-32705000D01*
X103550000Y-34605000D01*
X101650000Y-35105000D01*
X101650000Y-35105000D01*
G37*
G36*
X98470000Y-21275000D02*
X98470000Y-23175000D01*
X96570000Y-23675000D01*
X96570000Y-20775000D01*
X98470000Y-21275000D01*
X98470000Y-21275000D01*
G37*
G36*
X96470000Y-20775000D02*
X96470000Y-23675000D01*
X94570000Y-23175000D01*
X94570000Y-21275000D01*
X96470000Y-20775000D01*
X96470000Y-20775000D01*
G37*
G36*
X98470000Y-32705000D02*
X98470000Y-34605000D01*
X96570000Y-35105000D01*
X96570000Y-32205000D01*
X98470000Y-32705000D01*
X98470000Y-32705000D01*
G37*
G36*
X96470000Y-32205000D02*
X96470000Y-35105000D01*
X94570000Y-34605000D01*
X94570000Y-32705000D01*
X96470000Y-32205000D01*
X96470000Y-32205000D01*
G37*
G36*
X103550000Y-21275000D02*
X103550000Y-23175000D01*
X101650000Y-23675000D01*
X101650000Y-20775000D01*
X103550000Y-21275000D01*
X103550000Y-21275000D01*
G37*
G36*
X101550000Y-20775000D02*
X101550000Y-23675000D01*
X99650000Y-23175000D01*
X99650000Y-21275000D01*
X101550000Y-20775000D01*
X101550000Y-20775000D01*
G37*
M02*
