G04 #@! TF.FileFunction,Copper,L1,Top,Signal*
%FSLAX46Y46*%
G04 Gerber Fmt 4.6, Leading zero omitted, Abs format (unit mm)*
G04 Created by KiCad (PCBNEW 4.0.2+e4-6225~38~ubuntu15.10.1-stable) date Do 16 Jun 2016 10:00:32 CEST*
%MOMM*%
G01*
G04 APERTURE LIST*
%ADD10C,0.100000*%
%ADD11R,2.000000X0.600000*%
%ADD12R,1.000000X0.500000*%
%ADD13O,1.200000X1.800000*%
%ADD14R,1.000000X1.600000*%
%ADD15R,2.032000X1.727200*%
%ADD16O,2.032000X1.727200*%
%ADD17R,0.750000X0.800000*%
%ADD18R,1.000000X2.500000*%
%ADD19R,2.400000X2.000000*%
%ADD20O,1.501140X2.499360*%
%ADD21R,2.500000X0.900000*%
%ADD22R,0.500000X0.900000*%
%ADD23R,0.900000X0.500000*%
%ADD24R,1.200000X0.800000*%
%ADD25R,1.727200X1.727200*%
%ADD26O,1.727200X1.727200*%
%ADD27R,0.800100X1.800860*%
%ADD28O,1.473200X0.609600*%
%ADD29C,0.600000*%
%ADD30C,0.500000*%
%ADD31C,0.700000*%
G04 APERTURE END LIST*
D10*
D11*
X39625000Y-33020000D03*
X39625000Y-31750000D03*
X39625000Y-30480000D03*
X39625000Y-29210000D03*
X39625000Y-27940000D03*
X39625000Y-26670000D03*
X39625000Y-25400000D03*
X39625000Y-24130000D03*
X39625000Y-22860000D03*
X30225000Y-22860000D03*
X30225000Y-24130000D03*
X30225000Y-25400000D03*
X30225000Y-26670000D03*
X30225000Y-27940000D03*
X30225000Y-29210000D03*
X30225000Y-30480000D03*
X30225000Y-31750000D03*
X30225000Y-33020000D03*
D10*
G36*
X55400000Y-33770000D02*
X55400000Y-32270000D01*
X56900000Y-31770000D01*
X56900000Y-34270000D01*
X55400000Y-33770000D01*
X55400000Y-33770000D01*
G37*
G36*
X57400000Y-34270000D02*
X57400000Y-31770000D01*
X58900000Y-32270000D01*
X58900000Y-33770000D01*
X57400000Y-34270000D01*
X57400000Y-34270000D01*
G37*
D12*
X57150000Y-33020000D03*
D10*
G36*
X55400000Y-28690000D02*
X55400000Y-27190000D01*
X56900000Y-26690000D01*
X56900000Y-29190000D01*
X55400000Y-28690000D01*
X55400000Y-28690000D01*
G37*
G36*
X57400000Y-29190000D02*
X57400000Y-26690000D01*
X58900000Y-27190000D01*
X58900000Y-28690000D01*
X57400000Y-29190000D01*
X57400000Y-29190000D01*
G37*
D12*
X57150000Y-27940000D03*
D13*
X71120000Y-19050000D03*
X73660000Y-19050000D03*
X76200000Y-19050000D03*
X78740000Y-19050000D03*
D14*
X89940000Y-23495000D03*
X92940000Y-23495000D03*
D15*
X53340000Y-34290000D03*
D16*
X53340000Y-31750000D03*
X53340000Y-29210000D03*
X53340000Y-26670000D03*
X53340000Y-24130000D03*
X53340000Y-21590000D03*
D17*
X47625000Y-25920000D03*
X47625000Y-27420000D03*
X47625000Y-23610000D03*
X47625000Y-22110000D03*
D18*
X86590000Y-33020000D03*
X83590000Y-33020000D03*
X36425000Y-36195000D03*
X33425000Y-36195000D03*
D19*
X44450000Y-22715000D03*
X44450000Y-26815000D03*
D20*
X86360000Y-19050000D03*
X83820000Y-19050000D03*
X88900000Y-19050000D03*
D21*
X96520000Y-26490000D03*
X96520000Y-29390000D03*
X101600000Y-26490000D03*
X101600000Y-29390000D03*
D22*
X85610000Y-23495000D03*
X87110000Y-23495000D03*
D23*
X80010000Y-29730000D03*
X80010000Y-31230000D03*
X68580000Y-25285000D03*
X68580000Y-26785000D03*
D24*
X71780000Y-22860000D03*
X71780000Y-25400000D03*
X78080000Y-25400000D03*
X78080000Y-24130000D03*
X78080000Y-22860000D03*
X78080000Y-33020000D03*
X78080000Y-30480000D03*
X71780000Y-30480000D03*
X71780000Y-31750000D03*
X71780000Y-33020000D03*
D15*
X106680000Y-31750000D03*
D16*
X106680000Y-29210000D03*
X106680000Y-26670000D03*
X106680000Y-24130000D03*
D15*
X60960000Y-34290000D03*
D16*
X60960000Y-31750000D03*
X60960000Y-29210000D03*
X60960000Y-26670000D03*
X60960000Y-24130000D03*
X60960000Y-21590000D03*
D25*
X20320000Y-34290000D03*
D26*
X17780000Y-34290000D03*
X20320000Y-31750000D03*
X17780000Y-31750000D03*
X20320000Y-29210000D03*
X17780000Y-29210000D03*
X20320000Y-26670000D03*
X17780000Y-26670000D03*
X20320000Y-24130000D03*
X17780000Y-24130000D03*
X20320000Y-21590000D03*
X17780000Y-21590000D03*
D27*
X90490000Y-30711140D03*
X92390000Y-30711140D03*
X91440000Y-27708860D03*
D28*
X82296000Y-26035000D03*
X82296000Y-27305000D03*
X82296000Y-28575000D03*
X82296000Y-29845000D03*
X87884000Y-29845000D03*
X87884000Y-28575000D03*
X87884000Y-27305000D03*
X87884000Y-26035000D03*
D10*
G36*
X99850000Y-34405000D02*
X99850000Y-32905000D01*
X101350000Y-32405000D01*
X101350000Y-34905000D01*
X99850000Y-34405000D01*
X99850000Y-34405000D01*
G37*
G36*
X101850000Y-34905000D02*
X101850000Y-32405000D01*
X103350000Y-32905000D01*
X103350000Y-34405000D01*
X101850000Y-34905000D01*
X101850000Y-34905000D01*
G37*
G36*
X98270000Y-21475000D02*
X98270000Y-22975000D01*
X96770000Y-23475000D01*
X96770000Y-20975000D01*
X98270000Y-21475000D01*
X98270000Y-21475000D01*
G37*
G36*
X96270000Y-20975000D02*
X96270000Y-23475000D01*
X94770000Y-22975000D01*
X94770000Y-21475000D01*
X96270000Y-20975000D01*
X96270000Y-20975000D01*
G37*
G36*
X98270000Y-32905000D02*
X98270000Y-34405000D01*
X96770000Y-34905000D01*
X96770000Y-32405000D01*
X98270000Y-32905000D01*
X98270000Y-32905000D01*
G37*
G36*
X96270000Y-32405000D02*
X96270000Y-34905000D01*
X94770000Y-34405000D01*
X94770000Y-32905000D01*
X96270000Y-32405000D01*
X96270000Y-32405000D01*
G37*
G36*
X103350000Y-21475000D02*
X103350000Y-22975000D01*
X101850000Y-23475000D01*
X101850000Y-20975000D01*
X103350000Y-21475000D01*
X103350000Y-21475000D01*
G37*
G36*
X101350000Y-20975000D02*
X101350000Y-23475000D01*
X99850000Y-22975000D01*
X99850000Y-21475000D01*
X101350000Y-20975000D01*
X101350000Y-20975000D01*
G37*
D29*
X31115000Y-36195000D03*
X38100000Y-36195000D03*
X70485000Y-34290000D03*
X70485000Y-24130000D03*
X70485000Y-30480000D03*
X47625000Y-24765000D03*
X41275000Y-22860000D03*
X71755000Y-21590000D03*
X66675000Y-26670000D03*
X66675000Y-30480000D03*
X88265000Y-33020000D03*
X104140000Y-20320000D03*
X99695000Y-24765000D03*
X91440000Y-26035000D03*
X85725000Y-27305000D03*
X80645000Y-27305000D03*
X26670000Y-31750000D03*
X26670000Y-25400000D03*
X24130000Y-27940000D03*
X24130000Y-30480000D03*
X65405000Y-30480000D03*
X65405000Y-27940000D03*
D30*
X36425000Y-36195000D02*
X38100000Y-36195000D01*
X31115000Y-36195000D02*
X29845000Y-36195000D01*
X70485000Y-34290000D02*
X69215000Y-34290000D01*
X70485000Y-24130000D02*
X69215000Y-24130000D01*
X47625000Y-24765000D02*
X49530000Y-24765000D01*
X49530000Y-24765000D02*
X50165000Y-24130000D01*
X50165000Y-24130000D02*
X53340000Y-24130000D01*
D31*
X53340000Y-24130000D02*
X60960000Y-24130000D01*
D30*
X70485000Y-30480000D02*
X70510000Y-30505000D01*
X70510000Y-30505000D02*
X71780000Y-30480000D01*
X71755000Y-30480000D02*
X71780000Y-30480000D01*
X71755000Y-30480000D02*
X71780000Y-30480000D01*
X36425000Y-36195000D02*
X36425000Y-23900000D01*
X36425000Y-23900000D02*
X37465000Y-22860000D01*
X47625000Y-24765000D02*
X47625000Y-24765000D01*
X47625000Y-23610000D02*
X47625000Y-24765000D01*
X47625000Y-24765000D02*
X47625000Y-25920000D01*
X37465000Y-22860000D02*
X39625000Y-22860000D01*
X39625000Y-22860000D02*
X41275000Y-22860000D01*
X71780000Y-22860000D02*
X71755000Y-21590000D01*
D31*
X53340000Y-21590000D02*
X60960000Y-21590000D01*
X53340000Y-21590000D02*
X50800000Y-21590000D01*
X50800000Y-21590000D02*
X48895000Y-19685000D01*
X20320000Y-21590000D02*
X32385000Y-21590000D01*
D30*
X71755000Y-21590000D02*
X66675000Y-21590000D01*
X71780000Y-33020000D02*
X69215000Y-33020000D01*
X66675000Y-26670000D02*
X66675000Y-21590000D01*
X69215000Y-33020000D02*
X66675000Y-30480000D01*
X60960000Y-21590000D02*
X66675000Y-21590000D01*
X30225000Y-33495000D02*
X32925000Y-36195000D01*
D31*
X48895000Y-19685000D02*
X41275000Y-19685000D01*
D30*
X32385000Y-32385000D02*
X32385000Y-21590000D01*
X31750000Y-33020000D02*
X32385000Y-32385000D01*
X30225000Y-33020000D02*
X31750000Y-33020000D01*
X30225000Y-33020000D02*
X30225000Y-33495000D01*
D31*
X39370000Y-21590000D02*
X32385000Y-21590000D01*
X41275000Y-19685000D02*
X39370000Y-21590000D01*
D30*
X47625000Y-22110000D02*
X45055000Y-22110000D01*
X45055000Y-22110000D02*
X43035000Y-24130000D01*
X43035000Y-24130000D02*
X39625000Y-24130000D01*
X47625000Y-27420000D02*
X45055000Y-27420000D01*
X45055000Y-27420000D02*
X44450000Y-26815000D01*
X43035000Y-25400000D02*
X44450000Y-26815000D01*
X39625000Y-25400000D02*
X43035000Y-25400000D01*
X86590000Y-33020000D02*
X88265000Y-33020000D01*
X104140000Y-20320000D02*
X105410000Y-20320000D01*
X85610000Y-23495000D02*
X85610000Y-27190000D01*
X85610000Y-27190000D02*
X85725000Y-27305000D01*
X85610000Y-23495000D02*
X85610000Y-22340000D01*
X85610000Y-22340000D02*
X86360000Y-21590000D01*
X86360000Y-19050000D02*
X86360000Y-21590000D01*
D31*
X86590000Y-31345000D02*
X86590000Y-33020000D01*
X85725000Y-27305000D02*
X85725000Y-30480000D01*
X85725000Y-30480000D02*
X86590000Y-31345000D01*
X98425000Y-19685000D02*
X92075000Y-19685000D01*
X92075000Y-19685000D02*
X90170000Y-21590000D01*
X99695000Y-24765000D02*
X99060000Y-24130000D01*
X99060000Y-24130000D02*
X99060000Y-20320000D01*
X99060000Y-20320000D02*
X98425000Y-19685000D01*
X103505000Y-24765000D02*
X99695000Y-24765000D01*
X106680000Y-26670000D02*
X105410000Y-26670000D01*
X105410000Y-26670000D02*
X103505000Y-24765000D01*
X89940000Y-23495000D02*
X89940000Y-21820000D01*
X89940000Y-21820000D02*
X90170000Y-21590000D01*
X89940000Y-23495000D02*
X89940000Y-24535000D01*
X89940000Y-24535000D02*
X90170000Y-24765000D01*
X91440000Y-26035000D02*
X90170000Y-24765000D01*
X91440000Y-26035000D02*
X91440000Y-26035000D01*
X91440000Y-26035000D02*
X91440000Y-27708860D01*
X90170000Y-21590000D02*
X86360000Y-21590000D01*
X78080000Y-25400000D02*
X78740000Y-25400000D01*
X78740000Y-25400000D02*
X80645000Y-27305000D01*
D30*
X80645000Y-27305000D02*
X82296000Y-27305000D01*
D31*
X83820000Y-19050000D02*
X78740000Y-19050000D01*
X78740000Y-19050000D02*
X78740000Y-22860000D01*
D30*
X84455000Y-28575000D02*
X82296000Y-28575000D01*
D31*
X83590000Y-33020000D02*
X83590000Y-31345000D01*
X84455000Y-26035000D02*
X83185000Y-24765000D01*
X84455000Y-30480000D02*
X84455000Y-28575000D01*
X84455000Y-28575000D02*
X84455000Y-26035000D01*
X83590000Y-31345000D02*
X84455000Y-30480000D01*
D30*
X83590000Y-33020000D02*
X78080000Y-33020000D01*
D31*
X78740000Y-22860000D02*
X80645000Y-22860000D01*
X80645000Y-22860000D02*
X81280000Y-22860000D01*
D30*
X83185000Y-24765000D02*
X83185000Y-24765000D01*
D31*
X81280000Y-22860000D02*
X82550000Y-24130000D01*
X82550000Y-24130000D02*
X83185000Y-24765000D01*
X78080000Y-22860000D02*
X78740000Y-22860000D01*
X92940000Y-23495000D02*
X94250000Y-23495000D01*
X94250000Y-23495000D02*
X95520000Y-22225000D01*
X102600000Y-33655000D02*
X102600000Y-33020000D01*
X102417500Y-32837500D02*
X103505000Y-31750000D01*
X106680000Y-31750000D02*
X103505000Y-31750000D01*
X90490000Y-30711140D02*
X90490000Y-32705000D01*
X102600000Y-35830000D02*
X102600000Y-33655000D01*
X102235000Y-36195000D02*
X102600000Y-35830000D01*
X93980000Y-36195000D02*
X102235000Y-36195000D01*
X90490000Y-32705000D02*
X93980000Y-36195000D01*
D30*
X87884000Y-28575000D02*
X88353860Y-28575000D01*
X88353860Y-28575000D02*
X90490000Y-30711140D01*
D31*
X99060000Y-30480000D02*
X97790000Y-31750000D01*
X99060000Y-27940000D02*
X99060000Y-30480000D01*
X97790000Y-31750000D02*
X97790000Y-33385000D01*
X97790000Y-33385000D02*
X97520000Y-33655000D01*
X92390000Y-30165000D02*
X92390000Y-30711140D01*
X94615000Y-27940000D02*
X92390000Y-30165000D01*
X104140000Y-27940000D02*
X99060000Y-27940000D01*
X99060000Y-27940000D02*
X94615000Y-27940000D01*
X105410000Y-29210000D02*
X104140000Y-27940000D01*
D30*
X106680000Y-29210000D02*
X105410000Y-29210000D01*
D31*
X92390000Y-30711140D02*
X92390000Y-30160000D01*
D30*
X92390000Y-30160000D02*
X91440000Y-29210000D01*
X91440000Y-29210000D02*
X90805000Y-29210000D01*
X90805000Y-29210000D02*
X88900000Y-27305000D01*
X88900000Y-27305000D02*
X87884000Y-27305000D01*
X26035000Y-30480000D02*
X30225000Y-30480000D01*
X23495000Y-33020000D02*
X26035000Y-30480000D01*
X23495000Y-33655000D02*
X23495000Y-33020000D01*
X22860000Y-34290000D02*
X23495000Y-33655000D01*
X20320000Y-34290000D02*
X22860000Y-34290000D01*
X17780000Y-34290000D02*
X17780000Y-35560000D01*
X23495000Y-36195000D02*
X18415000Y-36195000D01*
X24765000Y-34925000D02*
X23495000Y-36195000D01*
X24765000Y-33655000D02*
X24765000Y-34925000D01*
X26670000Y-31750000D02*
X24765000Y-33655000D01*
X18415000Y-36195000D02*
X17780000Y-35560000D01*
X26670000Y-25400000D02*
X30225000Y-25400000D01*
X30225000Y-27940000D02*
X24130000Y-27940000D01*
X24130000Y-30480000D02*
X22860000Y-31750000D01*
X22860000Y-31750000D02*
X20320000Y-31750000D01*
X15875000Y-34290000D02*
X15875000Y-35560000D01*
X16510000Y-31750000D02*
X15875000Y-32385000D01*
X15875000Y-32385000D02*
X15875000Y-34290000D01*
X19050000Y-37465000D02*
X24130000Y-37465000D01*
X24130000Y-37465000D02*
X26035000Y-35560000D01*
X26035000Y-35560000D02*
X26035000Y-34290000D01*
X26035000Y-34290000D02*
X28575000Y-31750000D01*
X30225000Y-31750000D02*
X28575000Y-31750000D01*
X16510000Y-31750000D02*
X17780000Y-31750000D01*
X17780000Y-37465000D02*
X19050000Y-37465000D01*
X15875000Y-35560000D02*
X17780000Y-37465000D01*
X20320000Y-29210000D02*
X30225000Y-29210000D01*
X30225000Y-26670000D02*
X20320000Y-26670000D01*
D31*
X102600000Y-22225000D02*
X103505000Y-22225000D01*
X105410000Y-24130000D02*
X106680000Y-24130000D01*
X103505000Y-22225000D02*
X105410000Y-24130000D01*
X102600000Y-22225000D02*
X102870000Y-22225000D01*
D30*
X68580000Y-25285000D02*
X71665000Y-25285000D01*
X71665000Y-25285000D02*
X71780000Y-25400000D01*
X80010000Y-29730000D02*
X80125000Y-29845000D01*
X80125000Y-29845000D02*
X82296000Y-29845000D01*
X78080000Y-30480000D02*
X78830000Y-31230000D01*
X78830000Y-31230000D02*
X80010000Y-31230000D01*
X78080000Y-30480000D02*
X78195000Y-30595000D01*
X87110000Y-23495000D02*
X87110000Y-25261000D01*
X87110000Y-25261000D02*
X87884000Y-26035000D01*
X87630000Y-26035000D02*
X87884000Y-26035000D01*
D31*
X97520000Y-22225000D02*
X97520000Y-25490000D01*
X97520000Y-25490000D02*
X96520000Y-26490000D01*
X96520000Y-26490000D02*
X101600000Y-26490000D01*
X100600000Y-33655000D02*
X100600000Y-31480000D01*
X101600000Y-30480000D02*
X101600000Y-29390000D01*
X100600000Y-31480000D02*
X101600000Y-30480000D01*
X95520000Y-33655000D02*
X95520000Y-31480000D01*
X95520000Y-31480000D02*
X96520000Y-30480000D01*
X96520000Y-30480000D02*
X96520000Y-29390000D01*
D30*
X78080000Y-24130000D02*
X80391000Y-24130000D01*
X80391000Y-24130000D02*
X82296000Y-26035000D01*
D31*
X100600000Y-22225000D02*
X100600000Y-19320000D01*
X99695000Y-18415000D02*
X89535000Y-18415000D01*
X100600000Y-19320000D02*
X99695000Y-18415000D01*
X89535000Y-18415000D02*
X88900000Y-19050000D01*
D30*
X53340000Y-29210000D02*
X54880000Y-29210000D01*
X54880000Y-29210000D02*
X56150000Y-27940000D01*
X39625000Y-31750000D02*
X47625000Y-31750000D01*
X50165000Y-29210000D02*
X53340000Y-29210000D01*
X47625000Y-31750000D02*
X50165000Y-29210000D01*
X58150000Y-27940000D02*
X59420000Y-29210000D01*
X59420000Y-29210000D02*
X60960000Y-29210000D01*
X71780000Y-31750000D02*
X69850000Y-31750000D01*
X67310000Y-29210000D02*
X60960000Y-29210000D01*
X69850000Y-31750000D02*
X67310000Y-29210000D01*
X53340000Y-31750000D02*
X50165000Y-31750000D01*
X48895000Y-33020000D02*
X39625000Y-33020000D01*
X50165000Y-31750000D02*
X48895000Y-33020000D01*
X56150000Y-33020000D02*
X54880000Y-31750000D01*
X54880000Y-31750000D02*
X53340000Y-31750000D01*
X68580000Y-26785000D02*
X68580000Y-27940000D01*
X64135000Y-31750000D02*
X60960000Y-31750000D01*
X65405000Y-30480000D02*
X64135000Y-31750000D01*
X68580000Y-27940000D02*
X65405000Y-27940000D01*
X58150000Y-33020000D02*
X59420000Y-31750000D01*
X59420000Y-31750000D02*
X60960000Y-31750000D01*
G36*
X86410000Y-19000000D02*
X86430000Y-19000000D01*
X86430000Y-19100000D01*
X86410000Y-19100000D01*
X86410000Y-20861228D01*
X86643995Y-21022561D01*
X86888050Y-20954590D01*
X87385708Y-20645528D01*
X87619062Y-20320284D01*
X87838937Y-20649349D01*
X88325757Y-20974632D01*
X88900000Y-21088856D01*
X89474243Y-20974632D01*
X89961063Y-20649349D01*
X90286346Y-20162529D01*
X90400570Y-19588286D01*
X90400570Y-19515000D01*
X99239366Y-19515000D01*
X99500000Y-19775635D01*
X99500000Y-20815381D01*
X99316802Y-20926862D01*
X99145554Y-21177492D01*
X99085307Y-21475000D01*
X99085307Y-22975000D01*
X99161379Y-23307500D01*
X99344993Y-23549216D01*
X99608183Y-23700451D01*
X101108183Y-24200451D01*
X101328874Y-24239401D01*
X101620004Y-24188775D01*
X101790524Y-24237377D01*
X102091817Y-24200451D01*
X103466567Y-23742201D01*
X104632183Y-24907818D01*
X104769315Y-24999446D01*
X104989048Y-25146267D01*
X105311541Y-25210415D01*
X105352014Y-25270988D01*
X105563890Y-25412559D01*
X105351257Y-25564368D01*
X105017694Y-26098696D01*
X104942453Y-26368314D01*
X105102377Y-26620000D01*
X106630000Y-26620000D01*
X106630000Y-26600000D01*
X106730000Y-26600000D01*
X106730000Y-26620000D01*
X106750000Y-26620000D01*
X106750000Y-26720000D01*
X106730000Y-26720000D01*
X106730000Y-26740000D01*
X106630000Y-26740000D01*
X106630000Y-26720000D01*
X105102377Y-26720000D01*
X104942453Y-26971686D01*
X105017694Y-27241304D01*
X105052179Y-27296545D01*
X104917817Y-27162183D01*
X104809488Y-27089800D01*
X104560952Y-26923733D01*
X104140000Y-26840000D01*
X103614693Y-26840000D01*
X103614693Y-26040000D01*
X103562396Y-25762067D01*
X103398138Y-25506802D01*
X103147508Y-25335554D01*
X102850000Y-25275307D01*
X100350000Y-25275307D01*
X100072067Y-25327604D01*
X99975101Y-25390000D01*
X98620000Y-25390000D01*
X98620000Y-23634619D01*
X98803198Y-23523138D01*
X98974446Y-23272508D01*
X99034693Y-22975000D01*
X99034693Y-21475000D01*
X98958621Y-21142500D01*
X98775007Y-20900784D01*
X98511817Y-20749549D01*
X97011817Y-20249549D01*
X96791126Y-20210599D01*
X96499996Y-20261225D01*
X96329476Y-20212623D01*
X96028183Y-20249549D01*
X94528183Y-20749549D01*
X94236802Y-20926862D01*
X94065554Y-21177492D01*
X94005307Y-21475000D01*
X94005307Y-22184059D01*
X94003575Y-22185791D01*
X93988138Y-22161802D01*
X93737508Y-21990554D01*
X93440000Y-21930307D01*
X92440000Y-21930307D01*
X92162067Y-21982604D01*
X91906802Y-22146862D01*
X91735554Y-22397492D01*
X91675307Y-22695000D01*
X91675307Y-24295000D01*
X91727604Y-24572933D01*
X91891862Y-24828198D01*
X92142492Y-24999446D01*
X92440000Y-25059693D01*
X93440000Y-25059693D01*
X93717933Y-25007396D01*
X93973198Y-24843138D01*
X94142743Y-24595000D01*
X94250000Y-24595000D01*
X94670952Y-24511267D01*
X95027817Y-24272817D01*
X95332183Y-23968451D01*
X96028183Y-24200451D01*
X96248874Y-24239401D01*
X96420000Y-24209643D01*
X96420000Y-25034365D01*
X96179059Y-25275307D01*
X95270000Y-25275307D01*
X94992067Y-25327604D01*
X94736802Y-25491862D01*
X94565554Y-25742492D01*
X94505307Y-26040000D01*
X94505307Y-26861819D01*
X94194048Y-26923733D01*
X93837182Y-27162183D01*
X92590050Y-28409316D01*
X92590050Y-27946360D01*
X92402550Y-27758860D01*
X91490000Y-27758860D01*
X91490000Y-27778860D01*
X91390000Y-27778860D01*
X91390000Y-27758860D01*
X91370000Y-27758860D01*
X91370000Y-27658860D01*
X91390000Y-27658860D01*
X91390000Y-26245930D01*
X91490000Y-26245930D01*
X91490000Y-27658860D01*
X92402550Y-27658860D01*
X92590050Y-27471360D01*
X92590050Y-26659245D01*
X92475869Y-26383589D01*
X92264891Y-26172611D01*
X91989234Y-26058430D01*
X91677500Y-26058430D01*
X91490000Y-26245930D01*
X91390000Y-26245930D01*
X91202500Y-26058430D01*
X90890766Y-26058430D01*
X90615109Y-26172611D01*
X90404131Y-26383589D01*
X90289950Y-26659245D01*
X90289950Y-27280736D01*
X89607107Y-26597893D01*
X89325222Y-26409543D01*
X89399724Y-26035000D01*
X89319432Y-25631346D01*
X89090780Y-25289144D01*
X88748578Y-25060492D01*
X88344924Y-24980200D01*
X88243414Y-24980200D01*
X88110000Y-24846786D01*
X88110000Y-24017556D01*
X88124693Y-23945000D01*
X88124693Y-23732500D01*
X88690000Y-23732500D01*
X88690000Y-24444185D01*
X88804181Y-24719841D01*
X89015159Y-24930819D01*
X89290816Y-25045000D01*
X89702500Y-25045000D01*
X89890000Y-24857500D01*
X89890000Y-23545000D01*
X89990000Y-23545000D01*
X89990000Y-24857500D01*
X90177500Y-25045000D01*
X90589184Y-25045000D01*
X90864841Y-24930819D01*
X91075819Y-24719841D01*
X91190000Y-24444185D01*
X91190000Y-23732500D01*
X91002500Y-23545000D01*
X89990000Y-23545000D01*
X89890000Y-23545000D01*
X88877500Y-23545000D01*
X88690000Y-23732500D01*
X88124693Y-23732500D01*
X88124693Y-23045000D01*
X88072396Y-22767067D01*
X87930025Y-22545815D01*
X88690000Y-22545815D01*
X88690000Y-23257500D01*
X88877500Y-23445000D01*
X89890000Y-23445000D01*
X89890000Y-22132500D01*
X89990000Y-22132500D01*
X89990000Y-23445000D01*
X91002500Y-23445000D01*
X91190000Y-23257500D01*
X91190000Y-22545815D01*
X91075819Y-22270159D01*
X90864841Y-22059181D01*
X90589184Y-21945000D01*
X90177500Y-21945000D01*
X89990000Y-22132500D01*
X89890000Y-22132500D01*
X89702500Y-21945000D01*
X89290816Y-21945000D01*
X89015159Y-22059181D01*
X88804181Y-22270159D01*
X88690000Y-22545815D01*
X87930025Y-22545815D01*
X87908138Y-22511802D01*
X87657508Y-22340554D01*
X87360000Y-22280307D01*
X86860000Y-22280307D01*
X86582067Y-22332604D01*
X86354621Y-22478961D01*
X86284841Y-22409181D01*
X86009184Y-22295000D01*
X85847500Y-22295000D01*
X85660000Y-22482500D01*
X85660000Y-23445000D01*
X85680000Y-23445000D01*
X85680000Y-23545000D01*
X85660000Y-23545000D01*
X85660000Y-24507500D01*
X85847500Y-24695000D01*
X86009184Y-24695000D01*
X86110000Y-24653241D01*
X86110000Y-25261000D01*
X86186120Y-25643684D01*
X86386471Y-25943529D01*
X86368276Y-26035000D01*
X86448568Y-26438654D01*
X86603148Y-26670000D01*
X86448568Y-26901346D01*
X86368276Y-27305000D01*
X86448568Y-27708654D01*
X86603148Y-27940000D01*
X86448568Y-28171346D01*
X86368276Y-28575000D01*
X86448568Y-28978654D01*
X86603148Y-29210000D01*
X86448568Y-29441346D01*
X86368276Y-29845000D01*
X86448568Y-30248654D01*
X86677220Y-30590856D01*
X87019422Y-30819508D01*
X87423076Y-30899800D01*
X88344924Y-30899800D01*
X88748578Y-30819508D01*
X89009687Y-30645041D01*
X89325257Y-30960611D01*
X89325257Y-31611570D01*
X89377554Y-31889503D01*
X89390000Y-31908845D01*
X89390000Y-32705000D01*
X89473733Y-33125952D01*
X89642342Y-33378293D01*
X89712183Y-33482817D01*
X93202182Y-36972817D01*
X93559048Y-37211267D01*
X93980000Y-37295000D01*
X102235000Y-37295000D01*
X102655952Y-37211267D01*
X103012817Y-36972817D01*
X103377817Y-36607817D01*
X103616267Y-36250952D01*
X103700000Y-35830000D01*
X103700000Y-35064619D01*
X103883198Y-34953138D01*
X104054446Y-34702508D01*
X104114693Y-34405000D01*
X104114693Y-32905000D01*
X104102110Y-32850000D01*
X104943789Y-32850000D01*
X104951604Y-32891533D01*
X105115862Y-33146798D01*
X105366492Y-33318046D01*
X105664000Y-33378293D01*
X107696000Y-33378293D01*
X107973933Y-33325996D01*
X108229198Y-33161738D01*
X108395000Y-32919078D01*
X108395000Y-38545000D01*
X78355000Y-38545000D01*
X78355000Y-34184693D01*
X78680000Y-34184693D01*
X78957933Y-34132396D01*
X79132602Y-34020000D01*
X82325307Y-34020000D01*
X82325307Y-34270000D01*
X82377604Y-34547933D01*
X82541862Y-34803198D01*
X82792492Y-34974446D01*
X83090000Y-35034693D01*
X84090000Y-35034693D01*
X84367933Y-34982396D01*
X84623198Y-34818138D01*
X84794446Y-34567508D01*
X84854693Y-34270000D01*
X84854693Y-33257500D01*
X85340000Y-33257500D01*
X85340000Y-34419185D01*
X85454181Y-34694841D01*
X85665159Y-34905819D01*
X85940816Y-35020000D01*
X86352500Y-35020000D01*
X86540000Y-34832500D01*
X86540000Y-33070000D01*
X86640000Y-33070000D01*
X86640000Y-34832500D01*
X86827500Y-35020000D01*
X87239184Y-35020000D01*
X87514841Y-34905819D01*
X87725819Y-34694841D01*
X87840000Y-34419185D01*
X87840000Y-33257500D01*
X87652500Y-33070000D01*
X86640000Y-33070000D01*
X86540000Y-33070000D01*
X85527500Y-33070000D01*
X85340000Y-33257500D01*
X84854693Y-33257500D01*
X84854693Y-31770000D01*
X84833463Y-31657172D01*
X84869820Y-31620815D01*
X85340000Y-31620815D01*
X85340000Y-32782500D01*
X85527500Y-32970000D01*
X86540000Y-32970000D01*
X86540000Y-31207500D01*
X86640000Y-31207500D01*
X86640000Y-32970000D01*
X87652500Y-32970000D01*
X87840000Y-32782500D01*
X87840000Y-31620815D01*
X87725819Y-31345159D01*
X87514841Y-31134181D01*
X87239184Y-31020000D01*
X86827500Y-31020000D01*
X86640000Y-31207500D01*
X86540000Y-31207500D01*
X86352500Y-31020000D01*
X85940816Y-31020000D01*
X85665159Y-31134181D01*
X85454181Y-31345159D01*
X85340000Y-31620815D01*
X84869820Y-31620815D01*
X85232818Y-31257817D01*
X85375758Y-31043892D01*
X85471267Y-30900952D01*
X85555000Y-30480000D01*
X85555000Y-26035000D01*
X85471267Y-25614048D01*
X85321563Y-25390000D01*
X85232817Y-25257182D01*
X83962820Y-23987186D01*
X83962818Y-23987183D01*
X83708135Y-23732500D01*
X84610000Y-23732500D01*
X84610000Y-24094185D01*
X84724181Y-24369841D01*
X84935159Y-24580819D01*
X85210816Y-24695000D01*
X85372500Y-24695000D01*
X85560000Y-24507500D01*
X85560000Y-23545000D01*
X84797500Y-23545000D01*
X84610000Y-23732500D01*
X83708135Y-23732500D01*
X83327819Y-23352185D01*
X83327817Y-23352182D01*
X82871450Y-22895815D01*
X84610000Y-22895815D01*
X84610000Y-23257500D01*
X84797500Y-23445000D01*
X85560000Y-23445000D01*
X85560000Y-22482500D01*
X85372500Y-22295000D01*
X85210816Y-22295000D01*
X84935159Y-22409181D01*
X84724181Y-22620159D01*
X84610000Y-22895815D01*
X82871450Y-22895815D01*
X82057817Y-22082183D01*
X82023392Y-22059181D01*
X81700952Y-21843733D01*
X81280000Y-21760000D01*
X79840000Y-21760000D01*
X79840000Y-20150000D01*
X82431162Y-20150000D01*
X82433654Y-20162529D01*
X82758937Y-20649349D01*
X83245757Y-20974632D01*
X83820000Y-21088856D01*
X84394243Y-20974632D01*
X84881063Y-20649349D01*
X85100938Y-20320284D01*
X85334292Y-20645528D01*
X85831950Y-20954590D01*
X86076005Y-21022561D01*
X86310000Y-20861228D01*
X86310000Y-19100000D01*
X86290000Y-19100000D01*
X86290000Y-19000000D01*
X86310000Y-19000000D01*
X86310000Y-18980000D01*
X86410000Y-18980000D01*
X86410000Y-19000000D01*
X86410000Y-19000000D01*
G37*
X86410000Y-19000000D02*
X86430000Y-19000000D01*
X86430000Y-19100000D01*
X86410000Y-19100000D01*
X86410000Y-20861228D01*
X86643995Y-21022561D01*
X86888050Y-20954590D01*
X87385708Y-20645528D01*
X87619062Y-20320284D01*
X87838937Y-20649349D01*
X88325757Y-20974632D01*
X88900000Y-21088856D01*
X89474243Y-20974632D01*
X89961063Y-20649349D01*
X90286346Y-20162529D01*
X90400570Y-19588286D01*
X90400570Y-19515000D01*
X99239366Y-19515000D01*
X99500000Y-19775635D01*
X99500000Y-20815381D01*
X99316802Y-20926862D01*
X99145554Y-21177492D01*
X99085307Y-21475000D01*
X99085307Y-22975000D01*
X99161379Y-23307500D01*
X99344993Y-23549216D01*
X99608183Y-23700451D01*
X101108183Y-24200451D01*
X101328874Y-24239401D01*
X101620004Y-24188775D01*
X101790524Y-24237377D01*
X102091817Y-24200451D01*
X103466567Y-23742201D01*
X104632183Y-24907818D01*
X104769315Y-24999446D01*
X104989048Y-25146267D01*
X105311541Y-25210415D01*
X105352014Y-25270988D01*
X105563890Y-25412559D01*
X105351257Y-25564368D01*
X105017694Y-26098696D01*
X104942453Y-26368314D01*
X105102377Y-26620000D01*
X106630000Y-26620000D01*
X106630000Y-26600000D01*
X106730000Y-26600000D01*
X106730000Y-26620000D01*
X106750000Y-26620000D01*
X106750000Y-26720000D01*
X106730000Y-26720000D01*
X106730000Y-26740000D01*
X106630000Y-26740000D01*
X106630000Y-26720000D01*
X105102377Y-26720000D01*
X104942453Y-26971686D01*
X105017694Y-27241304D01*
X105052179Y-27296545D01*
X104917817Y-27162183D01*
X104809488Y-27089800D01*
X104560952Y-26923733D01*
X104140000Y-26840000D01*
X103614693Y-26840000D01*
X103614693Y-26040000D01*
X103562396Y-25762067D01*
X103398138Y-25506802D01*
X103147508Y-25335554D01*
X102850000Y-25275307D01*
X100350000Y-25275307D01*
X100072067Y-25327604D01*
X99975101Y-25390000D01*
X98620000Y-25390000D01*
X98620000Y-23634619D01*
X98803198Y-23523138D01*
X98974446Y-23272508D01*
X99034693Y-22975000D01*
X99034693Y-21475000D01*
X98958621Y-21142500D01*
X98775007Y-20900784D01*
X98511817Y-20749549D01*
X97011817Y-20249549D01*
X96791126Y-20210599D01*
X96499996Y-20261225D01*
X96329476Y-20212623D01*
X96028183Y-20249549D01*
X94528183Y-20749549D01*
X94236802Y-20926862D01*
X94065554Y-21177492D01*
X94005307Y-21475000D01*
X94005307Y-22184059D01*
X94003575Y-22185791D01*
X93988138Y-22161802D01*
X93737508Y-21990554D01*
X93440000Y-21930307D01*
X92440000Y-21930307D01*
X92162067Y-21982604D01*
X91906802Y-22146862D01*
X91735554Y-22397492D01*
X91675307Y-22695000D01*
X91675307Y-24295000D01*
X91727604Y-24572933D01*
X91891862Y-24828198D01*
X92142492Y-24999446D01*
X92440000Y-25059693D01*
X93440000Y-25059693D01*
X93717933Y-25007396D01*
X93973198Y-24843138D01*
X94142743Y-24595000D01*
X94250000Y-24595000D01*
X94670952Y-24511267D01*
X95027817Y-24272817D01*
X95332183Y-23968451D01*
X96028183Y-24200451D01*
X96248874Y-24239401D01*
X96420000Y-24209643D01*
X96420000Y-25034365D01*
X96179059Y-25275307D01*
X95270000Y-25275307D01*
X94992067Y-25327604D01*
X94736802Y-25491862D01*
X94565554Y-25742492D01*
X94505307Y-26040000D01*
X94505307Y-26861819D01*
X94194048Y-26923733D01*
X93837182Y-27162183D01*
X92590050Y-28409316D01*
X92590050Y-27946360D01*
X92402550Y-27758860D01*
X91490000Y-27758860D01*
X91490000Y-27778860D01*
X91390000Y-27778860D01*
X91390000Y-27758860D01*
X91370000Y-27758860D01*
X91370000Y-27658860D01*
X91390000Y-27658860D01*
X91390000Y-26245930D01*
X91490000Y-26245930D01*
X91490000Y-27658860D01*
X92402550Y-27658860D01*
X92590050Y-27471360D01*
X92590050Y-26659245D01*
X92475869Y-26383589D01*
X92264891Y-26172611D01*
X91989234Y-26058430D01*
X91677500Y-26058430D01*
X91490000Y-26245930D01*
X91390000Y-26245930D01*
X91202500Y-26058430D01*
X90890766Y-26058430D01*
X90615109Y-26172611D01*
X90404131Y-26383589D01*
X90289950Y-26659245D01*
X90289950Y-27280736D01*
X89607107Y-26597893D01*
X89325222Y-26409543D01*
X89399724Y-26035000D01*
X89319432Y-25631346D01*
X89090780Y-25289144D01*
X88748578Y-25060492D01*
X88344924Y-24980200D01*
X88243414Y-24980200D01*
X88110000Y-24846786D01*
X88110000Y-24017556D01*
X88124693Y-23945000D01*
X88124693Y-23732500D01*
X88690000Y-23732500D01*
X88690000Y-24444185D01*
X88804181Y-24719841D01*
X89015159Y-24930819D01*
X89290816Y-25045000D01*
X89702500Y-25045000D01*
X89890000Y-24857500D01*
X89890000Y-23545000D01*
X89990000Y-23545000D01*
X89990000Y-24857500D01*
X90177500Y-25045000D01*
X90589184Y-25045000D01*
X90864841Y-24930819D01*
X91075819Y-24719841D01*
X91190000Y-24444185D01*
X91190000Y-23732500D01*
X91002500Y-23545000D01*
X89990000Y-23545000D01*
X89890000Y-23545000D01*
X88877500Y-23545000D01*
X88690000Y-23732500D01*
X88124693Y-23732500D01*
X88124693Y-23045000D01*
X88072396Y-22767067D01*
X87930025Y-22545815D01*
X88690000Y-22545815D01*
X88690000Y-23257500D01*
X88877500Y-23445000D01*
X89890000Y-23445000D01*
X89890000Y-22132500D01*
X89990000Y-22132500D01*
X89990000Y-23445000D01*
X91002500Y-23445000D01*
X91190000Y-23257500D01*
X91190000Y-22545815D01*
X91075819Y-22270159D01*
X90864841Y-22059181D01*
X90589184Y-21945000D01*
X90177500Y-21945000D01*
X89990000Y-22132500D01*
X89890000Y-22132500D01*
X89702500Y-21945000D01*
X89290816Y-21945000D01*
X89015159Y-22059181D01*
X88804181Y-22270159D01*
X88690000Y-22545815D01*
X87930025Y-22545815D01*
X87908138Y-22511802D01*
X87657508Y-22340554D01*
X87360000Y-22280307D01*
X86860000Y-22280307D01*
X86582067Y-22332604D01*
X86354621Y-22478961D01*
X86284841Y-22409181D01*
X86009184Y-22295000D01*
X85847500Y-22295000D01*
X85660000Y-22482500D01*
X85660000Y-23445000D01*
X85680000Y-23445000D01*
X85680000Y-23545000D01*
X85660000Y-23545000D01*
X85660000Y-24507500D01*
X85847500Y-24695000D01*
X86009184Y-24695000D01*
X86110000Y-24653241D01*
X86110000Y-25261000D01*
X86186120Y-25643684D01*
X86386471Y-25943529D01*
X86368276Y-26035000D01*
X86448568Y-26438654D01*
X86603148Y-26670000D01*
X86448568Y-26901346D01*
X86368276Y-27305000D01*
X86448568Y-27708654D01*
X86603148Y-27940000D01*
X86448568Y-28171346D01*
X86368276Y-28575000D01*
X86448568Y-28978654D01*
X86603148Y-29210000D01*
X86448568Y-29441346D01*
X86368276Y-29845000D01*
X86448568Y-30248654D01*
X86677220Y-30590856D01*
X87019422Y-30819508D01*
X87423076Y-30899800D01*
X88344924Y-30899800D01*
X88748578Y-30819508D01*
X89009687Y-30645041D01*
X89325257Y-30960611D01*
X89325257Y-31611570D01*
X89377554Y-31889503D01*
X89390000Y-31908845D01*
X89390000Y-32705000D01*
X89473733Y-33125952D01*
X89642342Y-33378293D01*
X89712183Y-33482817D01*
X93202182Y-36972817D01*
X93559048Y-37211267D01*
X93980000Y-37295000D01*
X102235000Y-37295000D01*
X102655952Y-37211267D01*
X103012817Y-36972817D01*
X103377817Y-36607817D01*
X103616267Y-36250952D01*
X103700000Y-35830000D01*
X103700000Y-35064619D01*
X103883198Y-34953138D01*
X104054446Y-34702508D01*
X104114693Y-34405000D01*
X104114693Y-32905000D01*
X104102110Y-32850000D01*
X104943789Y-32850000D01*
X104951604Y-32891533D01*
X105115862Y-33146798D01*
X105366492Y-33318046D01*
X105664000Y-33378293D01*
X107696000Y-33378293D01*
X107973933Y-33325996D01*
X108229198Y-33161738D01*
X108395000Y-32919078D01*
X108395000Y-38545000D01*
X78355000Y-38545000D01*
X78355000Y-34184693D01*
X78680000Y-34184693D01*
X78957933Y-34132396D01*
X79132602Y-34020000D01*
X82325307Y-34020000D01*
X82325307Y-34270000D01*
X82377604Y-34547933D01*
X82541862Y-34803198D01*
X82792492Y-34974446D01*
X83090000Y-35034693D01*
X84090000Y-35034693D01*
X84367933Y-34982396D01*
X84623198Y-34818138D01*
X84794446Y-34567508D01*
X84854693Y-34270000D01*
X84854693Y-33257500D01*
X85340000Y-33257500D01*
X85340000Y-34419185D01*
X85454181Y-34694841D01*
X85665159Y-34905819D01*
X85940816Y-35020000D01*
X86352500Y-35020000D01*
X86540000Y-34832500D01*
X86540000Y-33070000D01*
X86640000Y-33070000D01*
X86640000Y-34832500D01*
X86827500Y-35020000D01*
X87239184Y-35020000D01*
X87514841Y-34905819D01*
X87725819Y-34694841D01*
X87840000Y-34419185D01*
X87840000Y-33257500D01*
X87652500Y-33070000D01*
X86640000Y-33070000D01*
X86540000Y-33070000D01*
X85527500Y-33070000D01*
X85340000Y-33257500D01*
X84854693Y-33257500D01*
X84854693Y-31770000D01*
X84833463Y-31657172D01*
X84869820Y-31620815D01*
X85340000Y-31620815D01*
X85340000Y-32782500D01*
X85527500Y-32970000D01*
X86540000Y-32970000D01*
X86540000Y-31207500D01*
X86640000Y-31207500D01*
X86640000Y-32970000D01*
X87652500Y-32970000D01*
X87840000Y-32782500D01*
X87840000Y-31620815D01*
X87725819Y-31345159D01*
X87514841Y-31134181D01*
X87239184Y-31020000D01*
X86827500Y-31020000D01*
X86640000Y-31207500D01*
X86540000Y-31207500D01*
X86352500Y-31020000D01*
X85940816Y-31020000D01*
X85665159Y-31134181D01*
X85454181Y-31345159D01*
X85340000Y-31620815D01*
X84869820Y-31620815D01*
X85232818Y-31257817D01*
X85375758Y-31043892D01*
X85471267Y-30900952D01*
X85555000Y-30480000D01*
X85555000Y-26035000D01*
X85471267Y-25614048D01*
X85321563Y-25390000D01*
X85232817Y-25257182D01*
X83962820Y-23987186D01*
X83962818Y-23987183D01*
X83708135Y-23732500D01*
X84610000Y-23732500D01*
X84610000Y-24094185D01*
X84724181Y-24369841D01*
X84935159Y-24580819D01*
X85210816Y-24695000D01*
X85372500Y-24695000D01*
X85560000Y-24507500D01*
X85560000Y-23545000D01*
X84797500Y-23545000D01*
X84610000Y-23732500D01*
X83708135Y-23732500D01*
X83327819Y-23352185D01*
X83327817Y-23352182D01*
X82871450Y-22895815D01*
X84610000Y-22895815D01*
X84610000Y-23257500D01*
X84797500Y-23445000D01*
X85560000Y-23445000D01*
X85560000Y-22482500D01*
X85372500Y-22295000D01*
X85210816Y-22295000D01*
X84935159Y-22409181D01*
X84724181Y-22620159D01*
X84610000Y-22895815D01*
X82871450Y-22895815D01*
X82057817Y-22082183D01*
X82023392Y-22059181D01*
X81700952Y-21843733D01*
X81280000Y-21760000D01*
X79840000Y-21760000D01*
X79840000Y-20150000D01*
X82431162Y-20150000D01*
X82433654Y-20162529D01*
X82758937Y-20649349D01*
X83245757Y-20974632D01*
X83820000Y-21088856D01*
X84394243Y-20974632D01*
X84881063Y-20649349D01*
X85100938Y-20320284D01*
X85334292Y-20645528D01*
X85831950Y-20954590D01*
X86076005Y-21022561D01*
X86310000Y-20861228D01*
X86310000Y-19100000D01*
X86290000Y-19100000D01*
X86290000Y-19000000D01*
X86310000Y-19000000D01*
X86310000Y-18980000D01*
X86410000Y-18980000D01*
X86410000Y-19000000D01*
G36*
X80797118Y-25950332D02*
X80780276Y-26035000D01*
X80860568Y-26438654D01*
X81026940Y-26687647D01*
X80870558Y-26947539D01*
X80831379Y-27090794D01*
X80998342Y-27255000D01*
X82246000Y-27255000D01*
X82246000Y-27235000D01*
X82346000Y-27235000D01*
X82346000Y-27255000D01*
X82366000Y-27255000D01*
X82366000Y-27355000D01*
X82346000Y-27355000D01*
X82346000Y-27375000D01*
X82246000Y-27375000D01*
X82246000Y-27355000D01*
X80998342Y-27355000D01*
X80831379Y-27519206D01*
X80870558Y-27662461D01*
X81026940Y-27922353D01*
X80860568Y-28171346D01*
X80780276Y-28575000D01*
X80830025Y-28825102D01*
X80757508Y-28775554D01*
X80460000Y-28715307D01*
X79560000Y-28715307D01*
X79282067Y-28767604D01*
X79026802Y-28931862D01*
X78855554Y-29182492D01*
X78822802Y-29344225D01*
X78680000Y-29315307D01*
X78355000Y-29315307D01*
X78355000Y-26550000D01*
X78829185Y-26550000D01*
X79104841Y-26435819D01*
X79315819Y-26224841D01*
X79430000Y-25949184D01*
X79430000Y-25637500D01*
X79242500Y-25450000D01*
X78355000Y-25450000D01*
X78355000Y-25350000D01*
X79242500Y-25350000D01*
X79430000Y-25162500D01*
X79430000Y-25130000D01*
X79976786Y-25130000D01*
X80797118Y-25950332D01*
X80797118Y-25950332D01*
G37*
X80797118Y-25950332D02*
X80780276Y-26035000D01*
X80860568Y-26438654D01*
X81026940Y-26687647D01*
X80870558Y-26947539D01*
X80831379Y-27090794D01*
X80998342Y-27255000D01*
X82246000Y-27255000D01*
X82246000Y-27235000D01*
X82346000Y-27235000D01*
X82346000Y-27255000D01*
X82366000Y-27255000D01*
X82366000Y-27355000D01*
X82346000Y-27355000D01*
X82346000Y-27375000D01*
X82246000Y-27375000D01*
X82246000Y-27355000D01*
X80998342Y-27355000D01*
X80831379Y-27519206D01*
X80870558Y-27662461D01*
X81026940Y-27922353D01*
X80860568Y-28171346D01*
X80780276Y-28575000D01*
X80830025Y-28825102D01*
X80757508Y-28775554D01*
X80460000Y-28715307D01*
X79560000Y-28715307D01*
X79282067Y-28767604D01*
X79026802Y-28931862D01*
X78855554Y-29182492D01*
X78822802Y-29344225D01*
X78680000Y-29315307D01*
X78355000Y-29315307D01*
X78355000Y-26550000D01*
X78829185Y-26550000D01*
X79104841Y-26435819D01*
X79315819Y-26224841D01*
X79430000Y-25949184D01*
X79430000Y-25637500D01*
X79242500Y-25450000D01*
X78355000Y-25450000D01*
X78355000Y-25350000D01*
X79242500Y-25350000D01*
X79430000Y-25162500D01*
X79430000Y-25130000D01*
X79976786Y-25130000D01*
X80797118Y-25950332D01*
G36*
X108395000Y-23699670D02*
X108357770Y-23512502D01*
X108007986Y-22989012D01*
X107484496Y-22639228D01*
X106866998Y-22516400D01*
X106493002Y-22516400D01*
X105875504Y-22639228D01*
X105635337Y-22799702D01*
X104282817Y-21447183D01*
X104076841Y-21309554D01*
X104038621Y-21142500D01*
X103855007Y-20900784D01*
X103591817Y-20749549D01*
X102091817Y-20249549D01*
X101871126Y-20210599D01*
X101700000Y-20240357D01*
X101700000Y-19320000D01*
X101616267Y-18899048D01*
X101435859Y-18629049D01*
X101377817Y-18542182D01*
X100472817Y-17637183D01*
X100472816Y-17637182D01*
X100115952Y-17398733D01*
X99795546Y-17335000D01*
X108395000Y-17335000D01*
X108395000Y-23699670D01*
X108395000Y-23699670D01*
G37*
X108395000Y-23699670D02*
X108357770Y-23512502D01*
X108007986Y-22989012D01*
X107484496Y-22639228D01*
X106866998Y-22516400D01*
X106493002Y-22516400D01*
X105875504Y-22639228D01*
X105635337Y-22799702D01*
X104282817Y-21447183D01*
X104076841Y-21309554D01*
X104038621Y-21142500D01*
X103855007Y-20900784D01*
X103591817Y-20749549D01*
X102091817Y-20249549D01*
X101871126Y-20210599D01*
X101700000Y-20240357D01*
X101700000Y-19320000D01*
X101616267Y-18899048D01*
X101435859Y-18629049D01*
X101377817Y-18542182D01*
X100472817Y-17637183D01*
X100472816Y-17637182D01*
X100115952Y-17398733D01*
X99795546Y-17335000D01*
X108395000Y-17335000D01*
X108395000Y-23699670D01*
G36*
X66079446Y-31369628D02*
X66200808Y-31420022D01*
X68507891Y-33727104D01*
X68507893Y-33727107D01*
X68832317Y-33943880D01*
X69215000Y-34020000D01*
X70729630Y-34020000D01*
X70882492Y-34124446D01*
X71180000Y-34184693D01*
X71505000Y-34184693D01*
X71505000Y-38545000D01*
X58670000Y-38545000D01*
X58670000Y-34652723D01*
X59141817Y-34495451D01*
X59179307Y-34472637D01*
X59179307Y-35153600D01*
X59231604Y-35431533D01*
X59395862Y-35686798D01*
X59646492Y-35858046D01*
X59944000Y-35918293D01*
X61976000Y-35918293D01*
X62253933Y-35865996D01*
X62509198Y-35701738D01*
X62680446Y-35451108D01*
X62740693Y-35153600D01*
X62740693Y-33426400D01*
X62688396Y-33148467D01*
X62524138Y-32893202D01*
X62360991Y-32781728D01*
X62382191Y-32750000D01*
X64135000Y-32750000D01*
X64517684Y-32673880D01*
X64842107Y-32457107D01*
X65878940Y-31420274D01*
X65999000Y-31370666D01*
X66039812Y-31329925D01*
X66079446Y-31369628D01*
X66079446Y-31369628D01*
G37*
X66079446Y-31369628D02*
X66200808Y-31420022D01*
X68507891Y-33727104D01*
X68507893Y-33727107D01*
X68832317Y-33943880D01*
X69215000Y-34020000D01*
X70729630Y-34020000D01*
X70882492Y-34124446D01*
X71180000Y-34184693D01*
X71505000Y-34184693D01*
X71505000Y-38545000D01*
X58670000Y-38545000D01*
X58670000Y-34652723D01*
X59141817Y-34495451D01*
X59179307Y-34472637D01*
X59179307Y-35153600D01*
X59231604Y-35431533D01*
X59395862Y-35686798D01*
X59646492Y-35858046D01*
X59944000Y-35918293D01*
X61976000Y-35918293D01*
X62253933Y-35865996D01*
X62509198Y-35701738D01*
X62680446Y-35451108D01*
X62740693Y-35153600D01*
X62740693Y-33426400D01*
X62688396Y-33148467D01*
X62524138Y-32893202D01*
X62360991Y-32781728D01*
X62382191Y-32750000D01*
X64135000Y-32750000D01*
X64517684Y-32673880D01*
X64842107Y-32457107D01*
X65878940Y-31420274D01*
X65999000Y-31370666D01*
X66039812Y-31329925D01*
X66079446Y-31369628D01*
G36*
X70631862Y-26333198D02*
X70882492Y-26504446D01*
X71180000Y-26564693D01*
X71505000Y-26564693D01*
X71505000Y-29330000D01*
X71030815Y-29330000D01*
X70755159Y-29444181D01*
X70544181Y-29655159D01*
X70430000Y-29930816D01*
X70430000Y-30242500D01*
X70617500Y-30430000D01*
X71505000Y-30430000D01*
X71505000Y-30530000D01*
X70617500Y-30530000D01*
X70430000Y-30717500D01*
X70430000Y-30750000D01*
X70264213Y-30750000D01*
X68454214Y-28940000D01*
X68580000Y-28940000D01*
X68962683Y-28863880D01*
X69287107Y-28647107D01*
X69503880Y-28322683D01*
X69580000Y-27940000D01*
X69580000Y-27558547D01*
X69734446Y-27332508D01*
X69794693Y-27035000D01*
X69794693Y-26535000D01*
X69747652Y-26285000D01*
X70600848Y-26285000D01*
X70631862Y-26333198D01*
X70631862Y-26333198D01*
G37*
X70631862Y-26333198D02*
X70882492Y-26504446D01*
X71180000Y-26564693D01*
X71505000Y-26564693D01*
X71505000Y-29330000D01*
X71030815Y-29330000D01*
X70755159Y-29444181D01*
X70544181Y-29655159D01*
X70430000Y-29930816D01*
X70430000Y-30242500D01*
X70617500Y-30430000D01*
X71505000Y-30430000D01*
X71505000Y-30530000D01*
X70617500Y-30530000D01*
X70430000Y-30717500D01*
X70430000Y-30750000D01*
X70264213Y-30750000D01*
X68454214Y-28940000D01*
X68580000Y-28940000D01*
X68962683Y-28863880D01*
X69287107Y-28647107D01*
X69503880Y-28322683D01*
X69580000Y-27940000D01*
X69580000Y-27558547D01*
X69734446Y-27332508D01*
X69794693Y-27035000D01*
X69794693Y-26535000D01*
X69747652Y-26285000D01*
X70600848Y-26285000D01*
X70631862Y-26333198D01*
G36*
X65675000Y-26340251D02*
X65625182Y-26460226D01*
X65624818Y-26877942D01*
X65633003Y-26897751D01*
X65614774Y-26890182D01*
X65197058Y-26889818D01*
X64811000Y-27049334D01*
X64515372Y-27344446D01*
X64355182Y-27730226D01*
X64354818Y-28147942D01*
X64380460Y-28210000D01*
X62382191Y-28210000D01*
X62287986Y-28069012D01*
X62094905Y-27940000D01*
X62287986Y-27810988D01*
X62637770Y-27287498D01*
X62760598Y-26670000D01*
X62637770Y-26052502D01*
X62287986Y-25529012D01*
X62076110Y-25387441D01*
X62288743Y-25235632D01*
X62622306Y-24701304D01*
X62697547Y-24431686D01*
X62537623Y-24180000D01*
X61010000Y-24180000D01*
X61010000Y-24200000D01*
X60910000Y-24200000D01*
X60910000Y-24180000D01*
X59382377Y-24180000D01*
X59222453Y-24431686D01*
X59297694Y-24701304D01*
X59631257Y-25235632D01*
X59843890Y-25387441D01*
X59632014Y-25529012D01*
X59282230Y-26052502D01*
X59194273Y-26494691D01*
X59141817Y-26464549D01*
X58670000Y-26307277D01*
X58670000Y-22690000D01*
X59604627Y-22690000D01*
X59632014Y-22730988D01*
X59843890Y-22872559D01*
X59631257Y-23024368D01*
X59297694Y-23558696D01*
X59222453Y-23828314D01*
X59382377Y-24080000D01*
X60910000Y-24080000D01*
X60910000Y-24060000D01*
X61010000Y-24060000D01*
X61010000Y-24080000D01*
X62537623Y-24080000D01*
X62697547Y-23828314D01*
X62622306Y-23558696D01*
X62288743Y-23024368D01*
X62076110Y-22872559D01*
X62287986Y-22730988D01*
X62382191Y-22590000D01*
X65675000Y-22590000D01*
X65675000Y-26340251D01*
X65675000Y-26340251D01*
G37*
X65675000Y-26340251D02*
X65625182Y-26460226D01*
X65624818Y-26877942D01*
X65633003Y-26897751D01*
X65614774Y-26890182D01*
X65197058Y-26889818D01*
X64811000Y-27049334D01*
X64515372Y-27344446D01*
X64355182Y-27730226D01*
X64354818Y-28147942D01*
X64380460Y-28210000D01*
X62382191Y-28210000D01*
X62287986Y-28069012D01*
X62094905Y-27940000D01*
X62287986Y-27810988D01*
X62637770Y-27287498D01*
X62760598Y-26670000D01*
X62637770Y-26052502D01*
X62287986Y-25529012D01*
X62076110Y-25387441D01*
X62288743Y-25235632D01*
X62622306Y-24701304D01*
X62697547Y-24431686D01*
X62537623Y-24180000D01*
X61010000Y-24180000D01*
X61010000Y-24200000D01*
X60910000Y-24200000D01*
X60910000Y-24180000D01*
X59382377Y-24180000D01*
X59222453Y-24431686D01*
X59297694Y-24701304D01*
X59631257Y-25235632D01*
X59843890Y-25387441D01*
X59632014Y-25529012D01*
X59282230Y-26052502D01*
X59194273Y-26494691D01*
X59141817Y-26464549D01*
X58670000Y-26307277D01*
X58670000Y-22690000D01*
X59604627Y-22690000D01*
X59632014Y-22730988D01*
X59843890Y-22872559D01*
X59631257Y-23024368D01*
X59297694Y-23558696D01*
X59222453Y-23828314D01*
X59382377Y-24080000D01*
X60910000Y-24080000D01*
X60910000Y-24060000D01*
X61010000Y-24060000D01*
X61010000Y-24080000D01*
X62537623Y-24080000D01*
X62697547Y-23828314D01*
X62622306Y-23558696D01*
X62288743Y-23024368D01*
X62076110Y-22872559D01*
X62287986Y-22730988D01*
X62382191Y-22590000D01*
X65675000Y-22590000D01*
X65675000Y-26340251D01*
G36*
X70415307Y-23260000D02*
X70467604Y-23537933D01*
X70631862Y-23793198D01*
X70882492Y-23964446D01*
X71180000Y-24024693D01*
X71505000Y-24024693D01*
X71505000Y-24235307D01*
X71180000Y-24235307D01*
X70915906Y-24285000D01*
X69102556Y-24285000D01*
X69030000Y-24270307D01*
X68130000Y-24270307D01*
X67852067Y-24322604D01*
X67675000Y-24436543D01*
X67675000Y-22590000D01*
X70415307Y-22590000D01*
X70415307Y-23260000D01*
X70415307Y-23260000D01*
G37*
X70415307Y-23260000D02*
X70467604Y-23537933D01*
X70631862Y-23793198D01*
X70882492Y-23964446D01*
X71180000Y-24024693D01*
X71505000Y-24024693D01*
X71505000Y-24235307D01*
X71180000Y-24235307D01*
X70915906Y-24285000D01*
X69102556Y-24285000D01*
X69030000Y-24270307D01*
X68130000Y-24270307D01*
X67852067Y-24322604D01*
X67675000Y-24436543D01*
X67675000Y-22590000D01*
X70415307Y-22590000D01*
X70415307Y-23260000D01*
G36*
X71505000Y-17459924D02*
X71380426Y-17425357D01*
X71170000Y-17588576D01*
X71170000Y-19000000D01*
X71190000Y-19000000D01*
X71190000Y-19100000D01*
X71170000Y-19100000D01*
X71170000Y-19120000D01*
X71070000Y-19120000D01*
X71070000Y-19100000D01*
X69770000Y-19100000D01*
X69770000Y-19400000D01*
X69891897Y-19912817D01*
X70200762Y-20339950D01*
X70606753Y-20590000D01*
X62382191Y-20590000D01*
X62287986Y-20449012D01*
X61764496Y-20099228D01*
X61146998Y-19976400D01*
X60773002Y-19976400D01*
X60155504Y-20099228D01*
X59632014Y-20449012D01*
X59604627Y-20490000D01*
X58670000Y-20490000D01*
X58670000Y-18700000D01*
X69770000Y-18700000D01*
X69770000Y-19000000D01*
X71070000Y-19000000D01*
X71070000Y-17588576D01*
X70859574Y-17425357D01*
X70649572Y-17483628D01*
X70200762Y-17760050D01*
X69891897Y-18187183D01*
X69770000Y-18700000D01*
X58670000Y-18700000D01*
X58670000Y-17335000D01*
X71505000Y-17335000D01*
X71505000Y-17459924D01*
X71505000Y-17459924D01*
G37*
X71505000Y-17459924D02*
X71380426Y-17425357D01*
X71170000Y-17588576D01*
X71170000Y-19000000D01*
X71190000Y-19000000D01*
X71190000Y-19100000D01*
X71170000Y-19100000D01*
X71170000Y-19120000D01*
X71070000Y-19120000D01*
X71070000Y-19100000D01*
X69770000Y-19100000D01*
X69770000Y-19400000D01*
X69891897Y-19912817D01*
X70200762Y-20339950D01*
X70606753Y-20590000D01*
X62382191Y-20590000D01*
X62287986Y-20449012D01*
X61764496Y-20099228D01*
X61146998Y-19976400D01*
X60773002Y-19976400D01*
X60155504Y-20099228D01*
X59632014Y-20449012D01*
X59604627Y-20490000D01*
X58670000Y-20490000D01*
X58670000Y-18700000D01*
X69770000Y-18700000D01*
X69770000Y-19000000D01*
X71070000Y-19000000D01*
X71070000Y-17588576D01*
X70859574Y-17425357D01*
X70649572Y-17483628D01*
X70200762Y-17760050D01*
X69891897Y-18187183D01*
X69770000Y-18700000D01*
X58670000Y-18700000D01*
X58670000Y-17335000D01*
X71505000Y-17335000D01*
X71505000Y-17459924D01*
G36*
X50022183Y-22367818D02*
X50160144Y-22460000D01*
X50379048Y-22606267D01*
X50800000Y-22690000D01*
X51984627Y-22690000D01*
X52012014Y-22730988D01*
X52223890Y-22872559D01*
X52011257Y-23024368D01*
X51677694Y-23558696D01*
X51602453Y-23828314D01*
X51762377Y-24080000D01*
X53290000Y-24080000D01*
X53290000Y-24060000D01*
X53390000Y-24060000D01*
X53390000Y-24080000D01*
X54917623Y-24080000D01*
X55077547Y-23828314D01*
X55002306Y-23558696D01*
X54668743Y-23024368D01*
X54456110Y-22872559D01*
X54667986Y-22730988D01*
X54695373Y-22690000D01*
X55630000Y-22690000D01*
X55630000Y-26307277D01*
X55158183Y-26464549D01*
X55106043Y-26496278D01*
X55017770Y-26052502D01*
X54667986Y-25529012D01*
X54456110Y-25387441D01*
X54668743Y-25235632D01*
X55002306Y-24701304D01*
X55077547Y-24431686D01*
X54917623Y-24180000D01*
X53390000Y-24180000D01*
X53390000Y-24200000D01*
X53290000Y-24200000D01*
X53290000Y-24180000D01*
X51762377Y-24180000D01*
X51602453Y-24431686D01*
X51677694Y-24701304D01*
X52011257Y-25235632D01*
X52223890Y-25387441D01*
X52012014Y-25529012D01*
X51662230Y-26052502D01*
X51539402Y-26670000D01*
X51662230Y-27287498D01*
X52012014Y-27810988D01*
X52205095Y-27940000D01*
X52012014Y-28069012D01*
X51917809Y-28210000D01*
X50165000Y-28210000D01*
X49782317Y-28286120D01*
X49457893Y-28502893D01*
X49457891Y-28502896D01*
X47210786Y-30750000D01*
X41389693Y-30750000D01*
X41389693Y-30180000D01*
X41337396Y-29902067D01*
X41302204Y-29847377D01*
X41329446Y-29807508D01*
X41389693Y-29510000D01*
X41389693Y-28910000D01*
X41337396Y-28632067D01*
X41302204Y-28577377D01*
X41329446Y-28537508D01*
X41389693Y-28240000D01*
X41389693Y-27640000D01*
X41337396Y-27362067D01*
X41302204Y-27307377D01*
X41329446Y-27267508D01*
X41389693Y-26970000D01*
X41389693Y-26400000D01*
X42485307Y-26400000D01*
X42485307Y-27815000D01*
X42537604Y-28092933D01*
X42701862Y-28348198D01*
X42952492Y-28519446D01*
X43250000Y-28579693D01*
X45650000Y-28579693D01*
X45927933Y-28527396D01*
X46094832Y-28420000D01*
X46799630Y-28420000D01*
X46952492Y-28524446D01*
X47250000Y-28584693D01*
X48000000Y-28584693D01*
X48277933Y-28532396D01*
X48533198Y-28368138D01*
X48704446Y-28117508D01*
X48764693Y-27820000D01*
X48764693Y-27020000D01*
X48712396Y-26742067D01*
X48666507Y-26670753D01*
X48750000Y-26469184D01*
X48750000Y-26157500D01*
X48562500Y-25970000D01*
X47675000Y-25970000D01*
X47675000Y-25990000D01*
X47575000Y-25990000D01*
X47575000Y-25970000D01*
X46687500Y-25970000D01*
X46500000Y-26157500D01*
X46500000Y-26420000D01*
X46414693Y-26420000D01*
X46414693Y-25815000D01*
X46362396Y-25537067D01*
X46255417Y-25370816D01*
X46500000Y-25370816D01*
X46500000Y-25682500D01*
X46687500Y-25870000D01*
X47575000Y-25870000D01*
X47575000Y-24957500D01*
X47675000Y-24957500D01*
X47675000Y-25870000D01*
X48562500Y-25870000D01*
X48750000Y-25682500D01*
X48750000Y-25370816D01*
X48635819Y-25095159D01*
X48424841Y-24884181D01*
X48149185Y-24770000D01*
X47862500Y-24770000D01*
X47675000Y-24957500D01*
X47575000Y-24957500D01*
X47387500Y-24770000D01*
X47100815Y-24770000D01*
X46825159Y-24884181D01*
X46614181Y-25095159D01*
X46500000Y-25370816D01*
X46255417Y-25370816D01*
X46198138Y-25281802D01*
X45947508Y-25110554D01*
X45650000Y-25050307D01*
X44099521Y-25050307D01*
X43814214Y-24765000D01*
X44099521Y-24479693D01*
X45650000Y-24479693D01*
X45927933Y-24427396D01*
X46183198Y-24263138D01*
X46354446Y-24012508D01*
X46387861Y-23847500D01*
X46500000Y-23847500D01*
X46500000Y-24159184D01*
X46614181Y-24434841D01*
X46825159Y-24645819D01*
X47100815Y-24760000D01*
X47387500Y-24760000D01*
X47575000Y-24572500D01*
X47575000Y-23660000D01*
X47675000Y-23660000D01*
X47675000Y-24572500D01*
X47862500Y-24760000D01*
X48149185Y-24760000D01*
X48424841Y-24645819D01*
X48635819Y-24434841D01*
X48750000Y-24159184D01*
X48750000Y-23847500D01*
X48562500Y-23660000D01*
X47675000Y-23660000D01*
X47575000Y-23660000D01*
X46687500Y-23660000D01*
X46500000Y-23847500D01*
X46387861Y-23847500D01*
X46414693Y-23715000D01*
X46414693Y-23110000D01*
X46500000Y-23110000D01*
X46500000Y-23372500D01*
X46687500Y-23560000D01*
X47575000Y-23560000D01*
X47575000Y-23540000D01*
X47675000Y-23540000D01*
X47675000Y-23560000D01*
X48562500Y-23560000D01*
X48750000Y-23372500D01*
X48750000Y-23060816D01*
X48667484Y-22861604D01*
X48704446Y-22807508D01*
X48764693Y-22510000D01*
X48764693Y-21710000D01*
X48712396Y-21432067D01*
X48548138Y-21176802D01*
X48297508Y-21005554D01*
X48000000Y-20945307D01*
X47250000Y-20945307D01*
X46972067Y-20997604D01*
X46797398Y-21110000D01*
X46093052Y-21110000D01*
X45947508Y-21010554D01*
X45650000Y-20950307D01*
X43250000Y-20950307D01*
X42972067Y-21002604D01*
X42716802Y-21166862D01*
X42545554Y-21417492D01*
X42485307Y-21715000D01*
X42485307Y-23130000D01*
X41375000Y-23130000D01*
X41375000Y-23097500D01*
X41187500Y-22910000D01*
X39675000Y-22910000D01*
X39675000Y-22930000D01*
X39575000Y-22930000D01*
X39575000Y-22910000D01*
X38062500Y-22910000D01*
X37875000Y-23097500D01*
X37875000Y-23309185D01*
X37949780Y-23489719D01*
X37920554Y-23532492D01*
X37860307Y-23830000D01*
X37860307Y-24430000D01*
X37912604Y-24707933D01*
X37947796Y-24762623D01*
X37920554Y-24802492D01*
X37860307Y-25100000D01*
X37860307Y-25700000D01*
X37912604Y-25977933D01*
X37947796Y-26032623D01*
X37920554Y-26072492D01*
X37860307Y-26370000D01*
X37860307Y-26970000D01*
X37912604Y-27247933D01*
X37947796Y-27302623D01*
X37920554Y-27342492D01*
X37860307Y-27640000D01*
X37860307Y-28240000D01*
X37912604Y-28517933D01*
X37947796Y-28572623D01*
X37920554Y-28612492D01*
X37860307Y-28910000D01*
X37860307Y-29510000D01*
X37912604Y-29787933D01*
X37947796Y-29842623D01*
X37920554Y-29882492D01*
X37860307Y-30180000D01*
X37860307Y-30780000D01*
X37912604Y-31057933D01*
X37947796Y-31112623D01*
X37920554Y-31152492D01*
X37860307Y-31450000D01*
X37860307Y-32050000D01*
X37912604Y-32327933D01*
X37947796Y-32382623D01*
X37920554Y-32422492D01*
X37860307Y-32720000D01*
X37860307Y-33320000D01*
X37912604Y-33597933D01*
X38076862Y-33853198D01*
X38327492Y-34024446D01*
X38625000Y-34084693D01*
X40625000Y-34084693D01*
X40902933Y-34032396D01*
X40922197Y-34020000D01*
X48895000Y-34020000D01*
X49277684Y-33943880D01*
X49602107Y-33727107D01*
X50579214Y-32750000D01*
X51917809Y-32750000D01*
X51939554Y-32782543D01*
X51790802Y-32878262D01*
X51619554Y-33128892D01*
X51559307Y-33426400D01*
X51559307Y-35153600D01*
X51611604Y-35431533D01*
X51775862Y-35686798D01*
X52026492Y-35858046D01*
X52324000Y-35918293D01*
X54356000Y-35918293D01*
X54633933Y-35865996D01*
X54889198Y-35701738D01*
X55060446Y-35451108D01*
X55120693Y-35153600D01*
X55120693Y-34473908D01*
X55158183Y-34495451D01*
X55630000Y-34652723D01*
X55630000Y-38545000D01*
X16065000Y-38545000D01*
X16065000Y-37164214D01*
X17072893Y-38172107D01*
X17397316Y-38388880D01*
X17780000Y-38465000D01*
X24130000Y-38465000D01*
X24512684Y-38388880D01*
X24837107Y-38172107D01*
X26742107Y-36267107D01*
X26958880Y-35942684D01*
X27035000Y-35560000D01*
X27035000Y-34704214D01*
X28460307Y-33278906D01*
X28460307Y-33320000D01*
X28512604Y-33597933D01*
X28676862Y-33853198D01*
X28927492Y-34024446D01*
X29225000Y-34084693D01*
X29439439Y-34084693D01*
X29517893Y-34202107D01*
X32160307Y-36844521D01*
X32160307Y-37445000D01*
X32212604Y-37722933D01*
X32376862Y-37978198D01*
X32627492Y-38149446D01*
X32925000Y-38209693D01*
X33925000Y-38209693D01*
X34202933Y-38157396D01*
X34458198Y-37993138D01*
X34629446Y-37742508D01*
X34689693Y-37445000D01*
X34689693Y-36432500D01*
X35175000Y-36432500D01*
X35175000Y-37594185D01*
X35289181Y-37869841D01*
X35500159Y-38080819D01*
X35775816Y-38195000D01*
X36187500Y-38195000D01*
X36375000Y-38007500D01*
X36375000Y-36245000D01*
X36475000Y-36245000D01*
X36475000Y-38007500D01*
X36662500Y-38195000D01*
X37074184Y-38195000D01*
X37349841Y-38080819D01*
X37560819Y-37869841D01*
X37675000Y-37594185D01*
X37675000Y-36432500D01*
X37487500Y-36245000D01*
X36475000Y-36245000D01*
X36375000Y-36245000D01*
X35362500Y-36245000D01*
X35175000Y-36432500D01*
X34689693Y-36432500D01*
X34689693Y-34945000D01*
X34661622Y-34795815D01*
X35175000Y-34795815D01*
X35175000Y-35957500D01*
X35362500Y-36145000D01*
X36375000Y-36145000D01*
X36375000Y-34382500D01*
X36475000Y-34382500D01*
X36475000Y-36145000D01*
X37487500Y-36145000D01*
X37675000Y-35957500D01*
X37675000Y-34795815D01*
X37560819Y-34520159D01*
X37349841Y-34309181D01*
X37074184Y-34195000D01*
X36662500Y-34195000D01*
X36475000Y-34382500D01*
X36375000Y-34382500D01*
X36187500Y-34195000D01*
X35775816Y-34195000D01*
X35500159Y-34309181D01*
X35289181Y-34520159D01*
X35175000Y-34795815D01*
X34661622Y-34795815D01*
X34637396Y-34667067D01*
X34473138Y-34411802D01*
X34222508Y-34240554D01*
X33925000Y-34180307D01*
X32925000Y-34180307D01*
X32647067Y-34232604D01*
X32482630Y-34338416D01*
X32095492Y-33951278D01*
X32132684Y-33943880D01*
X32457107Y-33727107D01*
X33092107Y-33092107D01*
X33308880Y-32767684D01*
X33385001Y-32385000D01*
X33385000Y-32384995D01*
X33385000Y-22690000D01*
X37942500Y-22690000D01*
X38062500Y-22810000D01*
X39575000Y-22810000D01*
X39575000Y-22790000D01*
X39675000Y-22790000D01*
X39675000Y-22810000D01*
X41187500Y-22810000D01*
X41375000Y-22622500D01*
X41375000Y-22410815D01*
X41260819Y-22135159D01*
X41049841Y-21924181D01*
X40774184Y-21810000D01*
X40705634Y-21810000D01*
X41730635Y-20785000D01*
X48439366Y-20785000D01*
X50022183Y-22367818D01*
X50022183Y-22367818D01*
G37*
X50022183Y-22367818D02*
X50160144Y-22460000D01*
X50379048Y-22606267D01*
X50800000Y-22690000D01*
X51984627Y-22690000D01*
X52012014Y-22730988D01*
X52223890Y-22872559D01*
X52011257Y-23024368D01*
X51677694Y-23558696D01*
X51602453Y-23828314D01*
X51762377Y-24080000D01*
X53290000Y-24080000D01*
X53290000Y-24060000D01*
X53390000Y-24060000D01*
X53390000Y-24080000D01*
X54917623Y-24080000D01*
X55077547Y-23828314D01*
X55002306Y-23558696D01*
X54668743Y-23024368D01*
X54456110Y-22872559D01*
X54667986Y-22730988D01*
X54695373Y-22690000D01*
X55630000Y-22690000D01*
X55630000Y-26307277D01*
X55158183Y-26464549D01*
X55106043Y-26496278D01*
X55017770Y-26052502D01*
X54667986Y-25529012D01*
X54456110Y-25387441D01*
X54668743Y-25235632D01*
X55002306Y-24701304D01*
X55077547Y-24431686D01*
X54917623Y-24180000D01*
X53390000Y-24180000D01*
X53390000Y-24200000D01*
X53290000Y-24200000D01*
X53290000Y-24180000D01*
X51762377Y-24180000D01*
X51602453Y-24431686D01*
X51677694Y-24701304D01*
X52011257Y-25235632D01*
X52223890Y-25387441D01*
X52012014Y-25529012D01*
X51662230Y-26052502D01*
X51539402Y-26670000D01*
X51662230Y-27287498D01*
X52012014Y-27810988D01*
X52205095Y-27940000D01*
X52012014Y-28069012D01*
X51917809Y-28210000D01*
X50165000Y-28210000D01*
X49782317Y-28286120D01*
X49457893Y-28502893D01*
X49457891Y-28502896D01*
X47210786Y-30750000D01*
X41389693Y-30750000D01*
X41389693Y-30180000D01*
X41337396Y-29902067D01*
X41302204Y-29847377D01*
X41329446Y-29807508D01*
X41389693Y-29510000D01*
X41389693Y-28910000D01*
X41337396Y-28632067D01*
X41302204Y-28577377D01*
X41329446Y-28537508D01*
X41389693Y-28240000D01*
X41389693Y-27640000D01*
X41337396Y-27362067D01*
X41302204Y-27307377D01*
X41329446Y-27267508D01*
X41389693Y-26970000D01*
X41389693Y-26400000D01*
X42485307Y-26400000D01*
X42485307Y-27815000D01*
X42537604Y-28092933D01*
X42701862Y-28348198D01*
X42952492Y-28519446D01*
X43250000Y-28579693D01*
X45650000Y-28579693D01*
X45927933Y-28527396D01*
X46094832Y-28420000D01*
X46799630Y-28420000D01*
X46952492Y-28524446D01*
X47250000Y-28584693D01*
X48000000Y-28584693D01*
X48277933Y-28532396D01*
X48533198Y-28368138D01*
X48704446Y-28117508D01*
X48764693Y-27820000D01*
X48764693Y-27020000D01*
X48712396Y-26742067D01*
X48666507Y-26670753D01*
X48750000Y-26469184D01*
X48750000Y-26157500D01*
X48562500Y-25970000D01*
X47675000Y-25970000D01*
X47675000Y-25990000D01*
X47575000Y-25990000D01*
X47575000Y-25970000D01*
X46687500Y-25970000D01*
X46500000Y-26157500D01*
X46500000Y-26420000D01*
X46414693Y-26420000D01*
X46414693Y-25815000D01*
X46362396Y-25537067D01*
X46255417Y-25370816D01*
X46500000Y-25370816D01*
X46500000Y-25682500D01*
X46687500Y-25870000D01*
X47575000Y-25870000D01*
X47575000Y-24957500D01*
X47675000Y-24957500D01*
X47675000Y-25870000D01*
X48562500Y-25870000D01*
X48750000Y-25682500D01*
X48750000Y-25370816D01*
X48635819Y-25095159D01*
X48424841Y-24884181D01*
X48149185Y-24770000D01*
X47862500Y-24770000D01*
X47675000Y-24957500D01*
X47575000Y-24957500D01*
X47387500Y-24770000D01*
X47100815Y-24770000D01*
X46825159Y-24884181D01*
X46614181Y-25095159D01*
X46500000Y-25370816D01*
X46255417Y-25370816D01*
X46198138Y-25281802D01*
X45947508Y-25110554D01*
X45650000Y-25050307D01*
X44099521Y-25050307D01*
X43814214Y-24765000D01*
X44099521Y-24479693D01*
X45650000Y-24479693D01*
X45927933Y-24427396D01*
X46183198Y-24263138D01*
X46354446Y-24012508D01*
X46387861Y-23847500D01*
X46500000Y-23847500D01*
X46500000Y-24159184D01*
X46614181Y-24434841D01*
X46825159Y-24645819D01*
X47100815Y-24760000D01*
X47387500Y-24760000D01*
X47575000Y-24572500D01*
X47575000Y-23660000D01*
X47675000Y-23660000D01*
X47675000Y-24572500D01*
X47862500Y-24760000D01*
X48149185Y-24760000D01*
X48424841Y-24645819D01*
X48635819Y-24434841D01*
X48750000Y-24159184D01*
X48750000Y-23847500D01*
X48562500Y-23660000D01*
X47675000Y-23660000D01*
X47575000Y-23660000D01*
X46687500Y-23660000D01*
X46500000Y-23847500D01*
X46387861Y-23847500D01*
X46414693Y-23715000D01*
X46414693Y-23110000D01*
X46500000Y-23110000D01*
X46500000Y-23372500D01*
X46687500Y-23560000D01*
X47575000Y-23560000D01*
X47575000Y-23540000D01*
X47675000Y-23540000D01*
X47675000Y-23560000D01*
X48562500Y-23560000D01*
X48750000Y-23372500D01*
X48750000Y-23060816D01*
X48667484Y-22861604D01*
X48704446Y-22807508D01*
X48764693Y-22510000D01*
X48764693Y-21710000D01*
X48712396Y-21432067D01*
X48548138Y-21176802D01*
X48297508Y-21005554D01*
X48000000Y-20945307D01*
X47250000Y-20945307D01*
X46972067Y-20997604D01*
X46797398Y-21110000D01*
X46093052Y-21110000D01*
X45947508Y-21010554D01*
X45650000Y-20950307D01*
X43250000Y-20950307D01*
X42972067Y-21002604D01*
X42716802Y-21166862D01*
X42545554Y-21417492D01*
X42485307Y-21715000D01*
X42485307Y-23130000D01*
X41375000Y-23130000D01*
X41375000Y-23097500D01*
X41187500Y-22910000D01*
X39675000Y-22910000D01*
X39675000Y-22930000D01*
X39575000Y-22930000D01*
X39575000Y-22910000D01*
X38062500Y-22910000D01*
X37875000Y-23097500D01*
X37875000Y-23309185D01*
X37949780Y-23489719D01*
X37920554Y-23532492D01*
X37860307Y-23830000D01*
X37860307Y-24430000D01*
X37912604Y-24707933D01*
X37947796Y-24762623D01*
X37920554Y-24802492D01*
X37860307Y-25100000D01*
X37860307Y-25700000D01*
X37912604Y-25977933D01*
X37947796Y-26032623D01*
X37920554Y-26072492D01*
X37860307Y-26370000D01*
X37860307Y-26970000D01*
X37912604Y-27247933D01*
X37947796Y-27302623D01*
X37920554Y-27342492D01*
X37860307Y-27640000D01*
X37860307Y-28240000D01*
X37912604Y-28517933D01*
X37947796Y-28572623D01*
X37920554Y-28612492D01*
X37860307Y-28910000D01*
X37860307Y-29510000D01*
X37912604Y-29787933D01*
X37947796Y-29842623D01*
X37920554Y-29882492D01*
X37860307Y-30180000D01*
X37860307Y-30780000D01*
X37912604Y-31057933D01*
X37947796Y-31112623D01*
X37920554Y-31152492D01*
X37860307Y-31450000D01*
X37860307Y-32050000D01*
X37912604Y-32327933D01*
X37947796Y-32382623D01*
X37920554Y-32422492D01*
X37860307Y-32720000D01*
X37860307Y-33320000D01*
X37912604Y-33597933D01*
X38076862Y-33853198D01*
X38327492Y-34024446D01*
X38625000Y-34084693D01*
X40625000Y-34084693D01*
X40902933Y-34032396D01*
X40922197Y-34020000D01*
X48895000Y-34020000D01*
X49277684Y-33943880D01*
X49602107Y-33727107D01*
X50579214Y-32750000D01*
X51917809Y-32750000D01*
X51939554Y-32782543D01*
X51790802Y-32878262D01*
X51619554Y-33128892D01*
X51559307Y-33426400D01*
X51559307Y-35153600D01*
X51611604Y-35431533D01*
X51775862Y-35686798D01*
X52026492Y-35858046D01*
X52324000Y-35918293D01*
X54356000Y-35918293D01*
X54633933Y-35865996D01*
X54889198Y-35701738D01*
X55060446Y-35451108D01*
X55120693Y-35153600D01*
X55120693Y-34473908D01*
X55158183Y-34495451D01*
X55630000Y-34652723D01*
X55630000Y-38545000D01*
X16065000Y-38545000D01*
X16065000Y-37164214D01*
X17072893Y-38172107D01*
X17397316Y-38388880D01*
X17780000Y-38465000D01*
X24130000Y-38465000D01*
X24512684Y-38388880D01*
X24837107Y-38172107D01*
X26742107Y-36267107D01*
X26958880Y-35942684D01*
X27035000Y-35560000D01*
X27035000Y-34704214D01*
X28460307Y-33278906D01*
X28460307Y-33320000D01*
X28512604Y-33597933D01*
X28676862Y-33853198D01*
X28927492Y-34024446D01*
X29225000Y-34084693D01*
X29439439Y-34084693D01*
X29517893Y-34202107D01*
X32160307Y-36844521D01*
X32160307Y-37445000D01*
X32212604Y-37722933D01*
X32376862Y-37978198D01*
X32627492Y-38149446D01*
X32925000Y-38209693D01*
X33925000Y-38209693D01*
X34202933Y-38157396D01*
X34458198Y-37993138D01*
X34629446Y-37742508D01*
X34689693Y-37445000D01*
X34689693Y-36432500D01*
X35175000Y-36432500D01*
X35175000Y-37594185D01*
X35289181Y-37869841D01*
X35500159Y-38080819D01*
X35775816Y-38195000D01*
X36187500Y-38195000D01*
X36375000Y-38007500D01*
X36375000Y-36245000D01*
X36475000Y-36245000D01*
X36475000Y-38007500D01*
X36662500Y-38195000D01*
X37074184Y-38195000D01*
X37349841Y-38080819D01*
X37560819Y-37869841D01*
X37675000Y-37594185D01*
X37675000Y-36432500D01*
X37487500Y-36245000D01*
X36475000Y-36245000D01*
X36375000Y-36245000D01*
X35362500Y-36245000D01*
X35175000Y-36432500D01*
X34689693Y-36432500D01*
X34689693Y-34945000D01*
X34661622Y-34795815D01*
X35175000Y-34795815D01*
X35175000Y-35957500D01*
X35362500Y-36145000D01*
X36375000Y-36145000D01*
X36375000Y-34382500D01*
X36475000Y-34382500D01*
X36475000Y-36145000D01*
X37487500Y-36145000D01*
X37675000Y-35957500D01*
X37675000Y-34795815D01*
X37560819Y-34520159D01*
X37349841Y-34309181D01*
X37074184Y-34195000D01*
X36662500Y-34195000D01*
X36475000Y-34382500D01*
X36375000Y-34382500D01*
X36187500Y-34195000D01*
X35775816Y-34195000D01*
X35500159Y-34309181D01*
X35289181Y-34520159D01*
X35175000Y-34795815D01*
X34661622Y-34795815D01*
X34637396Y-34667067D01*
X34473138Y-34411802D01*
X34222508Y-34240554D01*
X33925000Y-34180307D01*
X32925000Y-34180307D01*
X32647067Y-34232604D01*
X32482630Y-34338416D01*
X32095492Y-33951278D01*
X32132684Y-33943880D01*
X32457107Y-33727107D01*
X33092107Y-33092107D01*
X33308880Y-32767684D01*
X33385001Y-32385000D01*
X33385000Y-32384995D01*
X33385000Y-22690000D01*
X37942500Y-22690000D01*
X38062500Y-22810000D01*
X39575000Y-22810000D01*
X39575000Y-22790000D01*
X39675000Y-22790000D01*
X39675000Y-22810000D01*
X41187500Y-22810000D01*
X41375000Y-22622500D01*
X41375000Y-22410815D01*
X41260819Y-22135159D01*
X41049841Y-21924181D01*
X40774184Y-21810000D01*
X40705634Y-21810000D01*
X41730635Y-20785000D01*
X48439366Y-20785000D01*
X50022183Y-22367818D01*
G36*
X55630000Y-20490000D02*
X54695373Y-20490000D01*
X54667986Y-20449012D01*
X54144496Y-20099228D01*
X53526998Y-19976400D01*
X53153002Y-19976400D01*
X52535504Y-20099228D01*
X52012014Y-20449012D01*
X51984627Y-20490000D01*
X51255635Y-20490000D01*
X49672817Y-18907183D01*
X49672816Y-18907182D01*
X49315952Y-18668733D01*
X48895000Y-18585000D01*
X41275000Y-18585000D01*
X40854048Y-18668733D01*
X40711108Y-18764242D01*
X40497183Y-18907182D01*
X38914366Y-20490000D01*
X21519987Y-20490000D01*
X21492600Y-20449012D01*
X20969110Y-20099228D01*
X20351612Y-19976400D01*
X20288388Y-19976400D01*
X19670890Y-20099228D01*
X19147400Y-20449012D01*
X19050000Y-20594782D01*
X18952600Y-20449012D01*
X18429110Y-20099228D01*
X17811612Y-19976400D01*
X17748388Y-19976400D01*
X17130890Y-20099228D01*
X16607400Y-20449012D01*
X16257616Y-20972502D01*
X16134788Y-21590000D01*
X16257616Y-22207498D01*
X16607400Y-22730988D01*
X16808715Y-22865502D01*
X16445804Y-23222454D01*
X16200061Y-23802112D01*
X16194853Y-23828314D01*
X16354777Y-24080000D01*
X17730000Y-24080000D01*
X17730000Y-24060000D01*
X17830000Y-24060000D01*
X17830000Y-24080000D01*
X20270000Y-24080000D01*
X20270000Y-24060000D01*
X20370000Y-24060000D01*
X20370000Y-24080000D01*
X21745223Y-24080000D01*
X21905147Y-23828314D01*
X21899939Y-23802112D01*
X21654196Y-23222454D01*
X21291285Y-22865502D01*
X21492600Y-22730988D01*
X21519987Y-22690000D01*
X28460307Y-22690000D01*
X28460307Y-23160000D01*
X28512604Y-23437933D01*
X28547796Y-23492623D01*
X28520554Y-23532492D01*
X28460307Y-23830000D01*
X28460307Y-24400000D01*
X26999749Y-24400000D01*
X26879774Y-24350182D01*
X26462058Y-24349818D01*
X26076000Y-24509334D01*
X25780372Y-24804446D01*
X25620182Y-25190226D01*
X25619818Y-25607942D01*
X25645460Y-25670000D01*
X21586805Y-25670000D01*
X21492600Y-25529012D01*
X21291285Y-25394498D01*
X21654196Y-25037546D01*
X21899939Y-24457888D01*
X21905147Y-24431686D01*
X21745223Y-24180000D01*
X20370000Y-24180000D01*
X20370000Y-24200000D01*
X20270000Y-24200000D01*
X20270000Y-24180000D01*
X17830000Y-24180000D01*
X17830000Y-24200000D01*
X17730000Y-24200000D01*
X17730000Y-24180000D01*
X16354777Y-24180000D01*
X16194853Y-24431686D01*
X16200061Y-24457888D01*
X16445804Y-25037546D01*
X16808715Y-25394498D01*
X16607400Y-25529012D01*
X16257616Y-26052502D01*
X16134788Y-26670000D01*
X16257616Y-27287498D01*
X16607400Y-27810988D01*
X16800481Y-27940000D01*
X16607400Y-28069012D01*
X16257616Y-28592502D01*
X16134788Y-29210000D01*
X16257616Y-29827498D01*
X16607400Y-30350988D01*
X16800481Y-30480000D01*
X16607400Y-30609012D01*
X16513195Y-30750000D01*
X16510005Y-30750000D01*
X16510000Y-30749999D01*
X16127316Y-30826120D01*
X16065000Y-30867758D01*
X16065000Y-17335000D01*
X55630000Y-17335000D01*
X55630000Y-20490000D01*
X55630000Y-20490000D01*
G37*
X55630000Y-20490000D02*
X54695373Y-20490000D01*
X54667986Y-20449012D01*
X54144496Y-20099228D01*
X53526998Y-19976400D01*
X53153002Y-19976400D01*
X52535504Y-20099228D01*
X52012014Y-20449012D01*
X51984627Y-20490000D01*
X51255635Y-20490000D01*
X49672817Y-18907183D01*
X49672816Y-18907182D01*
X49315952Y-18668733D01*
X48895000Y-18585000D01*
X41275000Y-18585000D01*
X40854048Y-18668733D01*
X40711108Y-18764242D01*
X40497183Y-18907182D01*
X38914366Y-20490000D01*
X21519987Y-20490000D01*
X21492600Y-20449012D01*
X20969110Y-20099228D01*
X20351612Y-19976400D01*
X20288388Y-19976400D01*
X19670890Y-20099228D01*
X19147400Y-20449012D01*
X19050000Y-20594782D01*
X18952600Y-20449012D01*
X18429110Y-20099228D01*
X17811612Y-19976400D01*
X17748388Y-19976400D01*
X17130890Y-20099228D01*
X16607400Y-20449012D01*
X16257616Y-20972502D01*
X16134788Y-21590000D01*
X16257616Y-22207498D01*
X16607400Y-22730988D01*
X16808715Y-22865502D01*
X16445804Y-23222454D01*
X16200061Y-23802112D01*
X16194853Y-23828314D01*
X16354777Y-24080000D01*
X17730000Y-24080000D01*
X17730000Y-24060000D01*
X17830000Y-24060000D01*
X17830000Y-24080000D01*
X20270000Y-24080000D01*
X20270000Y-24060000D01*
X20370000Y-24060000D01*
X20370000Y-24080000D01*
X21745223Y-24080000D01*
X21905147Y-23828314D01*
X21899939Y-23802112D01*
X21654196Y-23222454D01*
X21291285Y-22865502D01*
X21492600Y-22730988D01*
X21519987Y-22690000D01*
X28460307Y-22690000D01*
X28460307Y-23160000D01*
X28512604Y-23437933D01*
X28547796Y-23492623D01*
X28520554Y-23532492D01*
X28460307Y-23830000D01*
X28460307Y-24400000D01*
X26999749Y-24400000D01*
X26879774Y-24350182D01*
X26462058Y-24349818D01*
X26076000Y-24509334D01*
X25780372Y-24804446D01*
X25620182Y-25190226D01*
X25619818Y-25607942D01*
X25645460Y-25670000D01*
X21586805Y-25670000D01*
X21492600Y-25529012D01*
X21291285Y-25394498D01*
X21654196Y-25037546D01*
X21899939Y-24457888D01*
X21905147Y-24431686D01*
X21745223Y-24180000D01*
X20370000Y-24180000D01*
X20370000Y-24200000D01*
X20270000Y-24200000D01*
X20270000Y-24180000D01*
X17830000Y-24180000D01*
X17830000Y-24200000D01*
X17730000Y-24200000D01*
X17730000Y-24180000D01*
X16354777Y-24180000D01*
X16194853Y-24431686D01*
X16200061Y-24457888D01*
X16445804Y-25037546D01*
X16808715Y-25394498D01*
X16607400Y-25529012D01*
X16257616Y-26052502D01*
X16134788Y-26670000D01*
X16257616Y-27287498D01*
X16607400Y-27810988D01*
X16800481Y-27940000D01*
X16607400Y-28069012D01*
X16257616Y-28592502D01*
X16134788Y-29210000D01*
X16257616Y-29827498D01*
X16607400Y-30350988D01*
X16800481Y-30480000D01*
X16607400Y-30609012D01*
X16513195Y-30750000D01*
X16510005Y-30750000D01*
X16510000Y-30749999D01*
X16127316Y-30826120D01*
X16065000Y-30867758D01*
X16065000Y-17335000D01*
X55630000Y-17335000D01*
X55630000Y-20490000D01*
M02*
