G04 #@! TF.FileFunction,Legend,Bot*
%FSLAX46Y46*%
G04 Gerber Fmt 4.6, Leading zero omitted, Abs format (unit mm)*
G04 Created by KiCad (PCBNEW 4.0.2+e4-6225~38~ubuntu15.10.1-stable) date Do 16 Jun 2016 10:00:32 CEST*
%MOMM*%
G01*
G04 APERTURE LIST*
%ADD10C,0.100000*%
%ADD11C,0.200000*%
%ADD12C,0.300000*%
%ADD13O,1.600000X2.200000*%
%ADD14R,2.432000X2.127200*%
%ADD15O,2.432000X2.127200*%
%ADD16O,1.901140X2.899360*%
%ADD17R,2.127200X2.127200*%
%ADD18O,2.127200X2.127200*%
G04 APERTURE END LIST*
D10*
D11*
X74930000Y-26035000D02*
X74930000Y-27305000D01*
D12*
X80589285Y-36308571D02*
X81303571Y-36308571D01*
X81303571Y-34808571D01*
X80089285Y-36308571D02*
X80089285Y-35308571D01*
X80089285Y-34808571D02*
X80160714Y-34880000D01*
X80089285Y-34951429D01*
X80017857Y-34880000D01*
X80089285Y-34808571D01*
X80089285Y-34951429D01*
X79374999Y-35308571D02*
X79374999Y-36308571D01*
X79374999Y-35451429D02*
X79303571Y-35380000D01*
X79160713Y-35308571D01*
X78946428Y-35308571D01*
X78803571Y-35380000D01*
X78732142Y-35522857D01*
X78732142Y-36308571D01*
X77446428Y-36237143D02*
X77589285Y-36308571D01*
X77874999Y-36308571D01*
X78017856Y-36237143D01*
X78089285Y-36094286D01*
X78089285Y-35522857D01*
X78017856Y-35380000D01*
X77874999Y-35308571D01*
X77589285Y-35308571D01*
X77446428Y-35380000D01*
X77374999Y-35522857D01*
X77374999Y-35665714D01*
X78089285Y-35808571D01*
X81160713Y-38708571D02*
X81874999Y-38708571D01*
X81874999Y-37208571D01*
X80089285Y-38637143D02*
X80232142Y-38708571D01*
X80517856Y-38708571D01*
X80660713Y-38637143D01*
X80732142Y-38494286D01*
X80732142Y-37922857D01*
X80660713Y-37780000D01*
X80517856Y-37708571D01*
X80232142Y-37708571D01*
X80089285Y-37780000D01*
X80017856Y-37922857D01*
X80017856Y-38065714D01*
X80732142Y-38208571D01*
X79517856Y-37708571D02*
X79160713Y-38708571D01*
X78803571Y-37708571D01*
X77660714Y-38637143D02*
X77803571Y-38708571D01*
X78089285Y-38708571D01*
X78232142Y-38637143D01*
X78303571Y-38494286D01*
X78303571Y-37922857D01*
X78232142Y-37780000D01*
X78089285Y-37708571D01*
X77803571Y-37708571D01*
X77660714Y-37780000D01*
X77589285Y-37922857D01*
X77589285Y-38065714D01*
X78303571Y-38208571D01*
X76732142Y-38708571D02*
X76875000Y-38637143D01*
X76946428Y-38494286D01*
X76946428Y-37208571D01*
X72377857Y-36308571D02*
X73092143Y-36308571D01*
X73092143Y-34808571D01*
X71663571Y-36308571D02*
X71806429Y-36237143D01*
X71877857Y-36165714D01*
X71949286Y-36022857D01*
X71949286Y-35594286D01*
X71877857Y-35451429D01*
X71806429Y-35380000D01*
X71663571Y-35308571D01*
X71449286Y-35308571D01*
X71306429Y-35380000D01*
X71235000Y-35451429D01*
X71163571Y-35594286D01*
X71163571Y-36022857D01*
X71235000Y-36165714D01*
X71306429Y-36237143D01*
X71449286Y-36308571D01*
X71663571Y-36308571D01*
X69877857Y-35308571D02*
X69877857Y-36522857D01*
X69949286Y-36665714D01*
X70020714Y-36737143D01*
X70163571Y-36808571D01*
X70377857Y-36808571D01*
X70520714Y-36737143D01*
X69877857Y-36237143D02*
X70020714Y-36308571D01*
X70306428Y-36308571D01*
X70449286Y-36237143D01*
X70520714Y-36165714D01*
X70592143Y-36022857D01*
X70592143Y-35594286D01*
X70520714Y-35451429D01*
X70449286Y-35380000D01*
X70306428Y-35308571D01*
X70020714Y-35308571D01*
X69877857Y-35380000D01*
X69163571Y-36308571D02*
X69163571Y-35308571D01*
X69163571Y-34808571D02*
X69235000Y-34880000D01*
X69163571Y-34951429D01*
X69092143Y-34880000D01*
X69163571Y-34808571D01*
X69163571Y-34951429D01*
X67806428Y-36237143D02*
X67949285Y-36308571D01*
X68234999Y-36308571D01*
X68377857Y-36237143D01*
X68449285Y-36165714D01*
X68520714Y-36022857D01*
X68520714Y-35594286D01*
X68449285Y-35451429D01*
X68377857Y-35380000D01*
X68234999Y-35308571D01*
X67949285Y-35308571D01*
X67806428Y-35380000D01*
X72270713Y-38708571D02*
X72984999Y-38708571D01*
X72984999Y-37208571D01*
X71199285Y-38637143D02*
X71342142Y-38708571D01*
X71627856Y-38708571D01*
X71770713Y-38637143D01*
X71842142Y-38494286D01*
X71842142Y-37922857D01*
X71770713Y-37780000D01*
X71627856Y-37708571D01*
X71342142Y-37708571D01*
X71199285Y-37780000D01*
X71127856Y-37922857D01*
X71127856Y-38065714D01*
X71842142Y-38208571D01*
X70627856Y-37708571D02*
X70270713Y-38708571D01*
X69913571Y-37708571D01*
X68770714Y-38637143D02*
X68913571Y-38708571D01*
X69199285Y-38708571D01*
X69342142Y-38637143D01*
X69413571Y-38494286D01*
X69413571Y-37922857D01*
X69342142Y-37780000D01*
X69199285Y-37708571D01*
X68913571Y-37708571D01*
X68770714Y-37780000D01*
X68699285Y-37922857D01*
X68699285Y-38065714D01*
X69413571Y-38208571D01*
X67842142Y-38708571D02*
X67985000Y-38637143D01*
X68056428Y-38494286D01*
X68056428Y-37208571D01*
D11*
X74930000Y-37465000D02*
X74930000Y-38735000D01*
X74930000Y-35560000D02*
X74930000Y-36830000D01*
X74930000Y-33655000D02*
X74930000Y-34925000D01*
X74930000Y-31750000D02*
X74930000Y-33020000D01*
X74930000Y-29845000D02*
X74930000Y-31115000D01*
X74930000Y-27940000D02*
X74930000Y-29210000D01*
X74930000Y-24130000D02*
X74930000Y-25400000D01*
X74930000Y-22225000D02*
X74930000Y-23495000D01*
X74930000Y-20320000D02*
X74930000Y-21590000D01*
X74930000Y-18415000D02*
X74930000Y-19685000D01*
X74930000Y-16510000D02*
X74930000Y-17780000D01*
D12*
X75450000Y-22097857D02*
X75378571Y-21955000D01*
X75378571Y-21740714D01*
X75450000Y-21526429D01*
X75592857Y-21383571D01*
X75735714Y-21312143D01*
X76021429Y-21240714D01*
X76235714Y-21240714D01*
X76521429Y-21312143D01*
X76664286Y-21383571D01*
X76807143Y-21526429D01*
X76878571Y-21740714D01*
X76878571Y-21883571D01*
X76807143Y-22097857D01*
X76735714Y-22169286D01*
X76235714Y-22169286D01*
X76235714Y-21883571D01*
X76878571Y-22812143D02*
X75378571Y-22812143D01*
X76878571Y-23669286D01*
X75378571Y-23669286D01*
X76878571Y-24383572D02*
X75378571Y-24383572D01*
X75378571Y-24740715D01*
X75450000Y-24955000D01*
X75592857Y-25097858D01*
X75735714Y-25169286D01*
X76021429Y-25240715D01*
X76235714Y-25240715D01*
X76521429Y-25169286D01*
X76664286Y-25097858D01*
X76807143Y-24955000D01*
X76878571Y-24740715D01*
X76878571Y-24383572D01*
X82998571Y-22026429D02*
X82998571Y-21312143D01*
X83712857Y-21240714D01*
X83641429Y-21312143D01*
X83570000Y-21455000D01*
X83570000Y-21812143D01*
X83641429Y-21955000D01*
X83712857Y-22026429D01*
X83855714Y-22097857D01*
X84212857Y-22097857D01*
X84355714Y-22026429D01*
X84427143Y-21955000D01*
X84498571Y-21812143D01*
X84498571Y-21455000D01*
X84427143Y-21312143D01*
X84355714Y-21240714D01*
X82998571Y-22526428D02*
X84498571Y-23026428D01*
X82998571Y-23526428D01*
X77918571Y-22026429D02*
X77918571Y-21312143D01*
X78632857Y-21240714D01*
X78561429Y-21312143D01*
X78490000Y-21455000D01*
X78490000Y-21812143D01*
X78561429Y-21955000D01*
X78632857Y-22026429D01*
X78775714Y-22097857D01*
X79132857Y-22097857D01*
X79275714Y-22026429D01*
X79347143Y-21955000D01*
X79418571Y-21812143D01*
X79418571Y-21455000D01*
X79347143Y-21312143D01*
X79275714Y-21240714D01*
X77918571Y-22526428D02*
X79418571Y-23026428D01*
X77918571Y-23526428D01*
X70370000Y-22097857D02*
X70298571Y-21955000D01*
X70298571Y-21740714D01*
X70370000Y-21526429D01*
X70512857Y-21383571D01*
X70655714Y-21312143D01*
X70941429Y-21240714D01*
X71155714Y-21240714D01*
X71441429Y-21312143D01*
X71584286Y-21383571D01*
X71727143Y-21526429D01*
X71798571Y-21740714D01*
X71798571Y-21883571D01*
X71727143Y-22097857D01*
X71655714Y-22169286D01*
X71155714Y-22169286D01*
X71155714Y-21883571D01*
X71798571Y-22812143D02*
X70298571Y-22812143D01*
X71798571Y-23669286D01*
X70298571Y-23669286D01*
X71798571Y-24383572D02*
X70298571Y-24383572D01*
X70298571Y-24740715D01*
X70370000Y-24955000D01*
X70512857Y-25097858D01*
X70655714Y-25169286D01*
X70941429Y-25240715D01*
X71155714Y-25240715D01*
X71441429Y-25169286D01*
X71584286Y-25097858D01*
X71727143Y-24955000D01*
X71798571Y-24740715D01*
X71798571Y-24383572D01*
X72838571Y-21169286D02*
X72838571Y-22097857D01*
X73410000Y-21597857D01*
X73410000Y-21812143D01*
X73481429Y-21955000D01*
X73552857Y-22026429D01*
X73695714Y-22097857D01*
X74052857Y-22097857D01*
X74195714Y-22026429D01*
X74267143Y-21955000D01*
X74338571Y-21812143D01*
X74338571Y-21383571D01*
X74267143Y-21240714D01*
X74195714Y-21169286D01*
X72838571Y-22526428D02*
X74338571Y-23026428D01*
X72838571Y-23526428D01*
X72838571Y-23883571D02*
X72838571Y-24812142D01*
X73410000Y-24312142D01*
X73410000Y-24526428D01*
X73481429Y-24669285D01*
X73552857Y-24740714D01*
X73695714Y-24812142D01*
X74052857Y-24812142D01*
X74195714Y-24740714D01*
X74267143Y-24669285D01*
X74338571Y-24526428D01*
X74338571Y-24097856D01*
X74267143Y-23954999D01*
X74195714Y-23883571D01*
X90954999Y-27205714D02*
X91026428Y-27277143D01*
X91240714Y-27348571D01*
X91383571Y-27348571D01*
X91597856Y-27277143D01*
X91740714Y-27134286D01*
X91812142Y-26991429D01*
X91883571Y-26705714D01*
X91883571Y-26491429D01*
X91812142Y-26205714D01*
X91740714Y-26062857D01*
X91597856Y-25920000D01*
X91383571Y-25848571D01*
X91240714Y-25848571D01*
X91026428Y-25920000D01*
X90954999Y-25991429D01*
X90383571Y-26920000D02*
X89669285Y-26920000D01*
X90526428Y-27348571D02*
X90026428Y-25848571D01*
X89526428Y-27348571D01*
X89026428Y-27348571D02*
X89026428Y-25848571D01*
X88169285Y-27348571D01*
X88169285Y-25848571D01*
X86312142Y-27348571D02*
X86312142Y-26348571D01*
X86312142Y-25848571D02*
X86383571Y-25920000D01*
X86312142Y-25991429D01*
X86240714Y-25920000D01*
X86312142Y-25848571D01*
X86312142Y-25991429D01*
X85597856Y-26348571D02*
X85597856Y-27348571D01*
X85597856Y-26491429D02*
X85526428Y-26420000D01*
X85383570Y-26348571D01*
X85169285Y-26348571D01*
X85026428Y-26420000D01*
X84954999Y-26562857D01*
X84954999Y-27348571D01*
X84454999Y-26348571D02*
X83883570Y-26348571D01*
X84240713Y-25848571D02*
X84240713Y-27134286D01*
X84169285Y-27277143D01*
X84026427Y-27348571D01*
X83883570Y-27348571D01*
X82812142Y-27277143D02*
X82954999Y-27348571D01*
X83240713Y-27348571D01*
X83383570Y-27277143D01*
X83454999Y-27134286D01*
X83454999Y-26562857D01*
X83383570Y-26420000D01*
X83240713Y-26348571D01*
X82954999Y-26348571D01*
X82812142Y-26420000D01*
X82740713Y-26562857D01*
X82740713Y-26705714D01*
X83454999Y-26848571D01*
X82097856Y-27348571D02*
X82097856Y-26348571D01*
X82097856Y-26634286D02*
X82026428Y-26491429D01*
X81954999Y-26420000D01*
X81812142Y-26348571D01*
X81669285Y-26348571D01*
X81383571Y-26348571D02*
X80812142Y-26348571D01*
X81169285Y-27348571D02*
X81169285Y-26062857D01*
X81097857Y-25920000D01*
X80954999Y-25848571D01*
X80812142Y-25848571D01*
X79669285Y-27348571D02*
X79669285Y-26562857D01*
X79740714Y-26420000D01*
X79883571Y-26348571D01*
X80169285Y-26348571D01*
X80312142Y-26420000D01*
X79669285Y-27277143D02*
X79812142Y-27348571D01*
X80169285Y-27348571D01*
X80312142Y-27277143D01*
X80383571Y-27134286D01*
X80383571Y-26991429D01*
X80312142Y-26848571D01*
X80169285Y-26777143D01*
X79812142Y-26777143D01*
X79669285Y-26705714D01*
X78312142Y-27277143D02*
X78454999Y-27348571D01*
X78740713Y-27348571D01*
X78883571Y-27277143D01*
X78954999Y-27205714D01*
X79026428Y-27062857D01*
X79026428Y-26634286D01*
X78954999Y-26491429D01*
X78883571Y-26420000D01*
X78740713Y-26348571D01*
X78454999Y-26348571D01*
X78312142Y-26420000D01*
X77097857Y-27277143D02*
X77240714Y-27348571D01*
X77526428Y-27348571D01*
X77669285Y-27277143D01*
X77740714Y-27134286D01*
X77740714Y-26562857D01*
X77669285Y-26420000D01*
X77526428Y-26348571D01*
X77240714Y-26348571D01*
X77097857Y-26420000D01*
X77026428Y-26562857D01*
X77026428Y-26705714D01*
X77740714Y-26848571D01*
X43829999Y-27205714D02*
X43901428Y-27277143D01*
X44115714Y-27348571D01*
X44258571Y-27348571D01*
X44472856Y-27277143D01*
X44615714Y-27134286D01*
X44687142Y-26991429D01*
X44758571Y-26705714D01*
X44758571Y-26491429D01*
X44687142Y-26205714D01*
X44615714Y-26062857D01*
X44472856Y-25920000D01*
X44258571Y-25848571D01*
X44115714Y-25848571D01*
X43901428Y-25920000D01*
X43829999Y-25991429D01*
X43258571Y-26920000D02*
X42544285Y-26920000D01*
X43401428Y-27348571D02*
X42901428Y-25848571D01*
X42401428Y-27348571D01*
X41901428Y-27348571D02*
X41901428Y-25848571D01*
X41044285Y-27348571D01*
X41044285Y-25848571D01*
X38544285Y-27277143D02*
X38687142Y-27348571D01*
X38972856Y-27348571D01*
X39115714Y-27277143D01*
X39187142Y-27205714D01*
X39258571Y-27062857D01*
X39258571Y-26634286D01*
X39187142Y-26491429D01*
X39115714Y-26420000D01*
X38972856Y-26348571D01*
X38687142Y-26348571D01*
X38544285Y-26420000D01*
X37687142Y-27348571D02*
X37830000Y-27277143D01*
X37901428Y-27205714D01*
X37972857Y-27062857D01*
X37972857Y-26634286D01*
X37901428Y-26491429D01*
X37830000Y-26420000D01*
X37687142Y-26348571D01*
X37472857Y-26348571D01*
X37330000Y-26420000D01*
X37258571Y-26491429D01*
X37187142Y-26634286D01*
X37187142Y-27062857D01*
X37258571Y-27205714D01*
X37330000Y-27277143D01*
X37472857Y-27348571D01*
X37687142Y-27348571D01*
X36544285Y-26348571D02*
X36544285Y-27348571D01*
X36544285Y-26491429D02*
X36472857Y-26420000D01*
X36329999Y-26348571D01*
X36115714Y-26348571D01*
X35972857Y-26420000D01*
X35901428Y-26562857D01*
X35901428Y-27348571D01*
X35401428Y-26348571D02*
X34829999Y-26348571D01*
X35187142Y-25848571D02*
X35187142Y-27134286D01*
X35115714Y-27277143D01*
X34972856Y-27348571D01*
X34829999Y-27348571D01*
X34329999Y-27348571D02*
X34329999Y-26348571D01*
X34329999Y-26634286D02*
X34258571Y-26491429D01*
X34187142Y-26420000D01*
X34044285Y-26348571D01*
X33901428Y-26348571D01*
X33187142Y-27348571D02*
X33330000Y-27277143D01*
X33401428Y-27205714D01*
X33472857Y-27062857D01*
X33472857Y-26634286D01*
X33401428Y-26491429D01*
X33330000Y-26420000D01*
X33187142Y-26348571D01*
X32972857Y-26348571D01*
X32830000Y-26420000D01*
X32758571Y-26491429D01*
X32687142Y-26634286D01*
X32687142Y-27062857D01*
X32758571Y-27205714D01*
X32830000Y-27277143D01*
X32972857Y-27348571D01*
X33187142Y-27348571D01*
X31829999Y-27348571D02*
X31972857Y-27277143D01*
X32044285Y-27134286D01*
X32044285Y-25848571D01*
X31044285Y-27348571D02*
X31187143Y-27277143D01*
X31258571Y-27134286D01*
X31258571Y-25848571D01*
X29901429Y-27277143D02*
X30044286Y-27348571D01*
X30330000Y-27348571D01*
X30472857Y-27277143D01*
X30544286Y-27134286D01*
X30544286Y-26562857D01*
X30472857Y-26420000D01*
X30330000Y-26348571D01*
X30044286Y-26348571D01*
X29901429Y-26420000D01*
X29830000Y-26562857D01*
X29830000Y-26705714D01*
X30544286Y-26848571D01*
X29187143Y-27348571D02*
X29187143Y-26348571D01*
X29187143Y-26634286D02*
X29115715Y-26491429D01*
X29044286Y-26420000D01*
X28901429Y-26348571D01*
X28758572Y-26348571D01*
X25653572Y-23380000D02*
X25796429Y-23308571D01*
X26010715Y-23308571D01*
X26225000Y-23380000D01*
X26367858Y-23522857D01*
X26439286Y-23665714D01*
X26510715Y-23951429D01*
X26510715Y-24165714D01*
X26439286Y-24451429D01*
X26367858Y-24594286D01*
X26225000Y-24737143D01*
X26010715Y-24808571D01*
X25867858Y-24808571D01*
X25653572Y-24737143D01*
X25582143Y-24665714D01*
X25582143Y-24165714D01*
X25867858Y-24165714D01*
X24939286Y-24808571D02*
X24939286Y-23308571D01*
X24082143Y-24808571D01*
X24082143Y-23308571D01*
X23367857Y-24808571D02*
X23367857Y-23308571D01*
X23010714Y-23308571D01*
X22796429Y-23380000D01*
X22653571Y-23522857D01*
X22582143Y-23665714D01*
X22510714Y-23951429D01*
X22510714Y-24165714D01*
X22582143Y-24451429D01*
X22653571Y-24594286D01*
X22796429Y-24737143D01*
X23010714Y-24808571D01*
X23367857Y-24808571D01*
X26153570Y-20768571D02*
X25224999Y-20768571D01*
X25724999Y-21340000D01*
X25510713Y-21340000D01*
X25367856Y-21411429D01*
X25296427Y-21482857D01*
X25224999Y-21625714D01*
X25224999Y-21982857D01*
X25296427Y-22125714D01*
X25367856Y-22197143D01*
X25510713Y-22268571D01*
X25939285Y-22268571D01*
X26082142Y-22197143D01*
X26153570Y-22125714D01*
X24796428Y-20768571D02*
X24296428Y-22268571D01*
X23796428Y-20768571D01*
X23439285Y-20768571D02*
X22510714Y-20768571D01*
X23010714Y-21340000D01*
X22796428Y-21340000D01*
X22653571Y-21411429D01*
X22582142Y-21482857D01*
X22510714Y-21625714D01*
X22510714Y-21982857D01*
X22582142Y-22125714D01*
X22653571Y-22197143D01*
X22796428Y-22268571D01*
X23225000Y-22268571D01*
X23367857Y-22197143D01*
X23439285Y-22125714D01*
X50292143Y-23380000D02*
X50435000Y-23308571D01*
X50649286Y-23308571D01*
X50863571Y-23380000D01*
X51006429Y-23522857D01*
X51077857Y-23665714D01*
X51149286Y-23951429D01*
X51149286Y-24165714D01*
X51077857Y-24451429D01*
X51006429Y-24594286D01*
X50863571Y-24737143D01*
X50649286Y-24808571D01*
X50506429Y-24808571D01*
X50292143Y-24737143D01*
X50220714Y-24665714D01*
X50220714Y-24165714D01*
X50506429Y-24165714D01*
X49577857Y-24808571D02*
X49577857Y-23308571D01*
X48720714Y-24808571D01*
X48720714Y-23308571D01*
X48006428Y-24808571D02*
X48006428Y-23308571D01*
X47649285Y-23308571D01*
X47435000Y-23380000D01*
X47292142Y-23522857D01*
X47220714Y-23665714D01*
X47149285Y-23951429D01*
X47149285Y-24165714D01*
X47220714Y-24451429D01*
X47292142Y-24594286D01*
X47435000Y-24737143D01*
X47649285Y-24808571D01*
X48006428Y-24808571D01*
X51220714Y-20768571D02*
X50292143Y-20768571D01*
X50792143Y-21340000D01*
X50577857Y-21340000D01*
X50435000Y-21411429D01*
X50363571Y-21482857D01*
X50292143Y-21625714D01*
X50292143Y-21982857D01*
X50363571Y-22125714D01*
X50435000Y-22197143D01*
X50577857Y-22268571D01*
X51006429Y-22268571D01*
X51149286Y-22197143D01*
X51220714Y-22125714D01*
X49863572Y-20768571D02*
X49363572Y-22268571D01*
X48863572Y-20768571D01*
X48506429Y-20768571D02*
X47577858Y-20768571D01*
X48077858Y-21340000D01*
X47863572Y-21340000D01*
X47720715Y-21411429D01*
X47649286Y-21482857D01*
X47577858Y-21625714D01*
X47577858Y-21982857D01*
X47649286Y-22125714D01*
X47720715Y-22197143D01*
X47863572Y-22268571D01*
X48292144Y-22268571D01*
X48435001Y-22197143D01*
X48506429Y-22125714D01*
D11*
X18415000Y-36195000D02*
X22225000Y-36195000D01*
X17780000Y-35560000D02*
X18415000Y-36195000D01*
X15875000Y-32385000D02*
X15875000Y-36195000D01*
X16510000Y-31750000D02*
X15875000Y-32385000D01*
D12*
X25296429Y-37508571D02*
X25296429Y-36008571D01*
X24582143Y-37508571D02*
X24582143Y-36008571D01*
X23725000Y-37508571D01*
X23725000Y-36008571D01*
X23225000Y-36008571D02*
X22367857Y-36008571D01*
X22796428Y-37508571D02*
X22796428Y-36008571D01*
X19367142Y-38778571D02*
X19867142Y-38064286D01*
X20224285Y-38778571D02*
X20224285Y-37278571D01*
X19652857Y-37278571D01*
X19509999Y-37350000D01*
X19438571Y-37421429D01*
X19367142Y-37564286D01*
X19367142Y-37778571D01*
X19438571Y-37921429D01*
X19509999Y-37992857D01*
X19652857Y-38064286D01*
X20224285Y-38064286D01*
X18795714Y-38707143D02*
X18581428Y-38778571D01*
X18224285Y-38778571D01*
X18081428Y-38707143D01*
X18009999Y-38635714D01*
X17938571Y-38492857D01*
X17938571Y-38350000D01*
X18009999Y-38207143D01*
X18081428Y-38135714D01*
X18224285Y-38064286D01*
X18509999Y-37992857D01*
X18652857Y-37921429D01*
X18724285Y-37850000D01*
X18795714Y-37707143D01*
X18795714Y-37564286D01*
X18724285Y-37421429D01*
X18652857Y-37350000D01*
X18509999Y-37278571D01*
X18152857Y-37278571D01*
X17938571Y-37350000D01*
X17510000Y-37278571D02*
X16652857Y-37278571D01*
X17081428Y-38778571D02*
X17081428Y-37278571D01*
X66793570Y-20768571D02*
X65864999Y-20768571D01*
X66364999Y-21340000D01*
X66150713Y-21340000D01*
X66007856Y-21411429D01*
X65936427Y-21482857D01*
X65864999Y-21625714D01*
X65864999Y-21982857D01*
X65936427Y-22125714D01*
X66007856Y-22197143D01*
X66150713Y-22268571D01*
X66579285Y-22268571D01*
X66722142Y-22197143D01*
X66793570Y-22125714D01*
X65436428Y-20768571D02*
X64936428Y-22268571D01*
X64436428Y-20768571D01*
X64079285Y-20768571D02*
X63150714Y-20768571D01*
X63650714Y-21340000D01*
X63436428Y-21340000D01*
X63293571Y-21411429D01*
X63222142Y-21482857D01*
X63150714Y-21625714D01*
X63150714Y-21982857D01*
X63222142Y-22125714D01*
X63293571Y-22197143D01*
X63436428Y-22268571D01*
X63865000Y-22268571D01*
X64007857Y-22197143D01*
X64079285Y-22125714D01*
X66293572Y-23380000D02*
X66436429Y-23308571D01*
X66650715Y-23308571D01*
X66865000Y-23380000D01*
X67007858Y-23522857D01*
X67079286Y-23665714D01*
X67150715Y-23951429D01*
X67150715Y-24165714D01*
X67079286Y-24451429D01*
X67007858Y-24594286D01*
X66865000Y-24737143D01*
X66650715Y-24808571D01*
X66507858Y-24808571D01*
X66293572Y-24737143D01*
X66222143Y-24665714D01*
X66222143Y-24165714D01*
X66507858Y-24165714D01*
X65579286Y-24808571D02*
X65579286Y-23308571D01*
X64722143Y-24808571D01*
X64722143Y-23308571D01*
X64007857Y-24808571D02*
X64007857Y-23308571D01*
X63650714Y-23308571D01*
X63436429Y-23380000D01*
X63293571Y-23522857D01*
X63222143Y-23665714D01*
X63150714Y-23951429D01*
X63150714Y-24165714D01*
X63222143Y-24451429D01*
X63293571Y-24594286D01*
X63436429Y-24737143D01*
X63650714Y-24808571D01*
X64007857Y-24808571D01*
X23939285Y-34825714D02*
X24010714Y-34897143D01*
X24225000Y-34968571D01*
X24367857Y-34968571D01*
X24582142Y-34897143D01*
X24725000Y-34754286D01*
X24796428Y-34611429D01*
X24867857Y-34325714D01*
X24867857Y-34111429D01*
X24796428Y-33825714D01*
X24725000Y-33682857D01*
X24582142Y-33540000D01*
X24367857Y-33468571D01*
X24225000Y-33468571D01*
X24010714Y-33540000D01*
X23939285Y-33611429D01*
X23367857Y-34897143D02*
X23153571Y-34968571D01*
X22796428Y-34968571D01*
X22653571Y-34897143D01*
X22582142Y-34825714D01*
X22510714Y-34682857D01*
X22510714Y-34540000D01*
X22582142Y-34397143D01*
X22653571Y-34325714D01*
X22796428Y-34254286D01*
X23082142Y-34182857D01*
X23225000Y-34111429D01*
X23296428Y-34040000D01*
X23367857Y-33897143D01*
X23367857Y-33754286D01*
X23296428Y-33611429D01*
X23225000Y-33540000D01*
X23082142Y-33468571D01*
X22725000Y-33468571D01*
X22510714Y-33540000D01*
X27296429Y-32428571D02*
X27296429Y-30928571D01*
X26796429Y-32000000D01*
X26296429Y-30928571D01*
X26296429Y-32428571D01*
X25296429Y-30928571D02*
X25010715Y-30928571D01*
X24867857Y-31000000D01*
X24725000Y-31142857D01*
X24653572Y-31428571D01*
X24653572Y-31928571D01*
X24725000Y-32214286D01*
X24867857Y-32357143D01*
X25010715Y-32428571D01*
X25296429Y-32428571D01*
X25439286Y-32357143D01*
X25582143Y-32214286D01*
X25653572Y-31928571D01*
X25653572Y-31428571D01*
X25582143Y-31142857D01*
X25439286Y-31000000D01*
X25296429Y-30928571D01*
X24082143Y-32357143D02*
X23867857Y-32428571D01*
X23510714Y-32428571D01*
X23367857Y-32357143D01*
X23296428Y-32285714D01*
X23225000Y-32142857D01*
X23225000Y-32000000D01*
X23296428Y-31857143D01*
X23367857Y-31785714D01*
X23510714Y-31714286D01*
X23796428Y-31642857D01*
X23939286Y-31571429D01*
X24010714Y-31500000D01*
X24082143Y-31357143D01*
X24082143Y-31214286D01*
X24010714Y-31071429D01*
X23939286Y-31000000D01*
X23796428Y-30928571D01*
X23439286Y-30928571D01*
X23225000Y-31000000D01*
X22582143Y-32428571D02*
X22582143Y-30928571D01*
X27296429Y-29888571D02*
X27296429Y-28388571D01*
X26796429Y-29460000D01*
X26296429Y-28388571D01*
X26296429Y-29888571D01*
X25582143Y-29888571D02*
X25582143Y-28388571D01*
X24939286Y-29817143D02*
X24725000Y-29888571D01*
X24367857Y-29888571D01*
X24225000Y-29817143D01*
X24153571Y-29745714D01*
X24082143Y-29602857D01*
X24082143Y-29460000D01*
X24153571Y-29317143D01*
X24225000Y-29245714D01*
X24367857Y-29174286D01*
X24653571Y-29102857D01*
X24796429Y-29031429D01*
X24867857Y-28960000D01*
X24939286Y-28817143D01*
X24939286Y-28674286D01*
X24867857Y-28531429D01*
X24796429Y-28460000D01*
X24653571Y-28388571D01*
X24296429Y-28388571D01*
X24082143Y-28460000D01*
X23153572Y-28388571D02*
X22867858Y-28388571D01*
X22725000Y-28460000D01*
X22582143Y-28602857D01*
X22510715Y-28888571D01*
X22510715Y-29388571D01*
X22582143Y-29674286D01*
X22725000Y-29817143D01*
X22867858Y-29888571D01*
X23153572Y-29888571D01*
X23296429Y-29817143D01*
X23439286Y-29674286D01*
X23510715Y-29388571D01*
X23510715Y-28888571D01*
X23439286Y-28602857D01*
X23296429Y-28460000D01*
X23153572Y-28388571D01*
X26367857Y-27277143D02*
X26153571Y-27348571D01*
X25796428Y-27348571D01*
X25653571Y-27277143D01*
X25582142Y-27205714D01*
X25510714Y-27062857D01*
X25510714Y-26920000D01*
X25582142Y-26777143D01*
X25653571Y-26705714D01*
X25796428Y-26634286D01*
X26082142Y-26562857D01*
X26225000Y-26491429D01*
X26296428Y-26420000D01*
X26367857Y-26277143D01*
X26367857Y-26134286D01*
X26296428Y-25991429D01*
X26225000Y-25920000D01*
X26082142Y-25848571D01*
X25725000Y-25848571D01*
X25510714Y-25920000D01*
X24010714Y-27205714D02*
X24082143Y-27277143D01*
X24296429Y-27348571D01*
X24439286Y-27348571D01*
X24653571Y-27277143D01*
X24796429Y-27134286D01*
X24867857Y-26991429D01*
X24939286Y-26705714D01*
X24939286Y-26491429D01*
X24867857Y-26205714D01*
X24796429Y-26062857D01*
X24653571Y-25920000D01*
X24439286Y-25848571D01*
X24296429Y-25848571D01*
X24082143Y-25920000D01*
X24010714Y-25991429D01*
X23367857Y-27348571D02*
X23367857Y-25848571D01*
X22510714Y-27348571D02*
X23153571Y-26491429D01*
X22510714Y-25848571D02*
X23367857Y-26705714D01*
X70079285Y-29745714D02*
X70150714Y-29817143D01*
X70365000Y-29888571D01*
X70507857Y-29888571D01*
X70722142Y-29817143D01*
X70865000Y-29674286D01*
X70936428Y-29531429D01*
X71007857Y-29245714D01*
X71007857Y-29031429D01*
X70936428Y-28745714D01*
X70865000Y-28602857D01*
X70722142Y-28460000D01*
X70507857Y-28388571D01*
X70365000Y-28388571D01*
X70150714Y-28460000D01*
X70079285Y-28531429D01*
X69507857Y-29460000D02*
X68793571Y-29460000D01*
X69650714Y-29888571D02*
X69150714Y-28388571D01*
X68650714Y-29888571D01*
X68150714Y-29888571D02*
X68150714Y-28388571D01*
X67293571Y-29888571D01*
X67293571Y-28388571D01*
X64579285Y-29888571D02*
X65079285Y-29174286D01*
X65436428Y-29888571D02*
X65436428Y-28388571D01*
X64865000Y-28388571D01*
X64722142Y-28460000D01*
X64650714Y-28531429D01*
X64579285Y-28674286D01*
X64579285Y-28888571D01*
X64650714Y-29031429D01*
X64722142Y-29102857D01*
X64865000Y-29174286D01*
X65436428Y-29174286D01*
X64079285Y-28388571D02*
X63079285Y-29888571D01*
X63079285Y-28388571D02*
X64079285Y-29888571D01*
X50220714Y-29745714D02*
X50292143Y-29817143D01*
X50506429Y-29888571D01*
X50649286Y-29888571D01*
X50863571Y-29817143D01*
X51006429Y-29674286D01*
X51077857Y-29531429D01*
X51149286Y-29245714D01*
X51149286Y-29031429D01*
X51077857Y-28745714D01*
X51006429Y-28602857D01*
X50863571Y-28460000D01*
X50649286Y-28388571D01*
X50506429Y-28388571D01*
X50292143Y-28460000D01*
X50220714Y-28531429D01*
X49649286Y-29460000D02*
X48935000Y-29460000D01*
X49792143Y-29888571D02*
X49292143Y-28388571D01*
X48792143Y-29888571D01*
X48292143Y-29888571D02*
X48292143Y-28388571D01*
X47435000Y-29888571D01*
X47435000Y-28388571D01*
X44720714Y-29888571D02*
X45220714Y-29174286D01*
X45577857Y-29888571D02*
X45577857Y-28388571D01*
X45006429Y-28388571D01*
X44863571Y-28460000D01*
X44792143Y-28531429D01*
X44720714Y-28674286D01*
X44720714Y-28888571D01*
X44792143Y-29031429D01*
X44863571Y-29102857D01*
X45006429Y-29174286D01*
X45577857Y-29174286D01*
X44220714Y-28388571D02*
X43220714Y-29888571D01*
X43220714Y-28388571D02*
X44220714Y-29888571D01*
X69722142Y-32285714D02*
X69793571Y-32357143D01*
X70007857Y-32428571D01*
X70150714Y-32428571D01*
X70364999Y-32357143D01*
X70507857Y-32214286D01*
X70579285Y-32071429D01*
X70650714Y-31785714D01*
X70650714Y-31571429D01*
X70579285Y-31285714D01*
X70507857Y-31142857D01*
X70364999Y-31000000D01*
X70150714Y-30928571D01*
X70007857Y-30928571D01*
X69793571Y-31000000D01*
X69722142Y-31071429D01*
X69150714Y-32000000D02*
X68436428Y-32000000D01*
X69293571Y-32428571D02*
X68793571Y-30928571D01*
X68293571Y-32428571D01*
X67793571Y-32428571D02*
X67793571Y-30928571D01*
X66936428Y-32428571D01*
X66936428Y-30928571D01*
X65293571Y-30928571D02*
X64436428Y-30928571D01*
X64864999Y-32428571D02*
X64864999Y-30928571D01*
X64079285Y-30928571D02*
X63079285Y-32428571D01*
X63079285Y-30928571D02*
X64079285Y-32428571D01*
X50220714Y-32285714D02*
X50292143Y-32357143D01*
X50506429Y-32428571D01*
X50649286Y-32428571D01*
X50863571Y-32357143D01*
X51006429Y-32214286D01*
X51077857Y-32071429D01*
X51149286Y-31785714D01*
X51149286Y-31571429D01*
X51077857Y-31285714D01*
X51006429Y-31142857D01*
X50863571Y-31000000D01*
X50649286Y-30928571D01*
X50506429Y-30928571D01*
X50292143Y-31000000D01*
X50220714Y-31071429D01*
X49649286Y-32000000D02*
X48935000Y-32000000D01*
X49792143Y-32428571D02*
X49292143Y-30928571D01*
X48792143Y-32428571D01*
X48292143Y-32428571D02*
X48292143Y-30928571D01*
X47435000Y-32428571D01*
X47435000Y-30928571D01*
X45792143Y-30928571D02*
X44935000Y-30928571D01*
X45363571Y-32428571D02*
X45363571Y-30928571D01*
X44577857Y-30928571D02*
X43577857Y-32428571D01*
X43577857Y-30928571D02*
X44577857Y-32428571D01*
X103560714Y-24665714D02*
X103632143Y-24737143D01*
X103846429Y-24808571D01*
X103989286Y-24808571D01*
X104203571Y-24737143D01*
X104346429Y-24594286D01*
X104417857Y-24451429D01*
X104489286Y-24165714D01*
X104489286Y-23951429D01*
X104417857Y-23665714D01*
X104346429Y-23522857D01*
X104203571Y-23380000D01*
X103989286Y-23308571D01*
X103846429Y-23308571D01*
X103632143Y-23380000D01*
X103560714Y-23451429D01*
X102989286Y-24380000D02*
X102275000Y-24380000D01*
X103132143Y-24808571D02*
X102632143Y-23308571D01*
X102132143Y-24808571D01*
X101632143Y-24808571D02*
X101632143Y-23308571D01*
X100775000Y-24808571D01*
X100775000Y-23308571D01*
X99132143Y-23308571D02*
X98632143Y-24808571D01*
X98132143Y-23308571D01*
X97632143Y-24237143D02*
X96489286Y-24237143D01*
X97060715Y-24808571D02*
X97060715Y-23665714D01*
X103560714Y-27205714D02*
X103632143Y-27277143D01*
X103846429Y-27348571D01*
X103989286Y-27348571D01*
X104203571Y-27277143D01*
X104346429Y-27134286D01*
X104417857Y-26991429D01*
X104489286Y-26705714D01*
X104489286Y-26491429D01*
X104417857Y-26205714D01*
X104346429Y-26062857D01*
X104203571Y-25920000D01*
X103989286Y-25848571D01*
X103846429Y-25848571D01*
X103632143Y-25920000D01*
X103560714Y-25991429D01*
X102989286Y-26920000D02*
X102275000Y-26920000D01*
X103132143Y-27348571D02*
X102632143Y-25848571D01*
X102132143Y-27348571D01*
X101632143Y-27348571D02*
X101632143Y-25848571D01*
X100775000Y-27348571D01*
X100775000Y-25848571D01*
X98132143Y-25920000D02*
X98275000Y-25848571D01*
X98489286Y-25848571D01*
X98703571Y-25920000D01*
X98846429Y-26062857D01*
X98917857Y-26205714D01*
X98989286Y-26491429D01*
X98989286Y-26705714D01*
X98917857Y-26991429D01*
X98846429Y-27134286D01*
X98703571Y-27277143D01*
X98489286Y-27348571D01*
X98346429Y-27348571D01*
X98132143Y-27277143D01*
X98060714Y-27205714D01*
X98060714Y-26705714D01*
X98346429Y-26705714D01*
X97417857Y-27348571D02*
X97417857Y-25848571D01*
X96560714Y-27348571D01*
X96560714Y-25848571D01*
X95846428Y-27348571D02*
X95846428Y-25848571D01*
X95489285Y-25848571D01*
X95275000Y-25920000D01*
X95132142Y-26062857D01*
X95060714Y-26205714D01*
X94989285Y-26491429D01*
X94989285Y-26705714D01*
X95060714Y-26991429D01*
X95132142Y-27134286D01*
X95275000Y-27277143D01*
X95489285Y-27348571D01*
X95846428Y-27348571D01*
X103560714Y-32285714D02*
X103632143Y-32357143D01*
X103846429Y-32428571D01*
X103989286Y-32428571D01*
X104203571Y-32357143D01*
X104346429Y-32214286D01*
X104417857Y-32071429D01*
X104489286Y-31785714D01*
X104489286Y-31571429D01*
X104417857Y-31285714D01*
X104346429Y-31142857D01*
X104203571Y-31000000D01*
X103989286Y-30928571D01*
X103846429Y-30928571D01*
X103632143Y-31000000D01*
X103560714Y-31071429D01*
X102989286Y-32000000D02*
X102275000Y-32000000D01*
X103132143Y-32428571D02*
X102632143Y-30928571D01*
X102132143Y-32428571D01*
X101632143Y-32428571D02*
X101632143Y-30928571D01*
X100775000Y-32428571D01*
X100775000Y-30928571D01*
X98203571Y-32428571D02*
X98917857Y-32428571D01*
X98917857Y-30928571D01*
X97417857Y-30928571D02*
X97132143Y-30928571D01*
X96989285Y-31000000D01*
X96846428Y-31142857D01*
X96775000Y-31428571D01*
X96775000Y-31928571D01*
X96846428Y-32214286D01*
X96989285Y-32357143D01*
X97132143Y-32428571D01*
X97417857Y-32428571D01*
X97560714Y-32357143D01*
X97703571Y-32214286D01*
X97775000Y-31928571D01*
X97775000Y-31428571D01*
X97703571Y-31142857D01*
X97560714Y-31000000D01*
X97417857Y-30928571D01*
X96274999Y-30928571D02*
X95917856Y-32428571D01*
X95632142Y-31357143D01*
X95346428Y-32428571D01*
X94989285Y-30928571D01*
X103560714Y-29745714D02*
X103632143Y-29817143D01*
X103846429Y-29888571D01*
X103989286Y-29888571D01*
X104203571Y-29817143D01*
X104346429Y-29674286D01*
X104417857Y-29531429D01*
X104489286Y-29245714D01*
X104489286Y-29031429D01*
X104417857Y-28745714D01*
X104346429Y-28602857D01*
X104203571Y-28460000D01*
X103989286Y-28388571D01*
X103846429Y-28388571D01*
X103632143Y-28460000D01*
X103560714Y-28531429D01*
X102989286Y-29460000D02*
X102275000Y-29460000D01*
X103132143Y-29888571D02*
X102632143Y-28388571D01*
X102132143Y-29888571D01*
X101632143Y-29888571D02*
X101632143Y-28388571D01*
X100775000Y-29888571D01*
X100775000Y-28388571D01*
X98917857Y-29888571D02*
X98917857Y-28388571D01*
X98917857Y-29102857D02*
X98060714Y-29102857D01*
X98060714Y-29888571D02*
X98060714Y-28388571D01*
X97346428Y-29888571D02*
X97346428Y-28388571D01*
X95846428Y-28460000D02*
X95989285Y-28388571D01*
X96203571Y-28388571D01*
X96417856Y-28460000D01*
X96560714Y-28602857D01*
X96632142Y-28745714D01*
X96703571Y-29031429D01*
X96703571Y-29245714D01*
X96632142Y-29531429D01*
X96560714Y-29674286D01*
X96417856Y-29817143D01*
X96203571Y-29888571D01*
X96060714Y-29888571D01*
X95846428Y-29817143D01*
X95774999Y-29745714D01*
X95774999Y-29245714D01*
X96060714Y-29245714D01*
X95132142Y-29888571D02*
X95132142Y-28388571D01*
X95132142Y-29102857D02*
X94274999Y-29102857D01*
X94274999Y-29888571D02*
X94274999Y-28388571D01*
%LPC*%
D13*
X71120000Y-19050000D03*
X73660000Y-19050000D03*
X76200000Y-19050000D03*
X78740000Y-19050000D03*
D14*
X53340000Y-34290000D03*
D15*
X53340000Y-31750000D03*
X53340000Y-29210000D03*
X53340000Y-26670000D03*
X53340000Y-24130000D03*
X53340000Y-21590000D03*
D16*
X86360000Y-19050000D03*
X83820000Y-19050000D03*
X88900000Y-19050000D03*
D14*
X106680000Y-31750000D03*
D15*
X106680000Y-29210000D03*
X106680000Y-26670000D03*
X106680000Y-24130000D03*
D14*
X60960000Y-34290000D03*
D15*
X60960000Y-31750000D03*
X60960000Y-29210000D03*
X60960000Y-26670000D03*
X60960000Y-24130000D03*
X60960000Y-21590000D03*
D17*
X20320000Y-34290000D03*
D18*
X17780000Y-34290000D03*
X20320000Y-31750000D03*
X17780000Y-31750000D03*
X20320000Y-29210000D03*
X17780000Y-29210000D03*
X20320000Y-26670000D03*
X17780000Y-26670000D03*
X20320000Y-24130000D03*
X17780000Y-24130000D03*
X20320000Y-21590000D03*
X17780000Y-21590000D03*
M02*
